{
.appVersion = "895";
classes = (
{
code = "Alphatonos Epsilontonos Etatonos Iotatonos Omicrontonos Upsilontonos Omegatonos uni1F0A uni1F0B uni1F0C uni1F0D uni1FBA uni1FBB uni1F1A uni1F1B uni1F1C uni1F1D uni1FC8 uni1FC9 uni1F2A uni1F2B uni1F2C uni1F2D uni1FCA uni1FCB uni1F3A uni1F3B uni1F3C uni1F3D uni1FDA uni1FDB uni1F4A uni1F4B uni1F4C uni1F4D uni1FF8 uni1FF9 uni1F5B uni1F5D uni1FEA uni1FEB uni1F6A uni1F6B uni1F6C uni1F6D uni1FFA uni1FFB";
name = case4;
},
{
code = "Alphatonos Epsilontonos Etatonos Iotatonos Omicrontonos Upsilontonos Omegatonos uni1F08 uni1F09 uni1F0A uni1F0B uni1F0C uni1F0D uni1F0E uni1F0F uni1F18 uni1F19 uni1F1A uni1F1B uni1F1C uni1F1D uni1F28 uni1F29 uni1F2A uni1F2B uni1F2C uni1F2D uni1F2E uni1F2F uni1F38 uni1F39 uni1F3A uni1F3B uni1F3C uni1F3D uni1F3E uni1F3F uni1F48 uni1F49 uni1F4A uni1F4B uni1F4C uni1F4D uni1F59 uni1F5B uni1F5D uni1F5F uni1F68 uni1F69 uni1F6A uni1F6B uni1F6C uni1F6D uni1F6E uni1F6F uni1F88 uni1F89 uni1F8A uni1F8B uni1F8C uni1F8D uni1F8E uni1F8F uni1F98 uni1F99 uni1F9A uni1F9B uni1F9C uni1F9D uni1F9E uni1F9F uni1FA8 uni1FA9 uni1FAA uni1FAB uni1FAC uni1FAD uni1FAE uni1FAF uni1FB8 uni1FB9 uni1FBA uni1FBB uni1FBC uni1FC8 uni1FC9 uni1FCA uni1FCB uni1FCC uni1FD8 uni1FD9 uni1FDA uni1FDB uni1FE8 uni1FE9 uni1FEA uni1FEB uni1FEC uni1FF8 uni1FF9 uni1FFA uni1FFB uni1FFC uni1FBC.ad uni1F88.ad uni1F89.ad uni1F8A.ad uni1F8B.ad uni1F8C.ad uni1F8D.ad uni1F8E.ad uni1F8F.ad uni1FCC.ad uni1F98.ad uni1F99.ad uni1F9A.ad uni1F9B.ad uni1F9C.ad uni1F9D.ad uni1F9E.ad uni1F9F.ad uni1FFC.ad uni1FA8.ad uni1FA9.ad uni1FAA.ad uni1FAB.ad uni1FAC.ad uni1FAD.ad uni1FAE.ad uni1FAF.ad";
name = case5;
},
{

glyphs = (
{
glyphname = exclam;
lastChange = "2016-06-05 15:24:03 +0000";
layers = (
{
background = {
paths = (
{
closed = 1;
nodes = (
"143 194 LINE",
"190 194 LINE",
"207 486 OFFCURVE",
"235 605 OFFCURVE",
"264 691 CURVE",
"252 703 OFFCURVE",
"230 715 OFFCURVE",
"205 715 CURVE SMOOTH",
"169 715 OFFCURVE",
"145 695 OFFCURVE",
"143 651 CURVE SMOOTH",
"142 621 OFFCURVE",
"142 583 OFFCURVE",
"142 533 CURVE SMOOTH"
);
},
{
closed = 1;
nodes = (
"93 9 OFFCURVE",
"120 -14 OFFCURVE",
"161 -14 CURVE SMOOTH",
"202 -14 OFFCURVE",
"234 10 OFFCURVE",
"234 51 CURVE SMOOTH",
"234 92 OFFCURVE",
"207 119 OFFCURVE",
"166 119 CURVE SMOOTH",
"125 119 OFFCURVE",
"93 92 OFFCURVE",
"93 50 CURVE SMOOTH"
);
}
);
};
hints = (
{
place = "{93, 141}";
},
{
place = "{142, 48}";
},
{
horizontal = 1;
place = "{-14, 133}";
},
{
horizontal = 1;
place = "{715, -20}";
target = down;
type = TopGhost;
}
);
layerId = UUID0;
paths = (
{
closed = 1;
nodes = (
"143 194 LINE",
"190 194 LINE",
"207 486 OFFCURVE",
"235 605 OFFCURVE",
"264 691 CURVE",
"252 703 OFFCURVE",
"230 715 OFFCURVE",
"205 715 CURVE SMOOTH",
"169 715 OFFCURVE",
"145 695 OFFCURVE",
"143 651 CURVE SMOOTH",
"142 621 OFFCURVE",
"142 583 OFFCURVE",
"142 533 CURVE SMOOTH"
);
},
{
closed = 1;
nodes = (
"93 9 OFFCURVE",
"120 -14 OFFCURVE",
"161 -14 CURVE SMOOTH",
"202 -14 OFFCURVE",
"234 10 OFFCURVE",
"234 51 CURVE SMOOTH",
"234 92 OFFCURVE",
"207 119 OFFCURVE",
"166 119 CURVE SMOOTH",
"125 119 OFFCURVE",
"93 92 OFFCURVE",
"93 50 CURVE SMOOTH"
);
}
);
width = 329;
},
{
background = {
paths = (
{
closed = 1;
nodes = (
"129 194 LINE",
"201 194 LINE",
"218 486 OFFCURVE",
"255 590 OFFCURVE",
"284 676 CURVE",
"262 701 OFFCURVE",
"225 715 OFFCURVE",
"195 715 CURVE SMOOTH",
"149 715 OFFCURVE",
"123 688 OFFCURVE",
"121 644 CURVE SMOOTH",
"120 614 OFFCURVE",
"119 583 OFFCURVE",
"120 533 CURVE SMOOTH"
);
},
{
closed = 1;
nodes = (
"75 11 OFFCURVE",
"109 -15 OFFCURVE",
"161 -15 CURVE SMOOTH",
"213 -15 OFFCURVE",
"253 12 OFFCURVE",
"253 62 CURVE SMOOTH",
"253 110 OFFCURVE",
"219 142 OFFCURVE",
"167 142 CURVE SMOOTH",
"115 142 OFFCURVE",
"75 110 OFFCURVE",
"75 61 CURVE SMOOTH"
);
}
);
};
hints = (
{
place = "{75, 178}";
},
{
place = "{124, 77}";
},
{
horizontal = 1;
place = "{-15, 157}";
},
{
horizontal = 1;
place = "{715, -20}";
target = down;
type = TopGhost;
}
);
layerId = "D537FF15-C70F-4B12-AACC-84E5BB5FCF97";
paths = (
{
closed = 1;
nodes = (
"129 194 LINE",
"201 194 LINE",
"218 486 OFFCURVE",
"255 590 OFFCURVE",
"284 676 CURVE",
"262 701 OFFCURVE",
"225 715 OFFCURVE",
"195 715 CURVE SMOOTH",
"149 715 OFFCURVE",
"123 688 OFFCURVE",
"121 644 CURVE SMOOTH",
"120 614 OFFCURVE",
"119 583 OFFCURVE",
"120 533 CURVE SMOOTH"
);
},
{
closed = 1;
nodes = (
"75 11 OFFCURVE",
"109 -15 OFFCURVE",
"161 -15 CURVE SMOOTH",
"213 -15 OFFCURVE",
"253 12 OFFCURVE",
"253 62 CURVE SMOOTH",
"253 110 OFFCURVE",
"219 142 OFFCURVE",
"167 142 CURVE SMOOTH",
"115 142 OFFCURVE",
"75 110 OFFCURVE",
"75 61 CURVE SMOOTH"
);
}
);
width = 344;
}
);
unicode = 0021;
},
{
glyphname = quotedbl;
lastChange = "2016-06-05 15:24:03 +0000";
layers = (
{
background = {
paths = (
{
closed = 1;
nodes = (
"202 717 LINE SMOOTH",
"205 728 OFFCURVE",
"206 736 OFFCURVE",
"206 743 CURVE SMOOTH",
"207 766 OFFCURVE",
"186 780 OFFCURVE",
"167 780 CURVE SMOOTH",
"134 780 OFFCURVE",
"112 753 OFFCURVE",
"111 724 CURVE SMOOTH",
"110 718 OFFCURVE",
"110 712 OFFCURVE",
"111 705 CURVE SMOOTH",
"129 547 LINE",
"163 547 LINE"
);
},
{
closed = 1;
nodes = (
"354 717 LINE SMOOTH",
"357 728 OFFCURVE",
"358 736 OFFCURVE",
"358 743 CURVE SMOOTH",
"359 766 OFFCURVE",
"338 780 OFFCURVE",
"319 780 CURVE SMOOTH",
"286 780 OFFCURVE",
"264 753 OFFCURVE",
"263 724 CURVE SMOOTH",
"262 718 OFFCURVE",
"262 712 OFFCURVE",
"263 705 CURVE SMOOTH",
"281 547 LINE",
"315 547 LINE"
);
}
);
};
components = (
{
name = quotesingle;
},
{
name = quotesingle;
transform = "{1, 0, 0, 1, 152, 0}";
}
);
layerId = UUID0;
width = 401;
},
{
background = {
paths = (
{
closed = 1;
nodes = (
"212 714 LINE SMOOTH",
"215 725 OFFCURVE",
"216 733 OFFCURVE",
"216 740 CURVE SMOOTH",
"217 763 OFFCURVE",
"197 780 OFFCURVE",
"167 780 CURVE SMOOTH",
"127 780 OFFCURVE",
"102 753 OFFCURVE",
"101 724 CURVE SMOOTH",
"100 718 OFFCURVE",
"100 712 OFFCURVE",
"101 705 CURVE SMOOTH",
"126 547 LINE",
"173 547 LINE"
);
},
{
closed = 1;
nodes = (
"364 714 LINE SMOOTH",
"367 725 OFFCURVE",
"368 733 OFFCURVE",
"368 740 CURVE SMOOTH",
"369 763 OFFCURVE",
"349 780 OFFCURVE",
"319 780 CURVE SMOOTH",
"279 780 OFFCURVE",
"254 753 OFFCURVE",
"253 724 CURVE SMOOTH",
"252 718 OFFCURVE",
"252 712 OFFCURVE",
"253 705 CURVE SMOOTH",
"278 547 LINE",
"325 547 LINE"
);
}
);
};
components = (
{
name = quotesingle;
},
{
name = quotesingle;
transform = "{1, 0, 0, 1, 152, 0}";
}
);
layerId = "D537FF15-C70F-4B12-AACC-84E5BB5FCF97";
width = 401;
}
);
leftKerningGroup = quotesingle;
rightKerningGroup = quotesingle;
unicode = 0022;
},
{
glyphname = numbersign;
lastChange = "2016-06-05 15:24:03 +0000";
layers = (
{
background = {
paths = (
{
closed = 1;
nodes = (
"201 0 LINE",
"227 140 LINE",
"412 140 LINE",
"386 0 LINE",
"440 0 LINE",
"466 140 LINE",
"595 140 LINE",
"606 191 LINE",
"476 191 LINE",
"509 367 LINE",
"632 367 LINE",
"643 419 LINE",
"518 419 LINE",
"543 550 LINE",
"488 550 LINE",
"464 419 LINE",
"280 419 LINE",
"305 550 LINE",
"251 550 LINE",
"226 419 LINE",
"103 419 LINE",
"91 367 LINE",
"216 367 LINE",
"183 191 LINE",
"62 191 LINE",
"49 140 LINE",
"172 140 LINE",
"147 0 LINE"
);
},
{
closed = 1;
nodes = (
"455 367 LINE",
"422 191 LINE",
"237 191 LINE",
"269 367 LINE"
);
}
);
};
hints = (
{
horizontal = 1;
place = "{0, 191}";
},
{
horizontal = 1;
place = "{140, 51}";
},
{
horizontal = 1;
place = "{367, 52}";
},
{
horizontal = 1;
place = "{367, 183}";
}
);
layerId = UUID0;
paths = (
{
closed = 1;
nodes = (
"201 0 LINE",
"227 140 LINE",
"412 140 LINE",
"386 0 LINE",
"440 0 LINE",
"466 140 LINE",
"595 140 LINE",
"606 191 LINE",
"476 191 LINE",
"509 367 LINE",
"632 367 LINE",
"643 419 LINE",
"518 419 LINE",
"543 550 LINE",
"488 550 LINE",
"464 419 LINE",
"280 419 LINE",
"305 550 LINE",
"251 550 LINE",
"226 419 LINE",
"103 419 LINE",
"91 367 LINE",
"216 367 LINE",
"183 191 LINE",
"62 191 LINE",
"49 140 LINE",
"172 140 LINE",
"147 0 LINE"
);
},
{
closed = 1;
nodes = (
"455 367 LINE",
"422 191 LINE",
"237 191 LINE",
"269 367 LINE"
);
}
);
width = 674;
},
{
background = {
paths = (
{
closed = 1;
nodes = (
"221 0 LINE",
"247 136 LINE",
"402 136 LINE",
"376 0 LINE",
"460 0 LINE",
"486 136 LINE",
"595 136 LINE",
"608 201 LINE",
"498 201 LINE",
"529 363 LINE",
"632 363 LINE",
"645 429 LINE",
"540 429 LINE",
"563 550 LINE",
"478 550 LINE",
"456 429 LINE",
"302 429 LINE",
"325 550 LINE",
"241 550 LINE",
"218 429 LINE",
"105 429 LINE",
"91 363 LINE",
"206 363 LINE",
"175 201 LINE",
"64 201 LINE",
"49 136 LINE",
"162 136 LINE",
"137 0 LINE"
);
},
{
closed = 1;
nodes = (
"445 363 LINE",
"414 201 LINE",
"259 201 LINE",
"289 363 LINE"
);
}
);
};
hints = (
{
horizontal = 1;
place = "{136, 65}";
},
{
horizontal = 1;
place = "{363, 66}";
},
{
horizontal = 1;
place = "{363, 187}";
},
{
horizontal = 1;
place = "{0, 21}";
target = up;
type = BottomGhost;
}
);
layerId = "D537FF15-C70F-4B12-AACC-84E5BB5FCF97";
paths = (
{
closed = 1;
nodes = (
"221 0 LINE",
"247 136 LINE",
"402 136 LINE",
"376 0 LINE",
"460 0 LINE",
"486 136 LINE",
"595 136 LINE",
"608 201 LINE",
"498 201 LINE",
"529 363 LINE",
"632 363 LINE",
"645 429 LINE",
"540 429 LINE",
"563 550 LINE",
"478 550 LINE",
"456 429 LINE",
"302 429 LINE",
"325 550 LINE",
"241 550 LINE",
"218 429 LINE",
"105 429 LINE",
"91 363 LINE",
"206 363 LINE",
"175 201 LINE",
"64 201 LINE",
"49 136 LINE",
"162 136 LINE",
"137 0 LINE"
);
},
{
closed = 1;
nodes = (
"445 363 LINE",
"414 201 LINE",
"259 201 LINE",
"289 363 LINE"
);
}
);
width = 674;
}
);
unicode = 0023;
},
{
glyphname = dollar;
lastChange = "2016-06-06 11:01:10 +0000";
layers = (
{
background = {
paths = (
{
closed = 1;
nodes = (
"223 -75 LINE",
"264 -75 LINE",
"266 -9 LINE",
"368 3 OFFCURVE",
"437 70 OFFCURVE",
"437 160 CURVE SMOOTH",
"437 248 OFFCURVE",
"354 288 OFFCURVE",
"278 323 CURVE",
"285 516 LINE",
"339 514 OFFCURVE",
"354 491 OFFCURVE",
"348 463 CURVE",
"342 426 LINE",
"351 417 OFFCURVE",
"372 407 OFFCURVE",
"398 407 CURVE SMOOTH",
"429 407 OFFCURVE",
"451 427 OFFCURVE",
"451 461 CURVE SMOOTH",
"451 519 OFFCURVE",
"378 566 OFFCURVE",
"286 568 CURVE",
"289 638 LINE",
"248 638 LINE",
"245 566 LINE",
"119 553 OFFCURVE",
"75 471 OFFCURVE",
"75 408 CURVE SMOOTH",
"75 314 OFFCURVE",
"157 278 OFFCURVE",
"234 246 CURVE",
"227 42 LINE",
"170 45 OFFCURVE",
"136 77 OFFCURVE",
"143 115 CURVE SMOOTH",
"148 145 LINE",
"137 152 OFFCURVE",
"117 159 OFFCURVE",
"99 159 CURVE SMOOTH",
"67 159 OFFCURVE",
"40 141 OFFCURVE",
"40 100 CURVE SMOOTH",
"40 39 OFFCURVE",
"115 -9 OFFCURVE",
"225 -11 CURVE"
);
},
{
closed = 1;
nodes = (
"360 87 OFFCURVE",
"327 52 OFFCURVE",
"268 44 CURVE",
"275 228 LINE",
"322 205 OFFCURVE",
"360 180 OFFCURVE",
"360 135 CURVE SMOOTH"
);
},
{
closed = 1;
nodes = (
"152 473 OFFCURVE",
"174 507 OFFCURVE",
"243 514 CURVE",
"237 342 LINE",
"189 366 OFFCURVE",
"152 391 OFFCURVE",
"152 432 CURVE SMOOTH"
);
}
);
};
hints = (
{
place = "{40, 112}";
},
{
place = "{75, 77}";
},
{
place = "{235, 41}";
},
{
place = "{360, 77}";
},
{
place = "{360, 91}";
},
{
horizontal = 1;
place = "{-11, 53}";
},
{
horizontal = 1;
place = "{407, 161}";
},
{
horizontal = 1;
place = "{516, 52}";
},
{
horizontal = 1;
place = "{-11, 170}";
},
{
horizontal = 1;
place = "{-75, 21}";
target = up;
type = BottomGhost;
},
{
horizontal = 1;
place = "{638, -20}";
target = down;
type = TopGhost;
}
);
layerId = UUID0;
paths = (
{
closed = 1;
nodes = (
"286 558 LINE",
"289 638 LINE",
"248 638 LINE",
"245 556 LINE"
);
},
{
closed = 1;
nodes = (
"278 312 LINE",
"285 527 LINE",
"243 525 LINE",
"237 331 LINE"
);
},
{
closed = 1;
nodes = (
"268 34 LINE",
"275 239 LINE",
"234 257 LINE",
"227 32 LINE"
);
},
{
closed = 1;
nodes = (
"225 -1 LINE",
"223 -75 LINE",
"264 -75 LINE",
"266 1 LINE"
);
},
{
closed = 1;
nodes = (
"254 -10 LINE",
"363 -2 OFFCURVE",
"437 67 OFFCURVE",
"437 160 CURVE SMOOTH",
"437 252 OFFCURVE",
"346 292 OFFCURVE",
"267 328 CURVE",
"250 336 LINE",
"196 362 OFFCURVE",
"152 387 OFFCURVE",
"152 432 CURVE SMOOTH",
"152 476 OFFCURVE",
"178 512 OFFCURVE",
"260 515 CURVE",
"266 516 LINE",
"335 519 OFFCURVE",
"355 494 OFFCURVE",
"348 463 CURVE",
"342 426 LINE",
"351 417 OFFCURVE",
"372 407 OFFCURVE",
"398 407 CURVE SMOOTH",
"429 407 OFFCURVE",
"451 427 OFFCURVE",
"451 461 CURVE SMOOTH",
"451 522 OFFCURVE",
"371 570 OFFCURVE",
"273 568 CURVE",
"261 567 LINE",
"123 560 OFFCURVE",
"75 474 OFFCURVE",
"75 408 CURVE SMOOTH",
"75 310 OFFCURVE",
"165 275 OFFCURVE",
"245 242 CURVE",
"263 234 LINE",
"315 209 OFFCURVE",
"360 184 OFFCURVE",
"360 135 CURVE SMOOTH",
"360 84 OFFCURVE",
"322 47 OFFCURVE",
"255 43 CURVE",
"241 42 LINE",
"176 40 OFFCURVE",
"135 74 OFFCURVE",
"143 115 CURVE SMOOTH",
"148 145 LINE",
"137 152 OFFCURVE",
"117 159 OFFCURVE",
"99 159 CURVE SMOOTH",
"67 159 OFFCURVE",
"40 141 OFFCURVE",
"40 100 CURVE SMOOTH",
"40 36 OFFCURVE",
"122 -13 OFFCURVE",
"240 -11 CURVE"
);
}
);
width = 498;
},
{
background = {
paths = (
{
closed = 1;
nodes = (
"470 276 OFFCURVE",
"365 310 OFFCURVE",
"278 342 CURVE",
"284 511 LINE",
"349 509 OFFCURVE",
"360 483 OFFCURVE",
"347 448 CURVE SMOOTH",
"335 413 LINE",
"346 402 OFFCURVE",
"366 394 OFFCURVE",
"395 394 CURVE SMOOTH",
"432 394 OFFCURVE",
"460 418 OFFCURVE",
"460 454 CURVE SMOOTH",
"460 523 OFFCURVE",
"394 565 OFFCURVE",
"286 568 CURVE",
"289 638 LINE",
"240 638 LINE",
"237 566 LINE",
"106 553 OFFCURVE",
"58 475 OFFCURVE",
"58 403 CURVE SMOOTH",
"58 301 OFFCURVE",
"146 266 OFFCURVE",
"226 237 CURVE",
"219 45 LINE",
"146 47 OFFCURVE",
"147 80 OFFCURVE",
"156 112 CURVE SMOOTH",
"163 138 LINE",
"151 152 OFFCURVE",
"132 163 OFFCURVE",
"100 163 CURVE SMOOTH",
"53 163 OFFCURVE",
"31 134 OFFCURVE",
"31 96 CURVE SMOOTH",
"31 43 OFFCURVE",
"83 -11 OFFCURVE",
"217 -14 CURVE",
"215 -75 LINE",
"264 -75 LINE",
"266 -12 LINE",
"383 0 OFFCURVE",
"470 68 OFFCURVE",
"470 167 CURVE SMOOTH"
);
},
{
closed = 1;
nodes = (
"354 87 OFFCURVE",
"320 57 OFFCURVE",
"268 48 CURVE",
"274 219 LINE",
"319 200 OFFCURVE",
"354 179 OFFCURVE",
"354 140 CURVE SMOOTH"
);
},
{
closed = 1;
nodes = (
"163 473 OFFCURVE",
"188 498 OFFCURVE",
"235 507 CURVE",
"230 361 LINE",
"191 379 OFFCURVE",
"163 400 OFFCURVE",
"163 434 CURVE SMOOTH"
);
}
);
};
hints = (
{
place = "{31, 132}";
},
{
place = "{58, 105}";
},
{
place = "{227, 49}";
},
{
place = "{354, 116}";
},
{
horizontal = 1;
place = "{-14, 59}";
},
{
horizontal = 1;
place = "{394, 174}";
},
{
horizontal = 1;
place = "{511, 57}";
},
{
horizontal = 1;
place = "{-14, 177}";
},
{
horizontal = 1;
place = "{-75, 21}";
target = up;
type = BottomGhost;
},
{
horizontal = 1;
place = "{638, -20}";
target = down;
type = TopGhost;
}
);
layerId = "D537FF15-C70F-4B12-AACC-84E5BB5FCF97";
paths = (
{
closed = 1;
nodes = (
"285 556 LINE",
"289 638 LINE",
"240 638 LINE",
"236 554 LINE"
);
},
{
closed = 1;
nodes = (
"278 329 LINE",
"284 523 LINE",
"235 519 LINE",
"230 348 LINE"
);
},
{
closed = 1;
nodes = (
"268 36 LINE",
"274 232 LINE",
"226 250 LINE",
"219 33 LINE"
);
},
{
closed = 1;
nodes = (
"217 -2 LINE",
"215 -75 LINE",
"264 -75 LINE",
"266 0 LINE"
);
},
{
closed = 1;
nodes = (
"251 -13 LINE",
"376 -6 OFFCURVE",
"470 64 OFFCURVE",
"470 167 CURVE SMOOTH",
"470 281 OFFCURVE",
"355 313 OFFCURVE",
"266 346 CURVE",
"245 354 LINE",
"198 374 OFFCURVE",
"163 396 OFFCURVE",
"163 434 CURVE SMOOTH",
"163 477 OFFCURVE",
"194 503 OFFCURVE",
"251 509 CURVE",
"260 511 LINE",
"346 515 OFFCURVE",
"361 487 OFFCURVE",
"347 448 CURVE SMOOTH",
"335 413 LINE",
"346 402 OFFCURVE",
"366 394 OFFCURVE",
"395 394 CURVE SMOOTH",
"432 394 OFFCURVE",
"460 418 OFFCURVE",
"460 454 CURVE SMOOTH",
"460 527 OFFCURVE",
"387 569 OFFCURVE",
"268 568 CURVE",
"256 567 LINE",
"110 560 OFFCURVE",
"58 478 OFFCURVE",
"58 403 CURVE SMOOTH",
"58 296 OFFCURVE",
"155 263 OFFCURVE",
"238 233 CURVE",
"259 225 LINE",
"311 204 OFFCURVE",
"354 183 OFFCURVE",
"354 140 CURVE SMOOTH",
"354 82 OFFCURVE",
"314 52 OFFCURVE",
"254 46 CURVE",
"245 45 LINE",
"146 40 OFFCURVE",
"146 77 OFFCURVE",
"156 112 CURVE SMOOTH",
"163 138 LINE",
"151 152 OFFCURVE",
"132 163 OFFCURVE",
"100 163 CURVE SMOOTH",
"53 163 OFFCURVE",
"31 134 OFFCURVE",
"31 96 CURVE SMOOTH",
"31 40 OFFCURVE",
"88 -17 OFFCURVE",
"238 -14 CURVE"
);
}
);
width = 498;
}
);
unicode = 0024;
},
{
glyphname = percent;
lastChange = "2016-06-05 15:24:03 +0000";
layers = (
{
background = {
paths = (
{
closed = 1;
nodes = (
"191 -11 LINE",
"261 -11 LINE",
"642 597 LINE",
"573 597 LINE"
);
},
{
closed = 1;
nodes = (
"55 339 OFFCURVE",
"107 274 OFFCURVE",
"197 274 CURVE SMOOTH",
"282 274 OFFCURVE",
"353 333 OFFCURVE",
"353 443 CURVE SMOOTH",
"353 551 OFFCURVE",
"285 597 OFFCURVE",
"213 597 CURVE SMOOTH",
"135 597 OFFCURVE",
"55 553 OFFCURVE",
"55 429 CURVE SMOOTH"
);
},
{
closed = 1;
nodes = (
"128 511 OFFCURVE",
"160 547 OFFCURVE",
"204 547 CURVE SMOOTH",
"255 547 OFFCURVE",
"279 506 OFFCURVE",
"279 442 CURVE SMOOTH",
"279 363 OFFCURVE",
"250 326 OFFCURVE",
"203 326 CURVE SMOOTH",
"151 326 OFFCURVE",
"128 375 OFFCURVE",
"128 433 CURVE SMOOTH"
);
},
{
closed = 1;
nodes = (
"478 54 OFFCURVE",
"530 -11 OFFCURVE",
"620 -11 CURVE SMOOTH",
"705 -11 OFFCURVE",
"776 48 OFFCURVE",
"776 158 CURVE SMOOTH",
"776 266 OFFCURVE",
"708 312 OFFCURVE",
"636 312 CURVE SMOOTH",
"558 312 OFFCURVE",
"478 268 OFFCURVE",
"478 144 CURVE SMOOTH"
);
},
{
closed = 1;
nodes = (
"551 226 OFFCURVE",
"583 262 OFFCURVE",
"627 262 CURVE SMOOTH",
"678 262 OFFCURVE",
"702 221 OFFCURVE",
"702 157 CURVE SMOOTH",
"702 78 OFFCURVE",
"673 41 OFFCURVE",
"626 41 CURVE SMOOTH",
"574 41 OFFCURVE",
"551 90 OFFCURVE",
"551 148 CURVE SMOOTH"
);
}
);
};
hints = (
{
place = "{55, 73}";
},
{
place = "{279, 74}";
},
{
place = "{478, 73}";
},
{
place = "{702, 74}";
},
{
horizontal = 1;
place = "{-11, 52}";
},
{
horizontal = 1;
place = "{262, 50}";
},
{
horizontal = 1;
place = "{274, 52}";
},
{
horizontal = 1;
place = "{547, 50}";
}
);
layerId = UUID0;
paths = (
{
closed = 1;
nodes = (
"191 -11 LINE",
"261 -11 LINE",
"642 597 LINE",
"573 597 LINE"
);
},
{
closed = 1;
nodes = (
"55 339 OFFCURVE",
"107 274 OFFCURVE",
"197 274 CURVE SMOOTH",
"282 274 OFFCURVE",
"353 333 OFFCURVE",
"353 443 CURVE SMOOTH",
"353 551 OFFCURVE",
"285 597 OFFCURVE",
"213 597 CURVE SMOOTH",
"135 597 OFFCURVE",
"55 553 OFFCURVE",
"55 429 CURVE SMOOTH"
);
},
{
closed = 1;
nodes = (
"128 511 OFFCURVE",
"160 547 OFFCURVE",
"204 547 CURVE SMOOTH",
"255 547 OFFCURVE",
"279 506 OFFCURVE",
"279 442 CURVE SMOOTH",
"279 363 OFFCURVE",
"250 326 OFFCURVE",
"203 326 CURVE SMOOTH",
"151 326 OFFCURVE",
"128 375 OFFCURVE",
"128 433 CURVE SMOOTH"
);
},
{
closed = 1;
nodes = (
"478 54 OFFCURVE",
"530 -11 OFFCURVE",
"620 -11 CURVE SMOOTH",
"705 -11 OFFCURVE",
"776 48 OFFCURVE",
"776 158 CURVE SMOOTH",
"776 266 OFFCURVE",
"708 312 OFFCURVE",
"636 312 CURVE SMOOTH",
"558 312 OFFCURVE",
"478 268 OFFCURVE",
"478 144 CURVE SMOOTH"
);
},
{
closed = 1;
nodes = (
"551 226 OFFCURVE",
"583 262 OFFCURVE",
"627 262 CURVE SMOOTH",
"678 262 OFFCURVE",
"702 221 OFFCURVE",
"702 157 CURVE SMOOTH",
"702 78 OFFCURVE",
"673 41 OFFCURVE",
"626 41 CURVE SMOOTH",
"574 41 OFFCURVE",
"551 90 OFFCURVE",
"551 148 CURVE SMOOTH"
);
}
);
width = 833;
},
{
background = {
paths = (
{
closed = 1;
nodes = (
"178 -11 LINE",
"256 -11 LINE",
"637 597 LINE",
"560 597 LINE"
);
},
{
closed = 1;
nodes = (
"45 339 OFFCURVE",
"97 274 OFFCURVE",
"187 274 CURVE SMOOTH",
"272 274 OFFCURVE",
"343 333 OFFCURVE",
"343 443 CURVE SMOOTH",
"343 551 OFFCURVE",
"275 597 OFFCURVE",
"203 597 CURVE SMOOTH",
"125 597 OFFCURVE",
"45 553 OFFCURVE",
"45 429 CURVE SMOOTH"
);
},
{
closed = 1;
nodes = (
"134 511 OFFCURVE",
"157 539 OFFCURVE",
"194 539 CURVE SMOOTH",
"237 539 OFFCURVE",
"252 506 OFFCURVE",
"252 442 CURVE SMOOTH",
"252 362 OFFCURVE",
"233 334 OFFCURVE",
"193 334 CURVE SMOOTH",
"149 334 OFFCURVE",
"134 372 OFFCURVE",
"134 433 CURVE SMOOTH"
);
},
{
closed = 1;
nodes = (
"469 51 OFFCURVE",
"521 -14 OFFCURVE",
"611 -14 CURVE SMOOTH",
"696 -14 OFFCURVE",
"767 45 OFFCURVE",
"767 155 CURVE SMOOTH",
"767 263 OFFCURVE",
"699 309 OFFCURVE",
"627 309 CURVE SMOOTH",
"549 309 OFFCURVE",
"469 265 OFFCURVE",
"469 141 CURVE SMOOTH"
);
},
{
closed = 1;
nodes = (
"558 223 OFFCURVE",
"581 251 OFFCURVE",
"618 251 CURVE SMOOTH",
"661 251 OFFCURVE",
"676 218 OFFCURVE",
"676 154 CURVE SMOOTH",
"676 74 OFFCURVE",
"657 46 OFFCURVE",
"617 46 CURVE SMOOTH",
"573 46 OFFCURVE",
"558 84 OFFCURVE",
"558 145 CURVE SMOOTH"
);
}
);
};
hints = (
{
place = "{45, 89}";
},
{
place = "{252, 91}";
},
{
place = "{469, 89}";
},
{
place = "{676, 91}";
},
{
horizontal = 1;
place = "{-14, 60}";
},
{
horizontal = 1;
place = "{251, 58}";
},
{
horizontal = 1;
place = "{274, 60}";
},
{
horizontal = 1;
place = "{539, 58}";
},
{
horizontal = 1;
place = "{-11, 21}";
target = up;
type = BottomGhost;
}
);
layerId = "D537FF15-C70F-4B12-AACC-84E5BB5FCF97";
paths = (
{
closed = 1;
nodes = (
"178 -11 LINE",
"256 -11 LINE",
"637 597 LINE",
"560 597 LINE"
);
},
{
closed = 1;
nodes = (
"45 339 OFFCURVE",
"97 274 OFFCURVE",
"187 274 CURVE SMOOTH",
"272 274 OFFCURVE",
"343 333 OFFCURVE",
"343 443 CURVE SMOOTH",
"343 551 OFFCURVE",
"275 597 OFFCURVE",
"203 597 CURVE SMOOTH",
"125 597 OFFCURVE",
"45 553 OFFCURVE",
"45 429 CURVE SMOOTH"
);
},
{
closed = 1;
nodes = (
"134 511 OFFCURVE",
"157 539 OFFCURVE",
"194 539 CURVE SMOOTH",
"237 539 OFFCURVE",
"252 506 OFFCURVE",
"252 442 CURVE SMOOTH",
"252 362 OFFCURVE",
"233 334 OFFCURVE",
"193 334 CURVE SMOOTH",
"149 334 OFFCURVE",
"134 372 OFFCURVE",
"134 433 CURVE SMOOTH"
);
},
{
closed = 1;
nodes = (
"469 51 OFFCURVE",
"521 -14 OFFCURVE",
"611 -14 CURVE SMOOTH",
"696 -14 OFFCURVE",
"767 45 OFFCURVE",
"767 155 CURVE SMOOTH",
"767 263 OFFCURVE",
"699 309 OFFCURVE",
"627 309 CURVE SMOOTH",
"549 309 OFFCURVE",
"469 265 OFFCURVE",
"469 141 CURVE SMOOTH"
);
},
{
closed = 1;
nodes = (
"558 223 OFFCURVE",
"581 251 OFFCURVE",
"618 251 CURVE SMOOTH",
"661 251 OFFCURVE",
"676 218 OFFCURVE",
"676 154 CURVE SMOOTH",
"676 74 OFFCURVE",
"657 46 OFFCURVE",
"617 46 CURVE SMOOTH",
"573 46 OFFCURVE",
"558 84 OFFCURVE",
"558 145 CURVE SMOOTH"
);
}
);
width = 807;
}
);
unicode = 0025;
},
{
glyphname = ampersand;
lastChange = "2016-06-05 16:11:47 +0000";
layers = (
{
background = {
paths = (
{
closed = 1;
nodes = (
"483 -14 OFFCURVE",
"580 85 OFFCURVE",
"584 203 CURVE SMOOTH",
"586 247 OFFCURVE",
"571 288 OFFCURVE",
"538 336 CURVE",
"554 333 OFFCURVE",
"588 328 OFFCURVE",
"617 328 CURVE SMOOTH",
"666 328 OFFCURVE",
"718 352 OFFCURVE",
"718 409 CURVE SMOOTH",
"718 472 OFFCURVE",
"659 487 OFFCURVE",
"605 459 CURVE",
"620 420 LINE SMOOTH",
"632 387 OFFCURVE",
"611 369 OFFCURVE",
"574 374 CURVE SMOOTH",
"510 382 LINE",
"480 339 LINE",
"503 292 OFFCURVE",
"507 249 OFFCURVE",
"507 211 CURVE SMOOTH",
"507 110 OFFCURVE",
"431 43 OFFCURVE",
"316 43 CURVE SMOOTH",
"197 43 OFFCURVE",
"167 105 OFFCURVE",
"167 175 CURVE SMOOTH",
"167 263 OFFCURVE",
"237 331 OFFCURVE",
"391 344 CURVE",
"386 393 LINE",
"363 389 OFFCURVE",
"346 387 OFFCURVE",
"323 387 CURVE SMOOTH",
"251 387 OFFCURVE",
"185 405 OFFCURVE",
"185 506 CURVE SMOOTH",
"185 609 OFFCURVE",
"266 662 OFFCURVE",
"360 662 CURVE SMOOTH",
"434 662 OFFCURVE",
"467 624 OFFCURVE",
"441 582 CURVE SMOOTH",
"424 555 LINE",
"434 537 OFFCURVE",
"455 524 OFFCURVE",
"478 524 CURVE SMOOTH",
"519 524 OFFCURVE",
"549 556 OFFCURVE",
"550 593 CURVE SMOOTH",
"553 681 OFFCURVE",
"453 715 OFFCURVE",
"375 715 CURVE SMOOTH",
"205 715 OFFCURVE",
"88 612 OFFCURVE",
"88 494 CURVE SMOOTH",
"88 403 OFFCURVE",
"150 364 OFFCURVE",
"241 355 CURVE",
"240 347 LINE",
"153 323 OFFCURVE",
"70 260 OFFCURVE",
"70 159 CURVE SMOOTH",
"70 24 OFFCURVE",
"193 -14 OFFCURVE",
"301 -14 CURVE SMOOTH"
);
}
);
};
hints = (
{
place = "{70, 97}";
},
{
place = "{88, 79}";
},
{
place = "{507, 77}";
},
{
place = "{507, 211}";
},
{
place = "{88, 97}";
},
{
horizontal = 1;
place = "{-14, 57}";
},
{
horizontal = 1;
place = "{524, 191}";
},
{
horizontal = 1;
place = "{662, 53}";
}
);
layerId = UUID0;
paths = (
{
closed = 1;
nodes = (
"483 -14 OFFCURVE",
"580 85 OFFCURVE",
"584 203 CURVE SMOOTH",
"586 244 OFFCURVE",
"573 283 OFFCURVE",
"544 328 CURVE",
"538 336 LINE",
"554 333 OFFCURVE",
"588 328 OFFCURVE",
"617 328 CURVE SMOOTH",
"666 328 OFFCURVE",
"718 352 OFFCURVE",
"718 409 CURVE SMOOTH",
"718 451 OFFCURVE",
"691 472 OFFCURVE",
"658 472 CURVE SMOOTH",
"641 473 OFFCURVE",
"623 468 OFFCURVE",
"605 459 CURVE",
"620 420 LINE SMOOTH",
"632 387 OFFCURVE",
"611 369 OFFCURVE",
"574 374 CURVE SMOOTH",
"510 382 LINE",
"480 339 LINE",
"503 292 OFFCURVE",
"507 249 OFFCURVE",
"507 211 CURVE SMOOTH",
"507 110 OFFCURVE",
"431 43 OFFCURVE",
"316 43 CURVE SMOOTH",
"197 43 OFFCURVE",
"167 105 OFFCURVE",
"167 175 CURVE SMOOTH",
"167 263 OFFCURVE",
"237 331 OFFCURVE",
"391 344 CURVE",
"386 393 LINE",
"363 389 OFFCURVE",
"346 387 OFFCURVE",
"323 387 CURVE SMOOTH",
"251 387 OFFCURVE",
"185 405 OFFCURVE",
"185 506 CURVE SMOOTH",
"185 609 OFFCURVE",
"266 662 OFFCURVE",
"360 662 CURVE SMOOTH",
"434 662 OFFCURVE",
"467 624 OFFCURVE",
"441 582 CURVE SMOOTH",
"424 555 LINE",
"434 537 OFFCURVE",
"455 524 OFFCURVE",
"478 524 CURVE SMOOTH",
"519 524 OFFCURVE",
"549 556 OFFCURVE",
"550 593 CURVE SMOOTH",
"553 681 OFFCURVE",
"453 715 OFFCURVE",
"375 715 CURVE SMOOTH",
"205 715 OFFCURVE",
"88 612 OFFCURVE",
"88 494 CURVE SMOOTH",
"88 403 OFFCURVE",
"150 364 OFFCURVE",
"241 355 CURVE",
"240 347 LINE",
"153 323 OFFCURVE",
"70 260 OFFCURVE",
"70 159 CURVE SMOOTH",
"70 24 OFFCURVE",
"193 -14 OFFCURVE",
"301 -14 CURVE SMOOTH"
);
}
);
width = 725;
},
{
background = {
paths = (
{
closed = 1;
nodes = (
"535 -14 OFFCURVE",
"638 90 OFFCURVE",
"639 200 CURVE SMOOTH",
"639 244 OFFCURVE",
"624 279 OFFCURVE",
"585 324 CURVE",
"587 328 LINE",
"603 325 OFFCURVE",
"630 319 OFFCURVE",
"665 319 CURVE SMOOTH",
"722 319 OFFCURVE",
"765 346 OFFCURVE",
"765 407 CURVE SMOOTH",
"765 451 OFFCURVE",
"740 483 OFFCURVE",
"687 483 CURVE SMOOTH",
"669 483 OFFCURVE",
"649 478 OFFCURVE",
"629 465 CURVE",
"646 417 LINE SMOOTH",
"658 384 OFFCURVE",
"646 371 OFFCURVE",
"609 374 CURVE SMOOTH",
"540 380 LINE",
"507 331 LINE",
"530 284 OFFCURVE",
"536 241 OFFCURVE",
"536 208 CURVE SMOOTH",
"536 102 OFFCURVE",
"454 51 OFFCURVE",
"355 51 CURVE SMOOTH",
"260 51 OFFCURVE",
"222 108 OFFCURVE",
"222 175 CURVE SMOOTH",
"222 258 OFFCURVE",
"286 328 OFFCURVE",
"427 337 CURVE",
"422 398 LINE",
"399 394 OFFCURVE",
"382 392 OFFCURVE",
"359 392 CURVE SMOOTH",
"287 392 OFFCURVE",
"240 427 OFFCURVE",
"240 506 CURVE SMOOTH",
"240 609 OFFCURVE",
"321 654 OFFCURVE",
"395 654 CURVE SMOOTH",
"469 654 OFFCURVE",
"492 621 OFFCURVE",
"466 579 CURVE SMOOTH",
"449 552 LINE",
"459 534 OFFCURVE",
"490 516 OFFCURVE",
"520 516 CURVE SMOOTH",
"570 516 OFFCURVE",
"598 552 OFFCURVE",
"598 589 CURVE SMOOTH",
"598 677 OFFCURVE",
"498 715 OFFCURVE",
"403 715 CURVE SMOOTH",
"219 715 OFFCURVE",
"103 617 OFFCURVE",
"103 494 CURVE SMOOTH",
"103 403 OFFCURVE",
"165 364 OFFCURVE",
"256 355 CURVE",
"255 347 LINE",
"154 319 OFFCURVE",
"85 260 OFFCURVE",
"85 159 CURVE SMOOTH",
"85 24 OFFCURVE",
"219 -14 OFFCURVE",
"336 -14 CURVE SMOOTH"
);
}
);
};
hints = (
{
place = "{85, 137}";
},
{
place = "{103, 119}";
},
{
place = "{536, 103}";
},
{
place = "{103, 137}";
},
{
horizontal = 1;
place = "{-14, 65}";
},
{
horizontal = 1;
place = "{319, 164}";
},
{
horizontal = 1;
place = "{337, 55}";
},
{
horizontal = 1;
place = "{516, 199}";
},
{
horizontal = 1;
place = "{654, 61}";
}
);
layerId = "D537FF15-C70F-4B12-AACC-84E5BB5FCF97";
paths = (
{
closed = 1;
nodes = (
"535 -14 OFFCURVE",
"638 90 OFFCURVE",
"639 200 CURVE SMOOTH",
"639 244 OFFCURVE",
"624 279 OFFCURVE",
"585 324 CURVE",
"587 328 LINE",
"603 325 OFFCURVE",
"630 319 OFFCURVE",
"665 319 CURVE SMOOTH",
"722 319 OFFCURVE",
"765 346 OFFCURVE",
"765 407 CURVE SMOOTH",
"765 451 OFFCURVE",
"740 483 OFFCURVE",
"687 483 CURVE SMOOTH",
"669 483 OFFCURVE",
"649 478 OFFCURVE",
"629 465 CURVE",
"646 417 LINE SMOOTH",
"658 384 OFFCURVE",
"646 371 OFFCURVE",
"609 374 CURVE SMOOTH",
"540 380 LINE",
"507 331 LINE",
"530 284 OFFCURVE",
"536 241 OFFCURVE",
"536 208 CURVE SMOOTH",
"536 102 OFFCURVE",
"454 51 OFFCURVE",
"355 51 CURVE SMOOTH",
"260 51 OFFCURVE",
"222 108 OFFCURVE",
"222 175 CURVE SMOOTH",
"222 258 OFFCURVE",
"286 328 OFFCURVE",
"427 337 CURVE",
"422 398 LINE",
"399 394 OFFCURVE",
"382 392 OFFCURVE",
"359 392 CURVE SMOOTH",
"287 392 OFFCURVE",
"240 427 OFFCURVE",
"240 506 CURVE SMOOTH",
"240 609 OFFCURVE",
"321 654 OFFCURVE",
"395 654 CURVE SMOOTH",
"469 654 OFFCURVE",
"492 621 OFFCURVE",
"466 579 CURVE SMOOTH",
"449 552 LINE",
"459 534 OFFCURVE",
"490 516 OFFCURVE",
"520 516 CURVE SMOOTH",
"570 516 OFFCURVE",
"598 552 OFFCURVE",
"598 589 CURVE SMOOTH",
"598 677 OFFCURVE",
"498 715 OFFCURVE",
"403 715 CURVE SMOOTH",
"219 715 OFFCURVE",
"103 617 OFFCURVE",
"103 494 CURVE SMOOTH",
"103 403 OFFCURVE",
"165 364 OFFCURVE",
"256 355 CURVE",
"255 347 LINE",
"154 319 OFFCURVE",
"85 260 OFFCURVE",
"85 159 CURVE SMOOTH",
"85 24 OFFCURVE",
"219 -14 OFFCURVE",
"336 -14 CURVE SMOOTH"
);
}
);
width = 795;
}
);
unicode = 0026;
},
{
glyphname = quotesingle;
lastChange = "2016-06-05 15:24:03 +0000";
layers = (
{
background = {
paths = (
{
closed = 1;
nodes = (
"202 717 LINE SMOOTH",
"205 728 OFFCURVE",
"206 736 OFFCURVE",
"206 743 CURVE SMOOTH",
"207 766 OFFCURVE",
"186 780 OFFCURVE",
"167 780 CURVE SMOOTH",
"134 780 OFFCURVE",
"112 753 OFFCURVE",
"111 724 CURVE SMOOTH",
"110 718 OFFCURVE",
"110 712 OFFCURVE",
"111 705 CURVE SMOOTH",
"129 547 LINE",
"163 547 LINE"
);
}
);
};
hints = (
{
horizontal = 1;
place = "{780, -20}";
target = down;
type = TopGhost;
},
{
horizontal = 1;
place = "{547, 21}";
target = up;
type = BottomGhost;
}
);
layerId = UUID0;
paths = (
{
closed = 1;
nodes = (
"202 717 LINE SMOOTH",
"205 728 OFFCURVE",
"206 736 OFFCURVE",
"206 743 CURVE SMOOTH",
"207 766 OFFCURVE",
"186 780 OFFCURVE",
"167 780 CURVE SMOOTH",
"134 780 OFFCURVE",
"112 753 OFFCURVE",
"111 724 CURVE SMOOTH",
"110 718 OFFCURVE",
"110 712 OFFCURVE",
"111 705 CURVE SMOOTH",
"129 547 LINE",
"163 547 LINE"
);
}
);
width = 250;
},
{
background = {
paths = (
{
closed = 1;
nodes = (
"212 714 LINE SMOOTH",
"215 725 OFFCURVE",
"216 733 OFFCURVE",
"216 740 CURVE SMOOTH",
"217 763 OFFCURVE",
"197 780 OFFCURVE",
"167 780 CURVE SMOOTH",
"127 780 OFFCURVE",
"102 753 OFFCURVE",
"101 724 CURVE SMOOTH",
"100 718 OFFCURVE",
"100 712 OFFCURVE",
"101 705 CURVE SMOOTH",
"126 547 LINE",
"173 547 LINE"
);
}
);
};
hints = (
{
horizontal = 1;
place = "{780, -20}";
target = down;
type = TopGhost;
},
{
horizontal = 1;
place = "{547, 21}";
target = up;
type = BottomGhost;
}
);
layerId = "D537FF15-C70F-4B12-AACC-84E5BB5FCF97";
paths = (
{
closed = 1;
nodes = (
"212 714 LINE SMOOTH",
"215 725 OFFCURVE",
"216 733 OFFCURVE",
"216 740 CURVE SMOOTH",
"217 763 OFFCURVE",
"197 780 OFFCURVE",
"167 780 CURVE SMOOTH",
"127 780 OFFCURVE",
"102 753 OFFCURVE",
"101 724 CURVE SMOOTH",
"100 718 OFFCURVE",
"100 712 OFFCURVE",
"101 705 CURVE SMOOTH",
"126 547 LINE",
"173 547 LINE"
);
}
);
width = 250;
}
);
leftKerningGroup = quotesingle;
rightKerningGroup = quotesingle;
unicode = 0027;
},
{
glyphname = asterisk;
lastChange = "2016-06-05 15:24:03 +0000";
layers = (
{
background = {
paths = (
{
closed = 1;
nodes = (
"148 708 LINE",
"114 704 OFFCURVE",
"101 687 OFFCURVE",
"101 668 CURVE SMOOTH",
"101 651 OFFCURVE",
"107 640 OFFCURVE",
"132 631 CURVE SMOOTH",
"228 599 LINE",
"94 555 LINE",
"91 546 OFFCURVE",
"91 535 OFFCURVE",
"91 528 CURVE SMOOTH",
"91 485 OFFCURVE",
"138 487 OFFCURVE",
"157 503 CURVE SMOOTH",
"238 574 LINE",
"210 441 LINE",
"220 424 OFFCURVE",
"241 416 OFFCURVE",
"253 417 CURVE SMOOTH",
"277 418 OFFCURVE",
"290 437 OFFCURVE",
"286 463 CURVE SMOOTH",
"268 573 LINE",
"366 479 LINE",
"397 481 OFFCURVE",
"411 499 OFFCURVE",
"411 518 CURVE SMOOTH",
"411 533 OFFCURVE",
"402 549 OFFCURVE",
"384 556 CURVE SMOOTH",
"284 596 LINE",
"413 641 LINE",
"417 652 OFFCURVE",
"418 661 OFFCURVE",
"418 669 CURVE SMOOTH",
"418 707 OFFCURVE",
"380 710 OFFCURVE",
"362 694 CURVE SMOOTH",
"272 619 LINE",
"302 765 LINE",
"291 776 OFFCURVE",
"277 782 OFFCURVE",
"264 782 CURVE SMOOTH",
"238 782 OFFCURVE",
"223 766 OFFCURVE",
"228 727 CURVE SMOOTH",
"243 620 LINE"
);
}
);
};
hints = (
{
horizontal = 1;
place = "{782, -20}";
target = down;
type = TopGhost;
}
);
layerId = UUID0;
paths = (
{
closed = 1;
nodes = (
"148 708 LINE",
"114 704 OFFCURVE",
"101 687 OFFCURVE",
"101 668 CURVE SMOOTH",
"101 651 OFFCURVE",
"107 640 OFFCURVE",
"132 631 CURVE SMOOTH",
"228 599 LINE",
"94 555 LINE",
"91 546 OFFCURVE",
"91 535 OFFCURVE",
"91 528 CURVE SMOOTH",
"91 485 OFFCURVE",
"138 487 OFFCURVE",
"157 503 CURVE SMOOTH",
"238 574 LINE",
"210 441 LINE",
"220 424 OFFCURVE",
"241 416 OFFCURVE",
"253 417 CURVE SMOOTH",
"277 418 OFFCURVE",
"290 437 OFFCURVE",
"286 463 CURVE SMOOTH",
"268 573 LINE",
"366 479 LINE",
"397 481 OFFCURVE",
"411 499 OFFCURVE",
"411 518 CURVE SMOOTH",
"411 533 OFFCURVE",
"402 549 OFFCURVE",
"384 556 CURVE SMOOTH",
"284 596 LINE",
"413 641 LINE",
"417 652 OFFCURVE",
"418 661 OFFCURVE",
"418 669 CURVE SMOOTH",
"418 707 OFFCURVE",
"380 710 OFFCURVE",
"362 694 CURVE SMOOTH",
"272 619 LINE",
"302 765 LINE",
"291 776 OFFCURVE",
"277 782 OFFCURVE",
"264 782 CURVE SMOOTH",
"238 782 OFFCURVE",
"223 766 OFFCURVE",
"228 727 CURVE SMOOTH",
"243 620 LINE"
);
}
);
width = 473;
},
{
background = {
paths = (
{
closed = 1;
nodes = (
"156 711 LINE",
"122 707 OFFCURVE",
"101 687 OFFCURVE",
"101 668 CURVE SMOOTH",
"101 651 OFFCURVE",
"107 641 OFFCURVE",
"132 631 CURVE SMOOTH",
"215 599 LINE",
"96 563 LINE",
"93 554 OFFCURVE",
"91 535 OFFCURVE",
"91 528 CURVE SMOOTH",
"91 485 OFFCURVE",
"138 487 OFFCURVE",
"157 503 CURVE SMOOTH",
"233 565 LINE",
"203 444 LINE",
"213 427 OFFCURVE",
"236 417 OFFCURVE",
"252 417 CURVE SMOOTH",
"276 417 OFFCURVE",
"289 437 OFFCURVE",
"286 463 CURVE SMOOTH",
"274 562 LINE",
"358 476 LINE",
"389 479 OFFCURVE",
"411 496 OFFCURVE",
"411 518 CURVE SMOOTH",
"411 533 OFFCURVE",
"405 547 OFFCURVE",
"384 556 CURVE SMOOTH",
"296 596 LINE",
"413 633 LINE",
"417 644 OFFCURVE",
"418 661 OFFCURVE",
"418 669 CURVE SMOOTH",
"418 707 OFFCURVE",
"385 711 OFFCURVE",
"362 694 CURVE SMOOTH",
"279 632 LINE",
"310 763 LINE",
"299 774 OFFCURVE",
"277 782 OFFCURVE",
"264 782 CURVE SMOOTH",
"238 782 OFFCURVE",
"224 766 OFFCURVE",
"228 727 CURVE SMOOTH",
"237 632 LINE"
);
}
);
};
hints = (
{
horizontal = 1;
place = "{417, 21}";
target = up;
type = BottomGhost;
},
{
horizontal = 1;
place = "{782, -20}";
target = down;
type = TopGhost;
}
);
layerId = "D537FF15-C70F-4B12-AACC-84E5BB5FCF97";
paths = (
{
closed = 1;
nodes = (
"156 711 LINE",
"122 707 OFFCURVE",
"101 687 OFFCURVE",
"101 668 CURVE SMOOTH",
"101 651 OFFCURVE",
"107 641 OFFCURVE",
"132 631 CURVE SMOOTH",
"215 599 LINE",
"96 563 LINE",
"93 554 OFFCURVE",
"91 535 OFFCURVE",
"91 528 CURVE SMOOTH",
"91 485 OFFCURVE",
"138 487 OFFCURVE",
"157 503 CURVE SMOOTH",
"233 565 LINE",
"203 444 LINE",
"213 427 OFFCURVE",
"236 417 OFFCURVE",
"252 417 CURVE SMOOTH",
"276 417 OFFCURVE",
"289 437 OFFCURVE",
"286 463 CURVE SMOOTH",
"274 562 LINE",
"358 476 LINE",
"389 479 OFFCURVE",
"411 496 OFFCURVE",
"411 518 CURVE SMOOTH",
"411 533 OFFCURVE",
"405 547 OFFCURVE",
"384 556 CURVE SMOOTH",
"296 596 LINE",
"413 633 LINE",
"417 644 OFFCURVE",
"418 661 OFFCURVE",
"418 669 CURVE SMOOTH",
"418 707 OFFCURVE",
"385 711 OFFCURVE",
"362 694 CURVE SMOOTH",
"279 632 LINE",
"310 763 LINE",
"299 774 OFFCURVE",
"277 782 OFFCURVE",
"264 782 CURVE SMOOTH",
"238 782 OFFCURVE",
"224 766 OFFCURVE",
"228 727 CURVE SMOOTH",
"237 632 LINE"
);
}
);
width = 473;
}
);
unicode = 002A;
},
{
glyphname = plus;
lastChange = "2016-06-05 15:24:03 +0000";
layers = (
{
background = {
paths = (
{
closed = 1;
nodes = (
"514 276 LINE",
"516 339 LINE",
"332 339 LINE",
"339 521 LINE",
"272 521 LINE",
"265 339 LINE",
"88 339 LINE",
"86 276 LINE",
"263 276 LINE",
"256 81 LINE",
"323 81 LINE",
"330 276 LINE"
);
}
);
};
hints = (
{
place = "{259, 67}";
},
{
horizontal = 1;
place = "{276, 63}";
},
{
horizontal = 1;
place = "{276, 245}";
},
{
horizontal = 1;
place = "{81, 21}";
target = up;
type = BottomGhost;
}
);
layerId = UUID0;
paths = (
{
closed = 1;
nodes = (
"514 276 LINE",
"516 339 LINE",
"332 339 LINE",
"339 521 LINE",
"272 521 LINE",
"265 339 LINE",
"88 339 LINE",
"86 276 LINE",
"263 276 LINE",
"256 81 LINE",
"323 81 LINE",
"330 276 LINE"
);
}
);
width = 582;
},
{
background = {
paths = (
{
closed = 1;
nodes = (
"520 265 LINE",
"524 354 LINE",
"352 354 LINE",
"359 533 LINE",
"257 533 LINE",
"250 354 LINE",
"78 354 LINE",
"74 265 LINE",
"246 265 LINE",
"238 81 LINE",
"340 81 LINE",
"348 265 LINE"
);
}
);
};
hints = (
{
place = "{242, 102}";
},
{
horizontal = 1;
place = "{265, 89}";
},
{
horizontal = 1;
place = "{533, -20}";
target = down;
type = TopGhost;
},
{
horizontal = 1;
place = "{81, 21}";
target = up;
type = BottomGhost;
}
);
layerId = "D537FF15-C70F-4B12-AACC-84E5BB5FCF97";
paths = (
{
closed = 1;
nodes = (
"520 265 LINE",
"524 354 LINE",
"352 354 LINE",
"359 533 LINE",
"257 533 LINE",
"250 354 LINE",
"78 354 LINE",
"74 265 LINE",
"246 265 LINE",
"238 81 LINE",
"340 81 LINE",
"348 265 LINE"
);
}
);
width = 582;
}
);
unicode = 002B;
},
{
glyphname = comma;
lastChange = "2016-06-05 15:24:03 +0000";
layers = (
{
background = {
paths = (
{
closed = 1;
nodes = (
"81 -131 LINE",
"113 -107 OFFCURVE",
"163 -61 OFFCURVE",
"163 -27 CURVE SMOOTH",
"163 -16 OFFCURVE",
"158 -5 OFFCURVE",
"141 1 CURVE SMOOTH",
"103 14 LINE",
"85 59 OFFCURVE",
"101 121 OFFCURVE",
"168 121 CURVE SMOOTH",
"223 121 OFFCURVE",
"246 77 OFFCURVE",
"246 31 CURVE SMOOTH",
"246 -28 OFFCURVE",
"200 -108 OFFCURVE",
"109 -168 CURVE"
);
}
);
};
hints = (
{
place = "{163, 83}";
},
{
horizontal = 1;
place = "{-168, 21}";
target = up;
type = BottomGhost;
},
{
horizontal = 1;
place = "{121, -20}";
target = down;
type = TopGhost;
}
);
layerId = UUID0;
paths = (
{
closed = 1;
nodes = (
"81 -131 LINE",
"113 -107 OFFCURVE",
"163 -61 OFFCURVE",
"163 -27 CURVE SMOOTH",
"163 -16 OFFCURVE",
"158 -5 OFFCURVE",
"141 1 CURVE SMOOTH",
"103 14 LINE",
"85 59 OFFCURVE",
"101 121 OFFCURVE",
"168 121 CURVE SMOOTH",
"223 121 OFFCURVE",
"246 77 OFFCURVE",
"246 31 CURVE SMOOTH",
"246 -28 OFFCURVE",
"200 -108 OFFCURVE",
"109 -168 CURVE"
);
}
);
width = 328;
},
{
background = {
paths = (
{
closed = 1;
nodes = (
"36 -119 LINE",
"74 -93 OFFCURVE",
"129 -52 OFFCURVE",
"129 -14 CURVE SMOOTH",
"129 -2 OFFCURVE",
"123 10 OFFCURVE",
"103 16 CURVE SMOOTH",
"66 29 LINE",
"49 72 OFFCURVE",
"66 149 OFFCURVE",
"145 149 CURVE SMOOTH",
"210 149 OFFCURVE",
"239 102 OFFCURVE",
"239 51 CURVE SMOOTH",
"239 -13 OFFCURVE",
"183 -102 OFFCURVE",
"75 -168 CURVE"
);
}
);
};
hints = (
{
place = "{129, 110}";
},
{
horizontal = 1;
place = "{-168, 21}";
target = up;
type = BottomGhost;
},
{
horizontal = 1;
place = "{149, -20}";
target = down;
type = TopGhost;
}
);
layerId = "D537FF15-C70F-4B12-AACC-84E5BB5FCF97";
paths = (
{
closed = 1;
nodes = (
"36 -119 LINE",
"74 -93 OFFCURVE",
"129 -52 OFFCURVE",
"129 -14 CURVE SMOOTH",
"129 -2 OFFCURVE",
"123 10 OFFCURVE",
"103 16 CURVE SMOOTH",
"66 29 LINE",
"49 72 OFFCURVE",
"66 149 OFFCURVE",
"145 149 CURVE SMOOTH",
"210 149 OFFCURVE",
"239 102 OFFCURVE",
"239 51 CURVE SMOOTH",
"239 -13 OFFCURVE",
"183 -102 OFFCURVE",
"75 -168 CURVE"
);
}
);
width = 292;
}
);
leftKerningGroup = period;
rightKerningGroup = period;
unicode = 002C;
},
{
glyphname = hyphen;
lastChange = "2016-06-05 15:24:03 +0000";
layers = (
{
background = {
paths = (
{
closed = 1;
nodes = (
"52 247 LINE",
"319 247 LINE",
"322 329 LINE",
"55 329 LINE"
);
}
);
};
hints = (
{
horizontal = 1;
place = "{247, 82}";
}
);
layerId = UUID0;
paths = (
{
closed = 1;
nodes = (
"52 247 LINE",
"319 247 LINE",
"322 329 LINE",
"55 329 LINE"
);
}
);
width = 354;
},
{
background = {
paths = (
{
closed = 1;
nodes = (
"51 231 LINE",
"318 231 LINE",
"322 333 LINE",
"55 333 LINE"
);
}
);
};
hints = (
{
horizontal = 1;
place = "{231, 102}";
}
);
layerId = "D537FF15-C70F-4B12-AACC-84E5BB5FCF97";
paths = (
{
closed = 1;
nodes = (
"51 231 LINE",
"318 231 LINE",
"322 333 LINE",
"55 333 LINE"
);
}
);
width = 354;
}
);
leftKerningGroup = hyphen;
rightKerningGroup = hyphen;
unicode = 002D;
},
{
glyphname = period;
lastChange = "2016-06-05 15:24:03 +0000";
layers = (
{
background = {
paths = (
{
closed = 1;
nodes = (
"85 7 OFFCURVE",
"116 -17 OFFCURVE",
"160 -17 CURVE SMOOTH",
"206 -17 OFFCURVE",
"242 11 OFFCURVE",
"242 59 CURVE SMOOTH",
"242 100 OFFCURVE",
"211 128 OFFCURVE",
"165 128 CURVE SMOOTH",
"117 128 OFFCURVE",
"85 95 OFFCURVE",
"85 50 CURVE SMOOTH"
);
}
);
};
hints = (
{
place = "{85, 157}";
},
{
horizontal = 1;
place = "{-17, 145}";
}
);
layerId = UUID0;
paths = (
{
closed = 1;
nodes = (
"85 7 OFFCURVE",
"116 -17 OFFCURVE",
"160 -17 CURVE SMOOTH",
"206 -17 OFFCURVE",
"242 11 OFFCURVE",
"242 59 CURVE SMOOTH",
"242 100 OFFCURVE",
"211 128 OFFCURVE",
"165 128 CURVE SMOOTH",
"117 128 OFFCURVE",
"85 95 OFFCURVE",
"85 50 CURVE SMOOTH"
);
}
);
width = 319;
},
{
background = {
paths = (
{
closed = 1;
nodes = (
"62 12 OFFCURVE",
"98 -15 OFFCURVE",
"152 -15 CURVE SMOOTH",
"206 -15 OFFCURVE",
"248 13 OFFCURVE",
"248 66 CURVE SMOOTH",
"248 116 OFFCURVE",
"212 150 OFFCURVE",
"158 150 CURVE SMOOTH",
"104 150 OFFCURVE",
"62 116 OFFCURVE",
"62 65 CURVE SMOOTH"
);
}
);
};
hints = (
{
place = "{62, 186}";
},
{
horizontal = 1;
place = "{-15, 165}";
}
);
layerId = "D537FF15-C70F-4B12-AACC-84E5BB5FCF97";
paths = (
{
closed = 1;
nodes = (
"62 12 OFFCURVE",
"98 -15 OFFCURVE",
"152 -15 CURVE SMOOTH",
"206 -15 OFFCURVE",
"248 13 OFFCURVE",
"248 66 CURVE SMOOTH",
"248 116 OFFCURVE",
"212 150 OFFCURVE",
"158 150 CURVE SMOOTH",
"104 150 OFFCURVE",
"62 116 OFFCURVE",
"62 65 CURVE SMOOTH"
);
}
);
width = 296;
}
);
leftKerningGroup = period;
rightKerningGroup = period;
unicode = 002E;
},
{
glyphname = slash;
lastChange = "2016-06-05 15:24:03 +0000";
layers = (
{
background = {
paths = (
{
closed = 1;
nodes = (
"16 -110 LINE",
"80 -110 LINE",
"436 802 LINE",
"373 802 LINE"
);
}
);
};
hints = (
{
horizontal = 1;
place = "{-110, 21}";
target = up;
type = BottomGhost;
},
{
horizontal = 1;
place = "{802, -20}";
target = down;
type = TopGhost;
}
);
layerId = UUID0;
paths = (
{
closed = 1;
nodes = (
"16 -110 LINE",
"80 -110 LINE",
"436 802 LINE",
"373 802 LINE"
);
}
);
width = 428;
},
{
background = {
paths = (
{
closed = 1;
nodes = (
"6 -110 LINE",
"88 -110 LINE",
"444 802 LINE",
"363 802 LINE"
);
}
);
};
hints = (
{
horizontal = 1;
place = "{-110, 21}";
target = up;
type = BottomGhost;
},
{
horizontal = 1;
place = "{802, -20}";
target = down;
type = TopGhost;
}
);
layerId = "D537FF15-C70F-4B12-AACC-84E5BB5FCF97";
paths = (
{
closed = 1;
nodes = (
"6 -110 LINE",
"88 -110 LINE",
"444 802 LINE",
"363 802 LINE"
);
}
);
width = 428;
}
);
unicode = 002F;
},
{
glyphname = zero;
lastChange = "2016-06-05 15:24:03 +0000";
layers = (
{
background = {
paths = (
{
closed = 1;
nodes = (
"50 88 OFFCURVE",
"134 -14 OFFCURVE",
"290 -14 CURVE SMOOTH",
"478 -14 OFFCURVE",
"558 140 OFFCURVE",
"558 306 CURVE SMOOTH",
"558 502 OFFCURVE",
"440 568 OFFCURVE",
"320 568 CURVE SMOOTH",
"138 568 OFFCURVE",
"50 426 OFFCURVE",
"50 260 CURVE SMOOTH"
);
},
{
closed = 1;
nodes = (
"404 510 OFFCURVE",
"461 457 OFFCURVE",
"461 298 CURVE SMOOTH",
"461 164 OFFCURVE",
"425 42 OFFCURVE",
"294 42 CURVE SMOOTH",
"203 42 OFFCURVE",
"147 111 OFFCURVE",
"147 259 CURVE SMOOTH",
"147 398 OFFCURVE",
"187 510 OFFCURVE",
"315 510 CURVE SMOOTH"
);
}
);
};
hints = (
{
place = "{50, 97}";
},
{
place = "{461, 97}";
},
{
horizontal = 1;
place = "{-14, 56}";
},
{
horizontal = 1;
place = "{510, 58}";
}
);
layerId = UUID0;
paths = (
{
closed = 1;
nodes = (
"50 88 OFFCURVE",
"134 -14 OFFCURVE",
"290 -14 CURVE SMOOTH",
"478 -14 OFFCURVE",
"558 140 OFFCURVE",
"558 306 CURVE SMOOTH",
"558 502 OFFCURVE",
"440 568 OFFCURVE",
"320 568 CURVE SMOOTH",
"138 568 OFFCURVE",
"50 426 OFFCURVE",
"50 260 CURVE SMOOTH"
);
},
{
closed = 1;
nodes = (
"404 510 OFFCURVE",
"461 457 OFFCURVE",
"461 298 CURVE SMOOTH",
"461 164 OFFCURVE",
"425 42 OFFCURVE",
"294 42 CURVE SMOOTH",
"203 42 OFFCURVE",
"147 111 OFFCURVE",
"147 259 CURVE SMOOTH",
"147 398 OFFCURVE",
"187 510 OFFCURVE",
"315 510 CURVE SMOOTH"
);
}
);
width = 600;
},
{
background = {
paths = (
{
closed = 1;
nodes = (
"40 88 OFFCURVE",
"124 -14 OFFCURVE",
"290 -14 CURVE SMOOTH",
"488 -14 OFFCURVE",
"568 140 OFFCURVE",
"568 303 CURVE SMOOTH",
"568 502 OFFCURVE",
"450 568 OFFCURVE",
"320 568 CURVE SMOOTH",
"128 568 OFFCURVE",
"40 426 OFFCURVE",
"40 260 CURVE SMOOTH"
);
},
{
closed = 1;
nodes = (
"384 500 OFFCURVE",
"431 451 OFFCURVE",
"431 298 CURVE SMOOTH",
"431 162 OFFCURVE",
"405 53 OFFCURVE",
"296 53 CURVE SMOOTH",
"213 53 OFFCURVE",
"177 124 OFFCURVE",
"177 259 CURVE SMOOTH",
"177 398 OFFCURVE",
"212 500 OFFCURVE",
"315 500 CURVE SMOOTH"
);
}
);
};
hints = (
{
place = "{40, 137}";
},
{
place = "{431, 137}";
},
{
horizontal = 1;
place = "{-14, 67}";
},
{
horizontal = 1;
place = "{500, 68}";
}
);
layerId = "D537FF15-C70F-4B12-AACC-84E5BB5FCF97";
paths = (
{
closed = 1;
nodes = (
"40 88 OFFCURVE",
"124 -14 OFFCURVE",
"290 -14 CURVE SMOOTH",
"488 -14 OFFCURVE",
"568 140 OFFCURVE",
"568 303 CURVE SMOOTH",
"568 502 OFFCURVE",
"450 568 OFFCURVE",
"320 568 CURVE SMOOTH",
"128 568 OFFCURVE",
"40 426 OFFCURVE",
"40 260 CURVE SMOOTH"
);
},
{
closed = 1;
nodes = (
"384 500 OFFCURVE",
"431 451 OFFCURVE",
"431 298 CURVE SMOOTH",
"431 162 OFFCURVE",
"405 53 OFFCURVE",
"296 53 CURVE SMOOTH",
"213 53 OFFCURVE",
"177 124 OFFCURVE",
"177 259 CURVE SMOOTH",
"177 398 OFFCURVE",
"212 500 OFFCURVE",
"315 500 CURVE SMOOTH"
);
}
);
width = 600;
}
);
unicode = 0030;
},
{
glyphname = one;
lastChange = "2016-06-05 15:24:03 +0000";
layers = (
{
background = {
paths = (
{
closed = 1;
nodes = (
"162 62 LINE",
"46 46 LINE",
"40 0 LINE",
"350 0 LINE",
"356 47 LINE",
"247 63 LINE",
"266 557 LINE",
"249 567 LINE",
"58 542 LINE",
"51 491 LINE",
"178 491 LINE"
);
}
);
};
hints = (
{
place = "{170, 86}";
},
{
horizontal = 1;
place = "{0, 21}";
target = up;
type = BottomGhost;
},
{
horizontal = 1;
place = "{567, -20}";
target = down;
type = TopGhost;
}
);
layerId = UUID0;
paths = (
{
closed = 1;
nodes = (
"162 62 LINE",
"46 46 LINE",
"40 0 LINE",
"350 0 LINE",
"356 47 LINE",
"247 63 LINE",
"266 557 LINE",
"249 567 LINE",
"58 542 LINE",
"51 491 LINE",
"178 491 LINE"
);
}
);
width = 404;
},
{
background = {
paths = (
{
closed = 1;
nodes = (
"162 70 LINE",
"46 54 LINE",
"40 0 LINE",
"390 0 LINE",
"396 55 LINE",
"287 71 LINE",
"306 557 LINE",
"289 567 LINE",
"58 542 LINE",
"51 483 LINE",
"178 483 LINE"
);
}
);
};
hints = (
{
place = "{170, 126}";
},
{
horizontal = 1;
place = "{0, 21}";
target = up;
type = BottomGhost;
},
{
horizontal = 1;
place = "{567, -20}";
target = down;
type = TopGhost;
}
);
layerId = "D537FF15-C70F-4B12-AACC-84E5BB5FCF97";
paths = (
{
closed = 1;
nodes = (
"162 70 LINE",
"46 54 LINE",
"40 0 LINE",
"390 0 LINE",
"396 55 LINE",
"287 71 LINE",
"306 557 LINE",
"289 567 LINE",
"58 542 LINE",
"51 483 LINE",
"178 483 LINE"
);
}
);
width = 419;
}
);
unicode = 0031;
},
{
glyphname = two;
lastChange = "2016-06-05 15:24:03 +0000";
layers = (
{
background = {
paths = (
{
closed = 1;
nodes = (
"61 386 OFFCURVE",
"84 363 OFFCURVE",
"122 363 CURVE SMOOTH",
"150 363 OFFCURVE",
"174 381 OFFCURVE",
"184 405 CURVE",
"163 429 LINE SMOOTH",
"125 472 OFFCURVE",
"163 516 OFFCURVE",
"246 516 CURVE SMOOTH",
"311 516 OFFCURVE",
"356 473 OFFCURVE",
"356 404 CURVE SMOOTH",
"356 310 OFFCURVE",
"289 228 OFFCURVE",
"202 163 CURVE SMOOTH",
"158 130 OFFCURVE",
"87 79 OFFCURVE",
"45 53 CURVE",
"44 0 LINE",
"476 0 LINE",
"499 182 LINE",
"448 182 LINE",
"420 91 OFFCURVE",
"401 73 OFFCURVE",
"315 73 CURVE SMOOTH",
"165 73 LINE",
"165 78 LINE",
"223 113 LINE SMOOTH",
"337 183 OFFCURVE",
"451 267 OFFCURVE",
"451 406 CURVE SMOOTH",
"451 505 OFFCURVE",
"381 568 OFFCURVE",
"257 568 CURVE SMOOTH",
"168 568 OFFCURVE",
"61 515 OFFCURVE",
"61 424 CURVE SMOOTH"
);
}
);
};
hints = (
{
place = "{356, 95}";
},
{
horizontal = 1;
place = "{0, 73}";
},
{
horizontal = 1;
place = "{363, 205}";
},
{
horizontal = 1;
place = "{516, 52}";
}
);
layerId = UUID0;
paths = (
{
closed = 1;
nodes = (
"61 386 OFFCURVE",
"84 363 OFFCURVE",
"122 363 CURVE SMOOTH",
"150 363 OFFCURVE",
"174 381 OFFCURVE",
"184 405 CURVE",
"163 429 LINE SMOOTH",
"125 472 OFFCURVE",
"163 516 OFFCURVE",
"246 516 CURVE SMOOTH",
"311 516 OFFCURVE",
"356 473 OFFCURVE",
"356 404 CURVE SMOOTH",
"356 310 OFFCURVE",
"289 228 OFFCURVE",
"202 163 CURVE SMOOTH",
"158 130 OFFCURVE",
"87 79 OFFCURVE",
"45 53 CURVE",
"44 0 LINE",
"476 0 LINE",
"499 182 LINE",
"448 182 LINE",
"420 91 OFFCURVE",
"401 73 OFFCURVE",
"315 73 CURVE SMOOTH",
"165 73 LINE",
"165 78 LINE",
"223 113 LINE SMOOTH",
"337 183 OFFCURVE",
"451 267 OFFCURVE",
"451 406 CURVE SMOOTH",
"451 505 OFFCURVE",
"381 568 OFFCURVE",
"257 568 CURVE SMOOTH",
"168 568 OFFCURVE",
"61 515 OFFCURVE",
"61 424 CURVE SMOOTH"
);
}
);
width = 550;
},
{
background = {
paths = (
{
closed = 1;
nodes = (
"55 379 OFFCURVE",
"81 356 OFFCURVE",
"122 356 CURVE SMOOTH",
"163 356 OFFCURVE",
"187 382 OFFCURVE",
"198 409 CURVE",
"175 436 LINE SMOOTH",
"144 472 OFFCURVE",
"162 508 OFFCURVE",
"230 508 CURVE SMOOTH",
"301 508 OFFCURVE",
"340 473 OFFCURVE",
"340 404 CURVE SMOOTH",
"340 317 OFFCURVE",
"292 255 OFFCURVE",
"205 190 CURVE SMOOTH",
"161 157 OFFCURVE",
"90 106 OFFCURVE",
"48 80 CURVE",
"44 0 LINE",
"484 0 LINE",
"511 202 LINE",
"452 202 LINE",
"424 111 OFFCURVE",
"405 93 OFFCURVE",
"319 93 CURVE SMOOTH",
"174 93 LINE",
"174 98 LINE",
"232 133 LINE SMOOTH",
"346 203 OFFCURVE",
"475 267 OFFCURVE",
"475 406 CURVE SMOOTH",
"475 505 OFFCURVE",
"403 568 OFFCURVE",
"257 568 CURVE SMOOTH",
"168 568 OFFCURVE",
"55 518 OFFCURVE",
"55 421 CURVE SMOOTH"
);
}
);
};
hints = (
{
place = "{340, 135}";
},
{
horizontal = 1;
place = "{0, 93}";
},
{
horizontal = 1;
place = "{508, 60}";
}
);
layerId = "D537FF15-C70F-4B12-AACC-84E5BB5FCF97";
paths = (
{
closed = 1;
nodes = (
"55 379 OFFCURVE",
"81 356 OFFCURVE",
"122 356 CURVE SMOOTH",
"163 356 OFFCURVE",
"187 382 OFFCURVE",
"198 409 CURVE",
"175 436 LINE SMOOTH",
"144 472 OFFCURVE",
"162 508 OFFCURVE",
"230 508 CURVE SMOOTH",
"301 508 OFFCURVE",
"340 473 OFFCURVE",
"340 404 CURVE SMOOTH",
"340 317 OFFCURVE",
"292 255 OFFCURVE",
"205 190 CURVE SMOOTH",
"161 157 OFFCURVE",
"90 106 OFFCURVE",
"48 80 CURVE",
"44 0 LINE",
"484 0 LINE",
"511 202 LINE",
"452 202 LINE",
"424 111 OFFCURVE",
"405 93 OFFCURVE",
"319 93 CURVE SMOOTH",
"174 93 LINE",
"174 98 LINE",
"232 133 LINE SMOOTH",
"346 203 OFFCURVE",
"475 267 OFFCURVE",
"475 406 CURVE SMOOTH",
"475 505 OFFCURVE",
"403 568 OFFCURVE",
"257 568 CURVE SMOOTH",
"168 568 OFFCURVE",
"55 518 OFFCURVE",
"55 421 CURVE SMOOTH"
);
}
);
width = 550;
}
);
unicode = 0032;
},
{
glyphname = three;
lastChange = "2016-06-05 15:24:03 +0000";
layers = (
{
background = {
paths = (
{
closed = 1;
nodes = (
"444 521 OFFCURVE",
"359 568 OFFCURVE",
"247 568 CURVE SMOOTH",
"150 568 OFFCURVE",
"43 515 OFFCURVE",
"43 424 CURVE SMOOTH",
"43 386 OFFCURVE",
"66 363 OFFCURVE",
"104 363 CURVE SMOOTH",
"132 363 OFFCURVE",
"156 381 OFFCURVE",
"166 405 CURVE",
"145 429 LINE SMOOTH",
"107 472 OFFCURVE",
"145 516 OFFCURVE",
"228 516 CURVE SMOOTH",
"313 516 OFFCURVE",
"353 473 OFFCURVE",
"353 403 CURVE SMOOTH",
"353 327 OFFCURVE",
"302 246 OFFCURVE",
"153 228 CURVE",
"160 179 LINE",
"183 183 OFFCURVE",
"208 185 OFFCURVE",
"231 185 CURVE SMOOTH",
"303 185 OFFCURVE",
"366 160 OFFCURVE",
"366 66 CURVE SMOOTH",
"366 -37 OFFCURVE",
"295 -122 OFFCURVE",
"183 -122 CURVE SMOOTH",
"127 -122 OFFCURVE",
"91 -92 OFFCURVE",
"118 -52 CURVE SMOOTH",
"134 -25 LINE",
"123 -7 OFFCURVE",
"102 6 OFFCURVE",
"79 6 CURVE SMOOTH",
"38 6 OFFCURVE",
"11 -26 OFFCURVE",
"11 -63 CURVE SMOOTH",
"11 -151 OFFCURVE",
"110 -175 OFFCURVE",
"180 -175 CURVE SMOOTH",
"370 -175 OFFCURVE",
"470 -42 OFFCURVE",
"470 68 CURVE SMOOTH",
"470 176 OFFCURVE",
"401 215 OFFCURVE",
"308 225 CURVE",
"308 233 LINE",
"393 266 OFFCURVE",
"444 334 OFFCURVE",
"444 410 CURVE SMOOTH"
);
}
);
};
hints = (
{
place = "{353, 91}";
},
{
place = "{366, 78}";
},
{
place = "{366, 104}";
},
{
horizontal = 1;
place = "{-175, 53}";
},
{
horizontal = 1;
place = "{363, 205}";
},
{
horizontal = 1;
place = "{516, 52}";
},
{
horizontal = 1;
place = "{-175, 181}";
}
);
layerId = UUID0;
paths = (
{
closed = 1;
nodes = (
"444 521 OFFCURVE",
"359 568 OFFCURVE",
"247 568 CURVE SMOOTH",
"150 568 OFFCURVE",
"43 515 OFFCURVE",
"43 424 CURVE SMOOTH",
"43 386 OFFCURVE",
"66 363 OFFCURVE",
"104 363 CURVE SMOOTH",
"132 363 OFFCURVE",
"156 381 OFFCURVE",
"166 405 CURVE",
"145 429 LINE SMOOTH",
"107 472 OFFCURVE",
"145 516 OFFCURVE",
"228 516 CURVE SMOOTH",
"313 516 OFFCURVE",
"353 473 OFFCURVE",
"353 403 CURVE SMOOTH",
"353 327 OFFCURVE",
"302 246 OFFCURVE",
"153 228 CURVE",
"160 179 LINE",
"183 183 OFFCURVE",
"208 185 OFFCURVE",
"231 185 CURVE SMOOTH",
"303 185 OFFCURVE",
"366 160 OFFCURVE",
"366 66 CURVE SMOOTH",
"366 -37 OFFCURVE",
"295 -122 OFFCURVE",
"183 -122 CURVE SMOOTH",
"127 -122 OFFCURVE",
"91 -92 OFFCURVE",
"118 -52 CURVE SMOOTH",
"134 -25 LINE",
"123 -7 OFFCURVE",
"102 6 OFFCURVE",
"79 6 CURVE SMOOTH",
"38 6 OFFCURVE",
"11 -26 OFFCURVE",
"11 -63 CURVE SMOOTH",
"11 -151 OFFCURVE",
"110 -175 OFFCURVE",
"180 -175 CURVE SMOOTH",
"370 -175 OFFCURVE",
"470 -42 OFFCURVE",
"470 68 CURVE SMOOTH",
"470 176 OFFCURVE",
"401 215 OFFCURVE",
"308 225 CURVE",
"308 233 LINE",
"393 266 OFFCURVE",
"444 334 OFFCURVE",
"444 410 CURVE SMOOTH"
);
}
);
width = 524;
},
{
background = {
paths = (
{
closed = 1;
nodes = (
"470 521 OFFCURVE",
"371 568 OFFCURVE",
"253 568 CURVE SMOOTH",
"148 568 OFFCURVE",
"41 515 OFFCURVE",
"41 424 CURVE SMOOTH",
"41 386 OFFCURVE",
"63 356 OFFCURVE",
"105 356 CURVE SMOOTH",
"133 356 OFFCURVE",
"161 365 OFFCURVE",
"185 409 CURVE",
"164 433 LINE SMOOTH",
"126 476 OFFCURVE",
"151 508 OFFCURVE",
"224 508 CURVE SMOOTH",
"292 508 OFFCURVE",
"339 473 OFFCURVE",
"339 403 CURVE SMOOTH",
"339 327 OFFCURVE",
"297 248 OFFCURVE",
"158 232 CURVE",
"166 176 LINE",
"189 180 OFFCURVE",
"209 182 OFFCURVE",
"232 182 CURVE SMOOTH",
"291 182 OFFCURVE",
"352 160 OFFCURVE",
"352 66 CURVE SMOOTH",
"352 -37 OFFCURVE",
"301 -114 OFFCURVE",
"189 -114 CURVE SMOOTH",
"133 -114 OFFCURVE",
"114 -91 OFFCURVE",
"134 -57 CURVE SMOOTH",
"154 -22 LINE",
"143 -4 OFFCURVE",
"112 14 OFFCURVE",
"86 14 CURVE SMOOTH",
"31 14 OFFCURVE",
"10 -27 OFFCURVE",
"10 -64 CURVE SMOOTH",
"10 -152 OFFCURVE",
"109 -175 OFFCURVE",
"186 -175 CURVE SMOOTH",
"399 -175 OFFCURVE",
"496 -42 OFFCURVE",
"496 68 CURVE SMOOTH",
"496 176 OFFCURVE",
"433 213 OFFCURVE",
"334 225 CURVE",
"334 233 LINE",
"423 268 OFFCURVE",
"470 334 OFFCURVE",
"470 410 CURVE SMOOTH"
);
}
);
};
hints = (
{
place = "{339, 131}";
},
{
place = "{352, 118}";
},
{
place = "{352, 144}";
},
{
horizontal = 1;
place = "{-175, 61}";
},
{
horizontal = 1;
place = "{508, 60}";
},
{
horizontal = 1;
place = "{-175, 189}";
}
);
layerId = "D537FF15-C70F-4B12-AACC-84E5BB5FCF97";
paths = (
{
closed = 1;
nodes = (
"470 521 OFFCURVE",
"371 568 OFFCURVE",
"253 568 CURVE SMOOTH",
"148 568 OFFCURVE",
"41 515 OFFCURVE",
"41 424 CURVE SMOOTH",
"41 386 OFFCURVE",
"63 356 OFFCURVE",
"105 356 CURVE SMOOTH",
"133 356 OFFCURVE",
"161 365 OFFCURVE",
"185 409 CURVE",
"164 433 LINE SMOOTH",
"126 476 OFFCURVE",
"151 508 OFFCURVE",
"224 508 CURVE SMOOTH",
"292 508 OFFCURVE",
"339 473 OFFCURVE",
"339 403 CURVE SMOOTH",
"339 327 OFFCURVE",
"297 248 OFFCURVE",
"158 232 CURVE",
"166 176 LINE",
"189 180 OFFCURVE",
"209 182 OFFCURVE",
"232 182 CURVE SMOOTH",
"291 182 OFFCURVE",
"352 160 OFFCURVE",
"352 66 CURVE SMOOTH",
"352 -37 OFFCURVE",
"301 -114 OFFCURVE",
"189 -114 CURVE SMOOTH",
"133 -114 OFFCURVE",
"114 -91 OFFCURVE",
"134 -57 CURVE SMOOTH",
"154 -22 LINE",
"143 -4 OFFCURVE",
"112 14 OFFCURVE",
"86 14 CURVE SMOOTH",
"31 14 OFFCURVE",
"10 -27 OFFCURVE",
"10 -64 CURVE SMOOTH",
"10 -152 OFFCURVE",
"109 -175 OFFCURVE",
"186 -175 CURVE SMOOTH",
"399 -175 OFFCURVE",
"496 -42 OFFCURVE",
"496 68 CURVE SMOOTH",
"496 176 OFFCURVE",
"433 213 OFFCURVE",
"334 225 CURVE",
"334 233 LINE",
"423 268 OFFCURVE",
"470 334 OFFCURVE",
"470 410 CURVE SMOOTH"
);
}
);
width = 530;
}
);
unicode = 0033;
},
{
glyphname = four;
lastChange = "2016-06-05 15:24:03 +0000";
layers = (
{
background = {
paths = (
{
closed = 1;
nodes = (
"334 535 OFFCURVE",
"296 568 OFFCURVE",
"249 568 CURVE SMOOTH",
"190 568 OFFCURVE",
"169 524 OFFCURVE",
"175 477 CURVE",
"211 468 LINE SMOOTH",
"242 460 OFFCURVE",
"251 449 OFFCURVE",
"251 419 CURVE SMOOTH",
"251 326 OFFCURVE",
"206 210 OFFCURVE",
"19 54 CURVE",
"27 4 LINE",
"391 4 LINE",
"385 -164 LINE",
"471 -164 LINE",
"477 4 LINE",
"565 4 LINE",
"571 72 LINE",
"479 72 LINE",
"493 411 LINE",
"476 420 LINE",
"407 395 LINE",
"393 72 LINE",
"108 72 LINE",
"281 222 OFFCURVE",
"334 356 OFFCURVE",
"334 470 CURVE SMOOTH"
);
}
);
};
hints = (
{
place = "{251, 83}";
},
{
place = "{388, 86}";
},
{
place = "{400, 86}";
},
{
horizontal = 1;
place = "{-164, 236}";
},
{
horizontal = 1;
place = "{4, 68}";
},
{
horizontal = 1;
place = "{568, -20}";
target = down;
type = TopGhost;
}
);
layerId = UUID0;
paths = (
{
closed = 1;
nodes = (
"334 535 OFFCURVE",
"296 568 OFFCURVE",
"249 568 CURVE SMOOTH",
"190 568 OFFCURVE",
"169 524 OFFCURVE",
"175 477 CURVE",
"211 468 LINE SMOOTH",
"242 460 OFFCURVE",
"251 449 OFFCURVE",
"251 419 CURVE SMOOTH",
"251 326 OFFCURVE",
"206 210 OFFCURVE",
"19 54 CURVE",
"27 4 LINE",
"391 4 LINE",
"385 -164 LINE",
"471 -164 LINE",
"477 4 LINE",
"565 4 LINE",
"571 72 LINE",
"479 72 LINE",
"493 411 LINE",
"476 420 LINE",
"407 395 LINE",
"393 72 LINE",
"108 72 LINE",
"281 222 OFFCURVE",
"334 356 OFFCURVE",
"334 470 CURVE SMOOTH"
);
}
);
width = 611;
},
{
background = {
paths = (
{
closed = 1;
nodes = (
"346 531 OFFCURVE",
"305 568 OFFCURVE",
"249 568 CURVE SMOOTH",
"180 568 OFFCURVE",
"151 519 OFFCURVE",
"160 454 CURVE",
"196 445 LINE SMOOTH",
"227 437 OFFCURVE",
"236 422 OFFCURVE",
"236 389 CURVE SMOOTH",
"236 315 OFFCURVE",
"190 225 OFFCURVE",
"19 75 CURVE",
"27 0 LINE",
"371 0 LINE",
"365 -164 LINE",
"491 -164 LINE",
"497 0 LINE",
"585 0 LINE",
"591 93 LINE",
"499 93 LINE",
"513 411 LINE",
"496 420 LINE",
"388 394 LINE",
"373 93 LINE",
"122 93 LINE",
"295 243 OFFCURVE",
"346 356 OFFCURVE",
"346 464 CURVE SMOOTH"
);
}
);
};
hints = (
{
place = "{236, 110}";
},
{
place = "{368, 126}";
},
{
place = "{380, 126}";
},
{
horizontal = 1;
place = "{0, 93}";
},
{
horizontal = 1;
place = "{568, -20}";
target = down;
type = TopGhost;
},
{
horizontal = 1;
place = "{-164, 21}";
target = up;
type = BottomGhost;
}
);
layerId = "D537FF15-C70F-4B12-AACC-84E5BB5FCF97";
paths = (
{
closed = 1;
nodes = (
"346 531 OFFCURVE",
"305 568 OFFCURVE",
"249 568 CURVE SMOOTH",
"180 568 OFFCURVE",
"151 519 OFFCURVE",
"160 454 CURVE",
"196 445 LINE SMOOTH",
"227 437 OFFCURVE",
"236 422 OFFCURVE",
"236 389 CURVE SMOOTH",
"236 315 OFFCURVE",
"190 225 OFFCURVE",
"19 75 CURVE",
"27 0 LINE",
"371 0 LINE",
"365 -164 LINE",
"491 -164 LINE",
"497 0 LINE",
"585 0 LINE",
"591 93 LINE",
"499 93 LINE",
"513 411 LINE",
"496 420 LINE",
"388 394 LINE",
"373 93 LINE",
"122 93 LINE",
"295 243 OFFCURVE",
"346 356 OFFCURVE",
"346 464 CURVE SMOOTH"
);
}
);
width = 611;
}
);
unicode = 0034;
},
{
glyphname = five;
lastChange = "2016-06-05 15:24:03 +0000";
layers = (
{
background = {
paths = (
{
closed = 1;
nodes = (
"372 -31 OFFCURVE",
"295 -122 OFFCURVE",
"183 -122 CURVE SMOOTH",
"127 -122 OFFCURVE",
"91 -92 OFFCURVE",
"118 -52 CURVE",
"134 -25 LINE",
"123 -7 OFFCURVE",
"102 6 OFFCURVE",
"79 6 CURVE SMOOTH",
"38 6 OFFCURVE",
"11 -26 OFFCURVE",
"11 -63 CURVE SMOOTH",
"11 -151 OFFCURVE",
"110 -175 OFFCURVE",
"180 -175 CURVE SMOOTH",
"368 -175 OFFCURVE",
"471 -41 OFFCURVE",
"471 105 CURVE SMOOTH",
"471 228 OFFCURVE",
"400 309 OFFCURVE",
"285 309 CURVE SMOOTH",
"236 309 OFFCURVE",
"181 291 OFFCURVE",
"143 268 CURVE",
"165 493 LINE",
"201 480 OFFCURVE",
"270 450 OFFCURVE",
"339 450 CURVE SMOOTH",
"425 450 OFFCURVE",
"451 501 OFFCURVE",
"465 612 CURVE",
"421 619 LINE",
"399 550 OFFCURVE",
"364 537 OFFCURVE",
"289 537 CURVE SMOOTH",
"238 537 OFFCURVE",
"170 548 OFFCURVE",
"125 556 CURVE",
"109 542 LINE",
"83 240 LINE",
"114 204 LINE",
"154 220 OFFCURVE",
"193 232 OFFCURVE",
"239 232 CURVE SMOOTH",
"314 232 OFFCURVE",
"372 200 OFFCURVE",
"372 93 CURVE SMOOTH"
);
}
);
};
hints = (
{
place = "{372, 99}";
},
{
horizontal = 1;
place = "{-175, 53}";
},
{
horizontal = 1;
place = "{232, 77}";
},
{
horizontal = 1;
place = "{450, 87}";
},
{
horizontal = 1;
place = "{-175, 181}";
},
{
horizontal = 1;
place = "{619, -20}";
target = down;
type = TopGhost;
}
);
layerId = UUID0;
paths = (
{
closed = 1;
nodes = (
"372 -31 OFFCURVE",
"295 -122 OFFCURVE",
"183 -122 CURVE SMOOTH",
"127 -122 OFFCURVE",
"91 -92 OFFCURVE",
"118 -52 CURVE",
"134 -25 LINE",
"123 -7 OFFCURVE",
"102 6 OFFCURVE",
"79 6 CURVE SMOOTH",
"38 6 OFFCURVE",
"11 -26 OFFCURVE",
"11 -63 CURVE SMOOTH",
"11 -151 OFFCURVE",
"110 -175 OFFCURVE",
"180 -175 CURVE SMOOTH",
"368 -175 OFFCURVE",
"471 -41 OFFCURVE",
"471 105 CURVE SMOOTH",
"471 228 OFFCURVE",
"400 309 OFFCURVE",
"285 309 CURVE SMOOTH",
"236 309 OFFCURVE",
"181 291 OFFCURVE",
"143 268 CURVE",
"165 493 LINE",
"201 480 OFFCURVE",
"270 450 OFFCURVE",
"339 450 CURVE SMOOTH",
"425 450 OFFCURVE",
"451 501 OFFCURVE",
"465 612 CURVE",
"421 619 LINE",
"399 550 OFFCURVE",
"364 537 OFFCURVE",
"289 537 CURVE SMOOTH",
"238 537 OFFCURVE",
"170 548 OFFCURVE",
"125 556 CURVE",
"109 542 LINE",
"83 240 LINE",
"114 204 LINE",
"154 220 OFFCURVE",
"193 232 OFFCURVE",
"239 232 CURVE SMOOTH",
"314 232 OFFCURVE",
"372 200 OFFCURVE",
"372 93 CURVE SMOOTH"
);
}
);
width = 523;
},
{
background = {
paths = (
{
closed = 1;
nodes = (
"352 -31 OFFCURVE",
"295 -114 OFFCURVE",
"183 -114 CURVE SMOOTH",
"124 -114 OFFCURVE",
"105 -91 OFFCURVE",
"130 -49 CURVE SMOOTH",
"146 -22 LINE",
"135 -4 OFFCURVE",
"102 14 OFFCURVE",
"79 14 CURVE SMOOTH",
"25 14 OFFCURVE",
"1 -26 OFFCURVE",
"1 -63 CURVE SMOOTH",
"1 -151 OFFCURVE",
"102 -175 OFFCURVE",
"180 -175 CURVE SMOOTH",
"384 -175 OFFCURVE",
"491 -41 OFFCURVE",
"491 105 CURVE SMOOTH",
"491 228 OFFCURVE",
"419 309 OFFCURVE",
"292 309 CURVE SMOOTH",
"236 309 OFFCURVE",
"181 291 OFFCURVE",
"143 268 CURVE",
"165 463 LINE",
"201 450 OFFCURVE",
"270 420 OFFCURVE",
"339 420 CURVE SMOOTH",
"425 420 OFFCURVE",
"458 488 OFFCURVE",
"473 612 CURVE",
"421 619 LINE",
"399 550 OFFCURVE",
"364 537 OFFCURVE",
"289 537 CURVE SMOOTH",
"238 537 OFFCURVE",
"170 548 OFFCURVE",
"125 556 CURVE",
"98 538 LINE",
"73 240 LINE",
"114 196 LINE",
"154 212 OFFCURVE",
"193 224 OFFCURVE",
"239 224 CURVE SMOOTH",
"311 224 OFFCURVE",
"352 190 OFFCURVE",
"352 93 CURVE SMOOTH"
);
}
);
};
hints = (
{
place = "{352, 139}";
},
{
horizontal = 1;
place = "{-175, 61}";
},
{
horizontal = 1;
place = "{224, 85}";
},
{
horizontal = 1;
place = "{420, 117}";
},
{
horizontal = 1;
place = "{-175, 189}";
},
{
horizontal = 1;
place = "{619, -20}";
target = down;
type = TopGhost;
}
);
layerId = "D537FF15-C70F-4B12-AACC-84E5BB5FCF97";
paths = (
{
closed = 1;
nodes = (
"352 -31 OFFCURVE",
"295 -114 OFFCURVE",
"183 -114 CURVE SMOOTH",
"124 -114 OFFCURVE",
"105 -91 OFFCURVE",
"130 -49 CURVE SMOOTH",
"146 -22 LINE",
"135 -4 OFFCURVE",
"102 14 OFFCURVE",
"79 14 CURVE SMOOTH",
"25 14 OFFCURVE",
"1 -26 OFFCURVE",
"1 -63 CURVE SMOOTH",
"1 -151 OFFCURVE",
"102 -175 OFFCURVE",
"180 -175 CURVE SMOOTH",
"384 -175 OFFCURVE",
"491 -41 OFFCURVE",
"491 105 CURVE SMOOTH",
"491 228 OFFCURVE",
"419 309 OFFCURVE",
"292 309 CURVE SMOOTH",
"236 309 OFFCURVE",
"181 291 OFFCURVE",
"143 268 CURVE",
"165 463 LINE",
"201 450 OFFCURVE",
"270 420 OFFCURVE",
"339 420 CURVE SMOOTH",
"425 420 OFFCURVE",
"458 488 OFFCURVE",
"473 612 CURVE",
"421 619 LINE",
"399 550 OFFCURVE",
"364 537 OFFCURVE",
"289 537 CURVE SMOOTH",
"238 537 OFFCURVE",
"170 548 OFFCURVE",
"125 556 CURVE",
"98 538 LINE",
"73 240 LINE",
"114 196 LINE",
"154 212 OFFCURVE",
"193 224 OFFCURVE",
"239 224 CURVE SMOOTH",
"311 224 OFFCURVE",
"352 190 OFFCURVE",
"352 93 CURVE SMOOTH"
);
}
);
width = 523;
}
);
unicode = 0035;
},
{
glyphname = six;
lastChange = "2016-06-05 15:24:03 +0000";
layers = (
{
background = {
paths = (
{
closed = 1;
nodes = (
"459 715 OFFCURVE",
"525 670 OFFCURVE",
"525 597 CURVE SMOOTH",
"525 558 OFFCURVE",
"500 533 OFFCURVE",
"465 533 CURVE SMOOTH",
"436 533 OFFCURVE",
"411 546 OFFCURVE",
"400 557 CURVE",
"419 594 LINE SMOOTH",
"437 629 OFFCURVE",
"419 658 OFFCURVE",
"367 658 CURVE SMOOTH",
"246 658 OFFCURVE",
"164 511 OFFCURVE",
"147 348 CURVE",
"151 345 LINE",
"194 390 OFFCURVE",
"258 454 OFFCURVE",
"347 454 CURVE SMOOTH",
"441 454 OFFCURVE",
"513 392 OFFCURVE",
"513 259 CURVE SMOOTH",
"513 95 OFFCURVE",
"411 -14 OFFCURVE",
"276 -14 CURVE SMOOTH",
"111 -14 OFFCURVE",
"61 131 OFFCURVE",
"61 277 CURVE SMOOTH",
"61 515 OFFCURVE",
"176 715 OFFCURVE",
"376 715 CURVE SMOOTH"
);
},
{
closed = 1;
nodes = (
"420 351 OFFCURVE",
"379 389 OFFCURVE",
"326 389 CURVE SMOOTH",
"251 389 OFFCURVE",
"178 310 OFFCURVE",
"151 273 CURVE",
"148 162 OFFCURVE",
"183 42 OFFCURVE",
"278 42 CURVE SMOOTH",
"367 42 OFFCURVE",
"420 120 OFFCURVE",
"420 246 CURVE SMOOTH"
);
}
);
};
hints = (
{
place = "{61, 90}";
},
{
place = "{420, 93}";
},
{
horizontal = 1;
place = "{-14, 56}";
},
{
horizontal = 1;
place = "{389, 65}";
},
{
horizontal = 1;
place = "{533, 182}";
},
{
horizontal = 1;
place = "{658, 57}";
}
);
layerId = UUID0;
paths = (
{
closed = 1;
nodes = (
"459 715 OFFCURVE",
"525 670 OFFCURVE",
"525 597 CURVE SMOOTH",
"525 558 OFFCURVE",
"500 533 OFFCURVE",
"465 533 CURVE SMOOTH",
"436 533 OFFCURVE",
"411 546 OFFCURVE",
"400 557 CURVE",
"419 594 LINE SMOOTH",
"437 629 OFFCURVE",
"419 658 OFFCURVE",
"367 658 CURVE SMOOTH",
"246 658 OFFCURVE",
"164 511 OFFCURVE",
"147 348 CURVE",
"151 345 LINE",
"194 390 OFFCURVE",
"258 454 OFFCURVE",
"347 454 CURVE SMOOTH",
"441 454 OFFCURVE",
"513 392 OFFCURVE",
"513 259 CURVE SMOOTH",
"513 95 OFFCURVE",
"411 -14 OFFCURVE",
"276 -14 CURVE SMOOTH",
"111 -14 OFFCURVE",
"61 131 OFFCURVE",
"61 277 CURVE SMOOTH",
"61 515 OFFCURVE",
"176 715 OFFCURVE",
"376 715 CURVE SMOOTH"
);
},
{
closed = 1;
nodes = (
"420 351 OFFCURVE",
"379 389 OFFCURVE",
"326 389 CURVE SMOOTH",
"251 389 OFFCURVE",
"178 310 OFFCURVE",
"151 273 CURVE",
"148 162 OFFCURVE",
"183 42 OFFCURVE",
"278 42 CURVE SMOOTH",
"367 42 OFFCURVE",
"420 120 OFFCURVE",
"420 246 CURVE SMOOTH"
);
}
);
width = 567;
},
{
background = {
paths = (
{
closed = 1;
nodes = (
"459 715 OFFCURVE",
"535 678 OFFCURVE",
"535 597 CURVE SMOOTH",
"535 558 OFFCURVE",
"507 525 OFFCURVE",
"465 525 CURVE SMOOTH",
"436 525 OFFCURVE",
"403 542 OFFCURVE",
"392 553 CURVE",
"411 590 LINE SMOOTH",
"429 625 OFFCURVE",
"414 650 OFFCURVE",
"367 650 CURVE SMOOTH",
"246 650 OFFCURVE",
"185 514 OFFCURVE",
"170 361 CURVE",
"174 358 LINE",
"205 396 OFFCURVE",
"266 454 OFFCURVE",
"361 454 CURVE SMOOTH",
"462 454 OFFCURVE",
"533 392 OFFCURVE",
"533 259 CURVE SMOOTH",
"533 95 OFFCURVE",
"427 -14 OFFCURVE",
"279 -14 CURVE SMOOTH",
"100 -14 OFFCURVE",
"41 131 OFFCURVE",
"41 277 CURVE SMOOTH",
"41 515 OFFCURVE",
"156 715 OFFCURVE",
"376 715 CURVE SMOOTH"
);
},
{
closed = 1;
nodes = (
"400 346 OFFCURVE",
"370 379 OFFCURVE",
"324 379 CURVE SMOOTH",
"261 379 OFFCURVE",
"198 313 OFFCURVE",
"171 276 CURVE",
"168 174 OFFCURVE",
"188 50 OFFCURVE",
"281 50 CURVE SMOOTH",
"361 50 OFFCURVE",
"400 120 OFFCURVE",
"400 246 CURVE SMOOTH"
);
}
);
};
hints = (
{
place = "{41, 130}";
},
{
place = "{400, 133}";
},
{
horizontal = 1;
place = "{-14, 64}";
},
{
horizontal = 1;
place = "{379, 75}";
},
{
horizontal = 1;
place = "{525, 190}";
},
{
horizontal = 1;
place = "{650, 65}";
}
);
layerId = "D537FF15-C70F-4B12-AACC-84E5BB5FCF97";
paths = (
{
closed = 1;
nodes = (
"459 715 OFFCURVE",
"535 678 OFFCURVE",
"535 597 CURVE SMOOTH",
"535 558 OFFCURVE",
"507 525 OFFCURVE",
"465 525 CURVE SMOOTH",
"436 525 OFFCURVE",
"403 542 OFFCURVE",
"392 553 CURVE",
"411 590 LINE SMOOTH",
"429 625 OFFCURVE",
"414 650 OFFCURVE",
"367 650 CURVE SMOOTH",
"246 650 OFFCURVE",
"185 514 OFFCURVE",
"170 361 CURVE",
"174 358 LINE",
"205 396 OFFCURVE",
"266 454 OFFCURVE",
"361 454 CURVE SMOOTH",
"462 454 OFFCURVE",
"533 392 OFFCURVE",
"533 259 CURVE SMOOTH",
"533 95 OFFCURVE",
"427 -14 OFFCURVE",
"279 -14 CURVE SMOOTH",
"100 -14 OFFCURVE",
"41 131 OFFCURVE",
"41 277 CURVE SMOOTH",
"41 515 OFFCURVE",
"156 715 OFFCURVE",
"376 715 CURVE SMOOTH"
);
},
{
closed = 1;
nodes = (
"400 346 OFFCURVE",
"370 379 OFFCURVE",
"324 379 CURVE SMOOTH",
"261 379 OFFCURVE",
"198 313 OFFCURVE",
"171 276 CURVE",
"168 174 OFFCURVE",
"188 50 OFFCURVE",
"281 50 CURVE SMOOTH",
"361 50 OFFCURVE",
"400 120 OFFCURVE",
"400 246 CURVE SMOOTH"
);
}
);
width = 567;
}
);
unicode = 0036;
},
{
glyphname = seven;
lastChange = "2016-06-05 16:12:52 +0000";
layers = (
{
background = {
paths = (
{
closed = 1;
nodes = (
"102 -122 OFFCURVE",
"155 -175 OFFCURVE",
"223 -175 CURVE SMOOTH",
"312 -175 OFFCURVE",
"334 -101 OFFCURVE",
"281 -52 CURVE",
"237 -77 LINE SMOOTH",
"203 -96 OFFCURVE",
"169 -77 OFFCURVE",
"169 -28 CURVE SMOOTH",
"169 133 OFFCURVE",
"340 327 OFFCURVE",
"494 490 CURVE",
"486 554 LINE",
"61 554 LINE",
"48 475 LINE",
"405 475 LINE",
"222 284 OFFCURVE",
"102 118 OFFCURVE",
"102 -38 CURVE SMOOTH"
);
}
);
};
hints = (
{
place = "{102, 67}";
},
{
horizontal = 1;
place = "{475, 79}";
},
{
horizontal = 1;
place = "{-175, 21}";
target = up;
type = BottomGhost;
}
);
layerId = UUID0;
paths = (
{
closed = 1;
nodes = (
"102 -122 OFFCURVE",
"155 -175 OFFCURVE",
"223 -175 CURVE SMOOTH",
"277 -175 OFFCURVE",
"306 -148 OFFCURVE",
"309 -116 CURVE SMOOTH",
"311 -95 OFFCURVE",
"302 -71 OFFCURVE",
"281 -52 CURVE",
"237 -77 LINE SMOOTH",
"203 -96 OFFCURVE",
"169 -77 OFFCURVE",
"169 -28 CURVE SMOOTH",
"169 133 OFFCURVE",
"340 327 OFFCURVE",
"494 490 CURVE",
"486 554 LINE",
"61 554 LINE",
"48 475 LINE",
"405 475 LINE",
"222 284 OFFCURVE",
"102 118 OFFCURVE",
"102 -38 CURVE SMOOTH"
);
}
);
width = 527;
},
{
background = {
paths = (
{
closed = 1;
nodes = (
"74 -114 OFFCURVE",
"123 -175 OFFCURVE",
"208 -175 CURVE SMOOTH",
"272 -175 OFFCURVE",
"307 -137 OFFCURVE",
"307 -96 CURVE SMOOTH",
"307 -69 OFFCURVE",
"292 -47 OFFCURVE",
"265 -29 CURVE",
"230 -50 LINE SMOOTH",
"187 -76 OFFCURVE",
"159 -53 OFFCURVE",
"159 -6 CURVE SMOOTH",
"159 143 OFFCURVE",
"337 312 OFFCURVE",
"485 460 CURVE",
"478 554 LINE",
"53 554 LINE",
"39 445 LINE",
"376 445 LINE",
"190 256 OFFCURVE",
"74 126 OFFCURVE",
"74 -30 CURVE SMOOTH"
);
}
);
};
hints = (
{
place = "{74, 85}";
},
{
horizontal = 1;
place = "{445, 109}";
},
{
horizontal = 1;
place = "{-175, 21}";
target = up;
type = BottomGhost;
}
);
layerId = "D537FF15-C70F-4B12-AACC-84E5BB5FCF97";
paths = (
{
closed = 1;
nodes = (
"74 -114 OFFCURVE",
"123 -175 OFFCURVE",
"208 -175 CURVE SMOOTH",
"272 -175 OFFCURVE",
"307 -137 OFFCURVE",
"307 -96 CURVE SMOOTH",
"307 -69 OFFCURVE",
"292 -47 OFFCURVE",
"265 -29 CURVE",
"230 -50 LINE SMOOTH",
"187 -76 OFFCURVE",
"159 -53 OFFCURVE",
"159 -6 CURVE SMOOTH",
"159 143 OFFCURVE",
"337 312 OFFCURVE",
"485 460 CURVE",
"478 554 LINE",
"53 554 LINE",
"39 445 LINE",
"376 445 LINE",
"190 256 OFFCURVE",
"74 126 OFFCURVE",
"74 -30 CURVE SMOOTH"
);
}
);
width = 506;
}
);
unicode = 0037;
},
{
glyphname = eight;
lastChange = "2016-06-05 16:13:53 +0000";
layers = (
{
background = {
paths = (
{
closed = 1;
nodes = (
"52 58 OFFCURVE",
"143 -14 OFFCURVE",
"270 -14 CURVE SMOOTH",
"391 -14 OFFCURVE",
"511 60 OFFCURVE",
"511 196 CURVE SMOOTH",
"511 275 OFFCURVE",
"483 329 OFFCURVE",
"361 390 CURVE",
"443 435 OFFCURVE",
"495 488 OFFCURVE",
"495 566 CURVE SMOOTH",
"495 652 OFFCURVE",
"430 715 OFFCURVE",
"308 715 CURVE SMOOTH",
"159 715 OFFCURVE",
"91 627 OFFCURVE",
"91 536 CURVE SMOOTH",
"91 463 OFFCURVE",
"130 413 OFFCURVE",
"205 371 CURVE",
"99 315 OFFCURVE",
"52 252 OFFCURVE",
"52 167 CURVE SMOOTH"
);
},
{
closed = 1;
nodes = (
"370 297 OFFCURVE",
"418 259 OFFCURVE",
"418 188 CURVE SMOOTH",
"418 91 OFFCURVE",
"358 44 OFFCURVE",
"277 44 CURVE SMOOTH",
"190 44 OFFCURVE",
"143 100 OFFCURVE",
"143 182 CURVE SMOOTH",
"143 241 OFFCURVE",
"163 292 OFFCURVE",
"253 347 CURVE",
"256 345 OFFCURVE",
"260 344 OFFCURVE",
"263 343 CURVE SMOOTH"
);
},
{
closed = 1;
nodes = (
"176 625 OFFCURVE",
"230 660 OFFCURVE",
"303 660 CURVE SMOOTH",
"366 660 OFFCURVE",
"415 630 OFFCURVE",
"415 557 CURVE SMOOTH",
"415 503 OFFCURVE",
"383 453 OFFCURVE",
"312 413 CURVE",
"212 459 OFFCURVE",
"176 493 OFFCURVE",
"176 552 CURVE SMOOTH"
);
}
);
};
hints = (
{
place = "{52, 91}";
},
{
place = "{91, 85}";
},
{
place = "{418, 77}";
},
{
place = "{418, 93}";
},
{
horizontal = 1;
place = "{-14, 58}";
},
{
horizontal = 1;
place = "{660, 55}";
}
);
layerId = UUID0;
paths = (
{
closed = 1;
nodes = (
"52 58 OFFCURVE",
"143 -14 OFFCURVE",
"270 -14 CURVE SMOOTH",
"391 -14 OFFCURVE",
"511 60 OFFCURVE",
"511 196 CURVE SMOOTH",
"511 275 OFFCURVE",
"483 329 OFFCURVE",
"361 390 CURVE",
"443 435 OFFCURVE",
"495 488 OFFCURVE",
"495 566 CURVE SMOOTH",
"495 652 OFFCURVE",
"430 715 OFFCURVE",
"308 715 CURVE SMOOTH",
"159 715 OFFCURVE",
"91 627 OFFCURVE",
"91 536 CURVE SMOOTH",
"91 463 OFFCURVE",
"130 413 OFFCURVE",
"205 371 CURVE",
"99 315 OFFCURVE",
"52 252 OFFCURVE",
"52 167 CURVE SMOOTH"
);
},
{
closed = 1;
nodes = (
"374 295 OFFCURVE",
"418 259 OFFCURVE",
"418 188 CURVE SMOOTH",
"418 91 OFFCURVE",
"358 44 OFFCURVE",
"277 44 CURVE SMOOTH",
"190 44 OFFCURVE",
"143 100 OFFCURVE",
"143 182 CURVE SMOOTH",
"143 241 OFFCURVE",
"163 292 OFFCURVE",
"253 347 CURVE"
);
},
{
closed = 1;
nodes = (
"176 625 OFFCURVE",
"230 660 OFFCURVE",
"303 660 CURVE SMOOTH",
"366 660 OFFCURVE",
"415 630 OFFCURVE",
"415 557 CURVE SMOOTH",
"415 503 OFFCURVE",
"383 453 OFFCURVE",
"312 413 CURVE",
"212 459 OFFCURVE",
"176 493 OFFCURVE",
"176 552 CURVE SMOOTH"
);
}
);
width = 556;
},
{
background = {
paths = (
{
closed = 1;
nodes = (
"32 58 OFFCURVE",
"127 -14 OFFCURVE",
"270 -14 CURVE SMOOTH",
"407 -14 OFFCURVE",
"531 60 OFFCURVE",
"531 204 CURVE SMOOTH",
"531 282 OFFCURVE",
"504 334 OFFCURVE",
"381 395 CURVE",
"448 431 OFFCURVE",
"506 488 OFFCURVE",
"506 560 CURVE SMOOTH",
"506 646 OFFCURVE",
"441 715 OFFCURVE",
"308 715 CURVE SMOOTH",
"149 715 OFFCURVE",
"73 627 OFFCURVE",
"73 527 CURVE SMOOTH",
"73 462 OFFCURVE",
"102 408 OFFCURVE",
"172 364 CURVE",
"69 308 OFFCURVE",
"32 247 OFFCURVE",
"32 167 CURVE SMOOTH"
);
},
{
closed = 1;
nodes = (
"234 333 LINE",
"341 287 OFFCURVE",
"400 259 OFFCURVE",
"400 180 CURVE SMOOTH",
"400 108 OFFCURVE",
"358 52 OFFCURVE",
"277 52 CURVE SMOOTH",
"190 52 OFFCURVE",
"153 107 OFFCURVE",
"153 182 CURVE SMOOTH",
"153 230 OFFCURVE",
"168 286 OFFCURVE",
"233 333 CURVE"
);
},
{
closed = 1;
nodes = (
"192 618 OFFCURVE",
"239 652 OFFCURVE",
"301 652 CURVE SMOOTH",
"354 652 OFFCURVE",
"401 621 OFFCURVE",
"401 554 CURVE SMOOTH",
"401 503 OFFCURVE",
"373 461 OFFCURVE",
"317 424 CURVE",
"228 466 OFFCURVE",
"192 496 OFFCURVE",
"192 552 CURVE SMOOTH"
);
}
);
};
hints = (
{
place = "{32, 121}";
},
{
place = "{73, 119}";
},
{
place = "{400, 106}";
},
{
place = "{400, 131}";
},
{
horizontal = 1;
place = "{-14, 66}";
},
{
horizontal = 1;
place = "{652, 63}";
}
);
layerId = "D537FF15-C70F-4B12-AACC-84E5BB5FCF97";
paths = (
{
closed = 1;
nodes = (
"32 58 OFFCURVE",
"127 -14 OFFCURVE",
"270 -14 CURVE SMOOTH",
"407 -14 OFFCURVE",
"531 60 OFFCURVE",
"531 204 CURVE SMOOTH",
"531 282 OFFCURVE",
"504 334 OFFCURVE",
"381 395 CURVE",
"448 431 OFFCURVE",
"506 488 OFFCURVE",
"506 560 CURVE SMOOTH",
"506 646 OFFCURVE",
"441 715 OFFCURVE",
"308 715 CURVE SMOOTH",
"149 715 OFFCURVE",
"73 627 OFFCURVE",
"73 527 CURVE SMOOTH",
"73 462 OFFCURVE",
"102 408 OFFCURVE",
"172 364 CURVE",
"69 308 OFFCURVE",
"32 247 OFFCURVE",
"32 167 CURVE SMOOTH"
);
},
{
closed = 1;
nodes = (
"341 287 OFFCURVE",
"400 259 OFFCURVE",
"400 180 CURVE SMOOTH",
"400 108 OFFCURVE",
"358 52 OFFCURVE",
"277 52 CURVE SMOOTH",
"190 52 OFFCURVE",
"153 107 OFFCURVE",
"153 182 CURVE SMOOTH",
"153 230 OFFCURVE",
"168 286 OFFCURVE",
"233 333 CURVE"
);
},
{
closed = 1;
nodes = (
"192 618 OFFCURVE",
"239 652 OFFCURVE",
"301 652 CURVE SMOOTH",
"354 652 OFFCURVE",
"401 621 OFFCURVE",
"401 554 CURVE SMOOTH",
"401 503 OFFCURVE",
"373 461 OFFCURVE",
"317 424 CURVE",
"228 466 OFFCURVE",
"192 496 OFFCURVE",
"192 552 CURVE SMOOTH"
);
}
);
width = 556;
}
);
unicode = 0038;
},
{
glyphname = nine;
lastChange = "2016-06-05 15:24:03 +0000";
layers = (
{
background = {
paths = (
{
closed = 1;
nodes = (
"118 -175 OFFCURVE",
"49 -141 OFFCURVE",
"49 -68 CURVE SMOOTH",
"49 -31 OFFCURVE",
"75 -1 OFFCURVE",
"116 -1 CURVE SMOOTH",
"139 -1 OFFCURVE",
"164 -13 OFFCURVE",
"175 -24 CURVE",
"156 -57 LINE SMOOTH",
"138 -92 OFFCURVE",
"158 -118 OFFCURVE",
"210 -118 CURVE SMOOTH",
"349 -118 OFFCURVE",
"410 46 OFFCURVE",
"422 209 CURVE",
"418 212 LINE",
"375 167 OFFCURVE",
"311 103 OFFCURVE",
"222 103 CURVE SMOOTH",
"128 103 OFFCURVE",
"56 165 OFFCURVE",
"56 298 CURVE SMOOTH",
"56 460 OFFCURVE",
"158 568 OFFCURVE",
"293 568 CURVE SMOOTH",
"458 568 OFFCURVE",
"508 426 OFFCURVE",
"508 280 CURVE SMOOTH",
"508 42 OFFCURVE",
"423 -175 OFFCURVE",
"201 -175 CURVE SMOOTH"
);
},
{
closed = 1;
nodes = (
"149 206 OFFCURVE",
"190 168 OFFCURVE",
"243 168 CURVE SMOOTH",
"318 168 OFFCURVE",
"391 247 OFFCURVE",
"418 284 CURVE",
"420 388 OFFCURVE",
"386 512 OFFCURVE",
"291 512 CURVE SMOOTH",
"202 512 OFFCURVE",
"149 429 OFFCURVE",
"149 311 CURVE SMOOTH"
);
}
);
};
hints = (
{
place = "{56, 93}";
},
{
place = "{418, 90}";
},
{
horizontal = 1;
place = "{-175, 57}";
},
{
horizontal = 1;
place = "{103, 65}";
},
{
horizontal = 1;
place = "{512, 56}";
},
{
horizontal = 1;
place = "{-175, 174}";
}
);
layerId = UUID0;
paths = (
{
closed = 1;
nodes = (
"118 -175 OFFCURVE",
"49 -141 OFFCURVE",
"49 -68 CURVE SMOOTH",
"49 -31 OFFCURVE",
"75 -1 OFFCURVE",
"116 -1 CURVE SMOOTH",
"139 -1 OFFCURVE",
"164 -13 OFFCURVE",
"175 -24 CURVE",
"156 -57 LINE SMOOTH",
"138 -92 OFFCURVE",
"158 -118 OFFCURVE",
"210 -118 CURVE SMOOTH",
"349 -118 OFFCURVE",
"410 46 OFFCURVE",
"422 209 CURVE",
"418 212 LINE",
"375 167 OFFCURVE",
"311 103 OFFCURVE",
"222 103 CURVE SMOOTH",
"128 103 OFFCURVE",
"56 165 OFFCURVE",
"56 298 CURVE SMOOTH",
"56 460 OFFCURVE",
"158 568 OFFCURVE",
"293 568 CURVE SMOOTH",
"458 568 OFFCURVE",
"508 426 OFFCURVE",
"508 280 CURVE SMOOTH",
"508 42 OFFCURVE",
"423 -175 OFFCURVE",
"201 -175 CURVE SMOOTH"
);
},
{
closed = 1;
nodes = (
"149 206 OFFCURVE",
"190 168 OFFCURVE",
"243 168 CURVE SMOOTH",
"318 168 OFFCURVE",
"391 247 OFFCURVE",
"418 284 CURVE",
"420 388 OFFCURVE",
"386 512 OFFCURVE",
"291 512 CURVE SMOOTH",
"202 512 OFFCURVE",
"149 429 OFFCURVE",
"149 311 CURVE SMOOTH"
);
}
);
width = 567;
},
{
background = {
paths = (
{
closed = 1;
nodes = (
"115 -175 OFFCURVE",
"39 -138 OFFCURVE",
"39 -57 CURVE SMOOTH",
"39 -18 OFFCURVE",
"67 15 OFFCURVE",
"109 15 CURVE SMOOTH",
"138 15 OFFCURVE",
"171 -2 OFFCURVE",
"182 -13 CURVE",
"163 -50 LINE SMOOTH",
"145 -85 OFFCURVE",
"160 -110 OFFCURVE",
"207 -110 CURVE SMOOTH",
"328 -110 OFFCURVE",
"389 38 OFFCURVE",
"404 191 CURVE",
"400 194 LINE",
"369 156 OFFCURVE",
"308 98 OFFCURVE",
"213 98 CURVE SMOOTH",
"112 98 OFFCURVE",
"41 162 OFFCURVE",
"41 295 CURVE SMOOTH",
"41 459 OFFCURVE",
"147 568 OFFCURVE",
"295 568 CURVE SMOOTH",
"478 568 OFFCURVE",
"533 423 OFFCURVE",
"533 277 CURVE SMOOTH",
"533 39 OFFCURVE",
"418 -175 OFFCURVE",
"198 -175 CURVE SMOOTH"
);
},
{
closed = 1;
nodes = (
"174 208 OFFCURVE",
"204 173 OFFCURVE",
"250 173 CURVE SMOOTH",
"313 173 OFFCURVE",
"376 239 OFFCURVE",
"403 276 CURVE",
"406 378 OFFCURVE",
"386 504 OFFCURVE",
"293 504 CURVE SMOOTH",
"213 504 OFFCURVE",
"174 434 OFFCURVE",
"174 308 CURVE SMOOTH"
);
}
);
};
hints = (
{
place = "{41, 133}";
},
{
place = "{403, 130}";
},
{
horizontal = 1;
place = "{-175, 65}";
},
{
horizontal = 1;
place = "{98, 75}";
},
{
horizontal = 1;
place = "{504, 64}";
},
{
horizontal = 1;
place = "{-175, 190}";
}
);
layerId = "D537FF15-C70F-4B12-AACC-84E5BB5FCF97";
paths = (
{
closed = 1;
nodes = (
"115 -175 OFFCURVE",
"39 -138 OFFCURVE",
"39 -57 CURVE SMOOTH",
"39 -18 OFFCURVE",
"67 15 OFFCURVE",
"109 15 CURVE SMOOTH",
"138 15 OFFCURVE",
"171 -2 OFFCURVE",
"182 -13 CURVE",
"163 -50 LINE SMOOTH",
"145 -85 OFFCURVE",
"160 -110 OFFCURVE",
"207 -110 CURVE SMOOTH",
"328 -110 OFFCURVE",
"389 38 OFFCURVE",
"404 191 CURVE",
"400 194 LINE",
"369 156 OFFCURVE",
"308 98 OFFCURVE",
"213 98 CURVE SMOOTH",
"112 98 OFFCURVE",
"41 162 OFFCURVE",
"41 295 CURVE SMOOTH",
"41 459 OFFCURVE",
"147 568 OFFCURVE",
"295 568 CURVE SMOOTH",
"478 568 OFFCURVE",
"533 423 OFFCURVE",
"533 277 CURVE SMOOTH",
"533 39 OFFCURVE",
"418 -175 OFFCURVE",
"198 -175 CURVE SMOOTH"
);
},
{
closed = 1;
nodes = (
"174 208 OFFCURVE",
"204 173 OFFCURVE",
"250 173 CURVE SMOOTH",
"313 173 OFFCURVE",
"376 239 OFFCURVE",
"403 276 CURVE",
"406 378 OFFCURVE",
"386 504 OFFCURVE",
"293 504 CURVE SMOOTH",
"213 504 OFFCURVE",
"174 434 OFFCURVE",
"174 308 CURVE SMOOTH"
);
}
);
width = 567;
}
);
unicode = 0039;
},
{
glyphname = colon;
lastChange = "2016-06-05 15:24:03 +0000";
layers = (
{
background = {
paths = (
{
closed = 1;
nodes = (
"85 7 OFFCURVE",
"116 -17 OFFCURVE",
"160 -17 CURVE SMOOTH",
"206 -17 OFFCURVE",
"242 11 OFFCURVE",
"242 59 CURVE SMOOTH",
"242 100 OFFCURVE",
"211 128 OFFCURVE",
"165 128 CURVE SMOOTH",
"117 128 OFFCURVE",
"85 95 OFFCURVE",
"85 50 CURVE SMOOTH"
);
},
{
closed = 1;
nodes = (
"102 398 OFFCURVE",
"133 374 OFFCURVE",
"177 374 CURVE SMOOTH",
"223 374 OFFCURVE",
"259 402 OFFCURVE",
"259 450 CURVE SMOOTH",
"259 491 OFFCURVE",
"228 519 OFFCURVE",
"182 519 CURVE SMOOTH",
"134 519 OFFCURVE",
"102 486 OFFCURVE",
"102 441 CURVE SMOOTH"
);
}
);
};
components = (
{
name = period;
},
{
name = period;
transform = "{1, 0, 0, 1, 17, 391}";
}
);
hints = (
{
place = "{84, 154}";
},
{
place = "{84, 154}";
},
{
horizontal = 1;
place = "{-11, 151}";
},
{
horizontal = 1;
place = "{370, 151}";
}
);
layerId = UUID0;
width = 319;
},
{
background = {
paths = (
{
closed = 1;
nodes = (
"60 12 OFFCURVE",
"96 -15 OFFCURVE",
"150 -15 CURVE SMOOTH",
"204 -15 OFFCURVE",
"246 13 OFFCURVE",
"246 66 CURVE SMOOTH",
"246 116 OFFCURVE",
"210 150 OFFCURVE",
"156 150 CURVE SMOOTH",
"102 150 OFFCURVE",
"60 116 OFFCURVE",
"60 65 CURVE SMOOTH"
);
},
{
closed = 1;
nodes = (
"77 403 OFFCURVE",
"113 376 OFFCURVE",
"167 376 CURVE SMOOTH",
"221 376 OFFCURVE",
"263 404 OFFCURVE",
"263 457 CURVE SMOOTH",
"263 507 OFFCURVE",
"227 541 OFFCURVE",
"173 541 CURVE SMOOTH",
"119 541 OFFCURVE",
"77 507 OFFCURVE",
"77 456 CURVE SMOOTH"
);
}
);
};
components = (
{
name = period;
transform = "{1, 0, 0, 1, -2, 0}";
},
{
name = period;
transform = "{1, 0, 0, 1, 15, 391}";
}
);
hints = (
{
place = "{74, 154}";
},
{
place = "{74, 154}";
},
{
horizontal = 1;
place = "{-11, 151}";
},
{
horizontal = 1;
place = "{370, 151}";
}
);
layerId = "D537FF15-C70F-4B12-AACC-84E5BB5FCF97";
width = 296;
}
);
leftKerningGroup = colon;
rightKerningGroup = colon;
unicode = 003A;
},
{
glyphname = semicolon;
lastChange = "2016-06-05 15:24:03 +0000";
layers = (
{
background = {
paths = (
{
closed = 1;
nodes = (
"102 398 OFFCURVE",
"133 374 OFFCURVE",
"177 374 CURVE SMOOTH",
"223 374 OFFCURVE",
"259 402 OFFCURVE",
"259 450 CURVE SMOOTH",
"259 491 OFFCURVE",
"228 519 OFFCURVE",
"182 519 CURVE SMOOTH",
"134 519 OFFCURVE",
"102 486 OFFCURVE",
"102 441 CURVE SMOOTH"
);
},
{
closed = 1;
nodes = (
"72 -131 LINE",
"104 -107 OFFCURVE",
"154 -61 OFFCURVE",
"154 -27 CURVE SMOOTH",
"154 -16 OFFCURVE",
"149 -5 OFFCURVE",
"132 1 CURVE SMOOTH",
"94 14 LINE",
"76 59 OFFCURVE",
"92 121 OFFCURVE",
"159 121 CURVE SMOOTH",
"214 121 OFFCURVE",
"237 77 OFFCURVE",
"237 31 CURVE SMOOTH",
"237 -28 OFFCURVE",
"191 -108 OFFCURVE",
"100 -168 CURVE"
);
}
);
};
components = (
{
name = period;
transform = "{1, 0, 0, 1, 17, 391}";
},
{
name = comma;
transform = "{1, 0, 0, 1, -9, 0}";
}
);
hints = (
{
place = "{88, 159}";
},
{
place = "{84, 154}";
},
{
horizontal = 1;
place = "{0, 129}";
},
{
horizontal = 1;
place = "{-168, 21}";
target = up;
type = BottomGhost;
},
{
horizontal = 1;
place = "{370, 151}";
}
);
layerId = UUID0;
width = 328;
},
{
background = {
paths = (
{
closed = 1;
nodes = (
"76 403 OFFCURVE",
"112 376 OFFCURVE",
"166 376 CURVE SMOOTH",
"220 376 OFFCURVE",
"262 404 OFFCURVE",
"262 457 CURVE SMOOTH",
"262 507 OFFCURVE",
"226 541 OFFCURVE",
"172 541 CURVE SMOOTH",
"118 541 OFFCURVE",
"76 507 OFFCURVE",
"76 456 CURVE SMOOTH"
);
},
{
closed = 1;
nodes = (
"36 -119 LINE",
"74 -93 OFFCURVE",
"129 -52 OFFCURVE",
"129 -14 CURVE SMOOTH",
"129 -2 OFFCURVE",
"123 10 OFFCURVE",
"103 16 CURVE SMOOTH",
"66 29 LINE",
"49 72 OFFCURVE",
"66 149 OFFCURVE",
"145 149 CURVE SMOOTH",
"210 149 OFFCURVE",
"239 102 OFFCURVE",
"239 51 CURVE SMOOTH",
"239 -13 OFFCURVE",
"183 -102 OFFCURVE",
"75 -168 CURVE"
);
}
);
};
components = (
{
name = period;
transform = "{1, 0, 0, 1, 14, 391}";
},
{
name = comma;
}
);
hints = (
{
place = "{77, 159}";
},
{
place = "{73, 154}";
},
{
horizontal = 1;
place = "{0, 129}";
},
{
horizontal = 1;
place = "{-168, 21}";
target = up;
type = BottomGhost;
},
{
horizontal = 1;
place = "{370, 151}";
}
);
layerId = "D537FF15-C70F-4B12-AACC-84E5BB5FCF97";
width = 292;
}
);
leftKerningGroup = colon;
rightKerningGroup = colon;
unicode = 003B;
},
{
glyphname = less;
lastChange = "2016-06-05 15:24:03 +0000";
layers = (
{
background = {
paths = (
{
closed = 1;
nodes = (
"80 305 LINE",
"79 263 LINE",
"449 37 LINE",
"481 91 LINE",
"157 285 LINE",
"494 480 LINE",
"466 532 LINE"
);
}
);
};
hints = (
{
horizontal = 1;
place = "{37, 21}";
target = up;
type = BottomGhost;
},
{
horizontal = 1;
place = "{532, -20}";
target = down;
type = TopGhost;
}
);
layerId = UUID0;
paths = (
{
closed = 1;
nodes = (
"80 305 LINE",
"79 263 LINE",
"449 37 LINE",
"481 91 LINE",
"157 285 LINE",
"494 480 LINE",
"466 532 LINE"
);
}
);
width = 582;
},
{
background = {
paths = (
{
closed = 1;
nodes = (
"69 322 LINE",
"66 260 LINE",
"442 38 LINE",
"489 117 LINE",
"174 294 LINE",
"496 466 LINE",
"457 542 LINE"
);
}
);
};
hints = (
{
horizontal = 1;
place = "{38, 21}";
target = up;
type = BottomGhost;
},
{
horizontal = 1;
place = "{542, -20}";
target = down;
type = TopGhost;
}
);
layerId = "D537FF15-C70F-4B12-AACC-84E5BB5FCF97";
paths = (
{
closed = 1;
nodes = (
"69 322 LINE",
"66 260 LINE",
"442 38 LINE",
"489 117 LINE",
"174 294 LINE",
"496 466 LINE",
"457 542 LINE"
);
}
);
width = 582;
}
);
unicode = 003C;
},
{
glyphname = equal;
lastChange = "2016-06-05 15:24:03 +0000";
layers = (
{
background = {
paths = (
{
closed = 1;
nodes = (
"517 362 LINE",
"519 425 LINE",
"91 425 LINE",
"89 362 LINE"
);
},
{
closed = 1;
nodes = (
"511 182 LINE",
"513 245 LINE",
"85 245 LINE",
"83 182 LINE"
);
}
);
};
hints = (
{
horizontal = 1;
place = "{182, 63}";
},
{
horizontal = 1;
place = "{362, 63}";
}
);
layerId = UUID0;
paths = (
{
closed = 1;
nodes = (
"517 362 LINE",
"519 425 LINE",
"91 425 LINE",
"89 362 LINE"
);
},
{
closed = 1;
nodes = (
"511 182 LINE",
"513 245 LINE",
"85 245 LINE",
"83 182 LINE"
);
}
);
width = 582;
},
{
background = {
paths = (
{
closed = 1;
nodes = (
"519 170 LINE",
"523 259 LINE",
"77 259 LINE",
"73 170 LINE"
);
},
{
closed = 1;
nodes = (
"528 356 LINE",
"532 445 LINE",
"86 445 LINE",
"82 356 LINE"
);
}
);
};
hints = (
{
horizontal = 1;
place = "{170, 89}";
},
{
horizontal = 1;
place = "{356, 89}";
}
);
layerId = "D537FF15-C70F-4B12-AACC-84E5BB5FCF97";
paths = (
{
closed = 1;
nodes = (
"519 170 LINE",
"523 259 LINE",
"77 259 LINE",
"73 170 LINE"
);
},
{
closed = 1;
nodes = (
"528 356 LINE",
"532 445 LINE",
"86 445 LINE",
"82 356 LINE"
);
}
);
width = 582;
}
);
unicode = 003D;
},
{
glyphname = greater;
lastChange = "2016-06-05 15:24:03 +0000";
layers = (
{
background = {
paths = (
{
closed = 1;
nodes = (
"522 305 LINE",
"521 263 LINE",
"135 37 LINE",
"107 91 LINE",
"443 285 LINE",
"120 480 LINE",
"152 532 LINE"
);
}
);
};
hints = (
{
horizontal = 1;
place = "{532, -20}";
target = down;
type = TopGhost;
},
{
horizontal = 1;
place = "{37, 21}";
target = up;
type = BottomGhost;
}
);
layerId = UUID0;
paths = (
{
closed = 1;
nodes = (
"522 305 LINE",
"521 263 LINE",
"135 37 LINE",
"107 91 LINE",
"443 285 LINE",
"120 480 LINE",
"152 532 LINE"
);
}
);
width = 582;
},
{
background = {
paths = (
{
closed = 1;
nodes = (
"537 258 LINE",
"540 320 LINE",
"164 542 LINE",
"117 467 LINE",
"432 290 LINE",
"110 114 LINE",
"149 38 LINE"
);
}
);
};
hints = (
{
horizontal = 1;
place = "{542, -20}";
target = down;
type = TopGhost;
},
{
horizontal = 1;
place = "{38, 21}";
target = up;
type = BottomGhost;
}
);
layerId = "D537FF15-C70F-4B12-AACC-84E5BB5FCF97";
paths = (
{
closed = 1;
nodes = (
"537 258 LINE",
"540 320 LINE",
"164 542 LINE",
"117 467 LINE",
"432 290 LINE",
"110 114 LINE",
"149 38 LINE"
);
}
);
width = 582;
}
);
unicode = 003E;
},
{
glyphname = question;
lastChange = "2016-06-05 15:24:03 +0000";
layers = (
{
background = {
paths = (
{
closed = 1;
nodes = (
"216 194 LINE",
"279 194 LINE",
"252 319 LINE",
"396 365 OFFCURVE",
"458 449 OFFCURVE",
"458 547 CURVE SMOOTH",
"458 662 OFFCURVE",
"372 715 OFFCURVE",
"267 715 CURVE SMOOTH",
"174 715 OFFCURVE",
"67 662 OFFCURVE",
"67 571 CURVE SMOOTH",
"67 533 OFFCURVE",
"90 510 OFFCURVE",
"128 510 CURVE SMOOTH",
"156 510 OFFCURVE",
"180 528 OFFCURVE",
"190 552 CURVE",
"169 576 LINE SMOOTH",
"131 619 OFFCURVE",
"169 663 OFFCURVE",
"252 663 CURVE SMOOTH",
"329 663 OFFCURVE",
"371 620 OFFCURVE",
"371 552 CURVE SMOOTH",
"371 474 OFFCURVE",
"309 410 OFFCURVE",
"178 382 CURVE"
);
},
{
closed = 1;
nodes = (
"176 9 OFFCURVE",
"203 -14 OFFCURVE",
"244 -14 CURVE SMOOTH",
"285 -14 OFFCURVE",
"317 10 OFFCURVE",
"317 51 CURVE SMOOTH",
"317 92 OFFCURVE",
"290 119 OFFCURVE",
"249 119 CURVE SMOOTH",
"208 119 OFFCURVE",
"176 92 OFFCURVE",
"176 50 CURVE SMOOTH"
);
}
);
};
hints = (
{
place = "{176, 141}";
},
{
place = "{371, 87}";
},
{
horizontal = 1;
place = "{-14, 133}";
},
{
horizontal = 1;
place = "{510, 205}";
},
{
horizontal = 1;
place = "{663, 52}";
}
);
layerId = UUID0;
paths = (
{
closed = 1;
nodes = (
"216 194 LINE",
"279 194 LINE",
"252 319 LINE",
"396 365 OFFCURVE",
"458 449 OFFCURVE",
"458 547 CURVE SMOOTH",
"458 662 OFFCURVE",
"372 715 OFFCURVE",
"267 715 CURVE SMOOTH",
"174 715 OFFCURVE",
"67 662 OFFCURVE",
"67 571 CURVE SMOOTH",
"67 533 OFFCURVE",
"90 510 OFFCURVE",
"128 510 CURVE SMOOTH",
"156 510 OFFCURVE",
"180 528 OFFCURVE",
"190 552 CURVE",
"169 576 LINE SMOOTH",
"131 619 OFFCURVE",
"169 663 OFFCURVE",
"252 663 CURVE SMOOTH",
"329 663 OFFCURVE",
"371 620 OFFCURVE",
"371 552 CURVE SMOOTH",
"371 474 OFFCURVE",
"309 410 OFFCURVE",
"178 382 CURVE"
);
},
{
closed = 1;
nodes = (
"176 9 OFFCURVE",
"203 -14 OFFCURVE",
"244 -14 CURVE SMOOTH",
"285 -14 OFFCURVE",
"317 10 OFFCURVE",
"317 51 CURVE SMOOTH",
"317 92 OFFCURVE",
"290 119 OFFCURVE",
"249 119 CURVE SMOOTH",
"208 119 OFFCURVE",
"176 92 OFFCURVE",
"176 50 CURVE SMOOTH"
);
}
);
width = 512;
},
{
background = {
paths = (
{
closed = 1;
nodes = (
"224 194 LINE",
"307 194 LINE",
"283 311 LINE",
"430 358 OFFCURVE",
"486 449 OFFCURVE",
"486 540 CURVE SMOOTH",
"486 662 OFFCURVE",
"398 715 OFFCURVE",
"275 715 CURVE SMOOTH",
"174 715 OFFCURVE",
"70 662 OFFCURVE",
"70 571 CURVE SMOOTH",
"70 533 OFFCURVE",
"94 506 OFFCURVE",
"138 506 CURVE SMOOTH",
"173 506 OFFCURVE",
"197 527 OFFCURVE",
"206 555 CURVE",
"185 579 LINE SMOOTH",
"147 622 OFFCURVE",
"177 655 OFFCURVE",
"250 655 CURVE SMOOTH",
"321 655 OFFCURVE",
"359 620 OFFCURVE",
"359 552 CURVE SMOOTH",
"359 474 OFFCURVE",
"303 420 OFFCURVE",
"184 390 CURVE"
);
},
{
closed = 1;
nodes = (
"175 11 OFFCURVE",
"209 -15 OFFCURVE",
"261 -15 CURVE SMOOTH",
"313 -15 OFFCURVE",
"353 12 OFFCURVE",
"353 62 CURVE SMOOTH",
"353 110 OFFCURVE",
"319 142 OFFCURVE",
"267 142 CURVE SMOOTH",
"215 142 OFFCURVE",
"175 110 OFFCURVE",
"175 61 CURVE SMOOTH"
);
}
);
};
hints = (
{
place = "{175, 178}";
},
{
place = "{359, 127}";
},
{
horizontal = 1;
place = "{-15, 157}";
},
{
horizontal = 1;
place = "{655, 60}";
}
);
layerId = "D537FF15-C70F-4B12-AACC-84E5BB5FCF97";
paths = (
{
closed = 1;
nodes = (
"224 194 LINE",
"307 194 LINE",
"283 311 LINE",
"430 358 OFFCURVE",
"486 449 OFFCURVE",
"486 540 CURVE SMOOTH",
"486 662 OFFCURVE",
"398 715 OFFCURVE",
"275 715 CURVE SMOOTH",
"174 715 OFFCURVE",
"70 662 OFFCURVE",
"70 571 CURVE SMOOTH",
"70 533 OFFCURVE",
"94 506 OFFCURVE",
"138 506 CURVE SMOOTH",
"173 506 OFFCURVE",
"197 527 OFFCURVE",
"206 555 CURVE",
"185 579 LINE SMOOTH",
"147 622 OFFCURVE",
"177 655 OFFCURVE",
"250 655 CURVE SMOOTH",
"321 655 OFFCURVE",
"359 620 OFFCURVE",
"359 552 CURVE SMOOTH",
"359 474 OFFCURVE",
"303 420 OFFCURVE",
"184 390 CURVE"
);
},
{
closed = 1;
nodes = (
"175 11 OFFCURVE",
"209 -15 OFFCURVE",
"261 -15 CURVE SMOOTH",
"313 -15 OFFCURVE",
"353 12 OFFCURVE",
"353 62 CURVE SMOOTH",
"353 110 OFFCURVE",
"319 142 OFFCURVE",
"267 142 CURVE SMOOTH",
"215 142 OFFCURVE",
"175 110 OFFCURVE",
"175 61 CURVE SMOOTH"
);
}
);
width = 520;
}
);
unicode = 003F;
},
{
glyphname = at;
lastChange = "2016-06-05 16:14:38 +0000";
layers = (
{
background = {
paths = (
{
closed = 1;
nodes = (
"335 395 OFFCURVE",
"242 323 OFFCURVE",
"242 147 CURVE SMOOTH",
"242 56 OFFCURVE",
"277 -11 OFFCURVE",
"375 -11 CURVE SMOOTH",
"435 -11 OFFCURVE",
"484 39 OFFCURVE",
"512 137 CURVE SMOOTH",
"533 210 LINE",
"537 210 LINE",
"531 83 LINE SMOOTH",
"528 24 OFFCURVE",
"535 -11 OFFCURVE",
"605 -11 CURVE SMOOTH",
"711 -11 OFFCURVE",
"806 67 OFFCURVE",
"806 244 CURVE SMOOTH",
"806 461 OFFCURVE",
"666 568 OFFCURVE",
"451 568 CURVE SMOOTH",
"207 568 OFFCURVE",
"65 401 OFFCURVE",
"65 184 CURVE SMOOTH",
"65 -75 OFFCURVE",
"236 -183 OFFCURVE",
"421 -183 CURVE SMOOTH",
"522 -183 OFFCURVE",
"604 -153 OFFCURVE",
"664 -95 CURVE",
"632 -56 LINE",
"579 -99 OFFCURVE",
"521 -128 OFFCURVE",
"425 -128 CURVE SMOOTH",
"294 -128 OFFCURVE",
"130 -55 OFFCURVE",
"130 186 CURVE SMOOTH",
"130 398 OFFCURVE",
"271 514 OFFCURVE",
"451 514 CURVE SMOOTH",
"652 514 OFFCURVE",
"745 409 OFFCURVE",
"745 237 CURVE SMOOTH",
"745 112 OFFCURVE",
"690 44 OFFCURVE",
"630 44 CURVE SMOOTH",
"594 44 OFFCURVE",
"595 58 OFFCURVE",
"596 101 CURVE SMOOTH",
"606 388 LINE",
"592 394 LINE",
"540 372 LINE",
"513 387 OFFCURVE",
"476 395 OFFCURVE",
"436 395 CURVE SMOOTH"
);
},
{
closed = 1;
nodes = (
"496 223 LINE SMOOTH",
"468 130 OFFCURVE",
"438 52 OFFCURVE",
"384 52 CURVE SMOOTH",
"337 52 OFFCURVE",
"322 92 OFFCURVE",
"322 153 CURVE SMOOTH",
"322 249 OFFCURVE",
"357 347 OFFCURVE",
"446 347 CURVE SMOOTH",
"474 347 OFFCURVE",
"506 340 OFFCURVE",
"528 330 CURVE"
);
}
);
};
hints = (
{
place = "{65, 65}";
},
{
place = "{242, 80}";
},
{
place = "{534, 67}";
},
{
place = "{745, 61}";
},
{
horizontal = 1;
place = "{-183, 55}";
},
{
horizontal = 1;
place = "{-11, 55}";
},
{
horizontal = 1;
place = "{347, 48}";
},
{
horizontal = 1;
place = "{514, 54}";
}
);
layerId = UUID0;
paths = (
{
closed = 1;
nodes = (
"335 395 OFFCURVE",
"242 323 OFFCURVE",
"242 147 CURVE SMOOTH",
"242 56 OFFCURVE",
"277 -11 OFFCURVE",
"375 -11 CURVE SMOOTH",
"435 -11 OFFCURVE",
"484 39 OFFCURVE",
"512 137 CURVE SMOOTH",
"533 210 LINE",
"537 210 LINE",
"531 83 LINE SMOOTH",
"528 24 OFFCURVE",
"535 -11 OFFCURVE",
"605 -11 CURVE SMOOTH",
"711 -11 OFFCURVE",
"806 67 OFFCURVE",
"806 244 CURVE SMOOTH",
"806 461 OFFCURVE",
"666 568 OFFCURVE",
"451 568 CURVE SMOOTH",
"207 568 OFFCURVE",
"65 401 OFFCURVE",
"65 184 CURVE SMOOTH",
"65 -75 OFFCURVE",
"236 -183 OFFCURVE",
"421 -183 CURVE SMOOTH",
"522 -183 OFFCURVE",
"604 -153 OFFCURVE",
"664 -95 CURVE",
"632 -56 LINE",
"579 -99 OFFCURVE",
"521 -128 OFFCURVE",
"425 -128 CURVE SMOOTH",
"294 -128 OFFCURVE",
"130 -55 OFFCURVE",
"130 186 CURVE SMOOTH",
"130 398 OFFCURVE",
"271 514 OFFCURVE",
"451 514 CURVE SMOOTH",
"652 514 OFFCURVE",
"745 409 OFFCURVE",
"745 237 CURVE SMOOTH",
"745 112 OFFCURVE",
"690 44 OFFCURVE",
"630 44 CURVE SMOOTH",
"594 44 OFFCURVE",
"595 58 OFFCURVE",
"596 101 CURVE SMOOTH",
"606 388 LINE",
"592 394 LINE",
"540 372 LINE",
"513 387 OFFCURVE",
"476 395 OFFCURVE",
"436 395 CURVE SMOOTH"
);
},
{
closed = 1;
nodes = (
"496 223 LINE SMOOTH",
"468 130 OFFCURVE",
"438 52 OFFCURVE",
"384 52 CURVE SMOOTH",
"337 52 OFFCURVE",
"322 92 OFFCURVE",
"322 153 CURVE SMOOTH",
"322 249 OFFCURVE",
"357 347 OFFCURVE",
"446 347 CURVE SMOOTH",
"474 347 OFFCURVE",
"506 340 OFFCURVE",
"528 330 CURVE"
);
}
);
width = 860;
},
{
background = {
paths = (
{
closed = 1;
nodes = (
"341 407 OFFCURVE",
"241 332 OFFCURVE",
"241 147 CURVE SMOOTH",
"241 72 OFFCURVE",
"275 -17 OFFCURVE",
"380 -17 CURVE SMOOTH",
"439 -17 OFFCURVE",
"496 11 OFFCURVE",
"528 124 CURVE SMOOTH",
"541 170 LINE",
"547 169 LINE",
"546 131 OFFCURVE",
"543 101 OFFCURVE",
"543 77 CURVE SMOOTH",
"543 -2 OFFCURVE",
"580 -17 OFFCURVE",
"625 -17 CURVE SMOOTH",
"732 -17 OFFCURVE",
"832 66 OFFCURVE",
"832 244 CURVE SMOOTH",
"832 470 OFFCURVE",
"680 582 OFFCURVE",
"461 582 CURVE SMOOTH",
"213 582 OFFCURVE",
"60 407 OFFCURVE",
"60 169 CURVE SMOOTH",
"60 -84 OFFCURVE",
"243 -197 OFFCURVE",
"432 -197 CURVE SMOOTH",
"533 -197 OFFCURVE",
"620 -162 OFFCURVE",
"686 -96 CURVE",
"647 -46 LINE",
"589 -94 OFFCURVE",
"523 -112 OFFCURVE",
"430 -112 CURVE SMOOTH",
"315 -112 OFFCURVE",
"164 -46 OFFCURVE",
"164 185 CURVE SMOOTH",
"164 391 OFFCURVE",
"293 511 OFFCURVE",
"461 511 CURVE SMOOTH",
"647 511 OFFCURVE",
"734 404 OFFCURVE",
"734 240 CURVE SMOOTH",
"734 123 OFFCURVE",
"701 46 OFFCURVE",
"654 46 CURVE SMOOTH",
"638 46 OFFCURVE",
"627 55 OFFCURVE",
"628 89 CURVE SMOOTH",
"638 391 LINE",
"605 408 LINE",
"552 382 LINE",
"521 400 OFFCURVE",
"484 407 OFFCURVE",
"446 407 CURVE SMOOTH"
);
},
{
closed = 1;
nodes = (
"501 201 LINE SMOOTH",
"470 94 OFFCURVE",
"436 55 OFFCURVE",
"401 55 CURVE SMOOTH",
"360 55 OFFCURVE",
"347 93 OFFCURVE",
"347 150 CURVE SMOOTH",
"347 246 OFFCURVE",
"379 348 OFFCURVE",
"458 348 CURVE SMOOTH",
"480 348 OFFCURVE",
"520 343 OFFCURVE",
"539 331 CURVE"
);
}
);
};
hints = (
{
place = "{60, 104}";
},
{
place = "{241, 106}";
},
{
place = "{543, 90}";
},
{
place = "{734, 98}";
},
{
horizontal = 1;
place = "{-197, 85}";
},
{
horizontal = 1;
place = "{-17, 63}";
},
{
horizontal = 1;
place = "{348, 59}";
},
{
horizontal = 1;
place = "{511, 71}";
}
);
layerId = "D537FF15-C70F-4B12-AACC-84E5BB5FCF97";
paths = (
{
closed = 1;
nodes = (
"341 407 OFFCURVE",
"241 332 OFFCURVE",
"241 147 CURVE SMOOTH",
"241 72 OFFCURVE",
"275 -17 OFFCURVE",
"380 -17 CURVE SMOOTH",
"439 -17 OFFCURVE",
"496 11 OFFCURVE",
"528 124 CURVE SMOOTH",
"541 170 LINE",
"547 169 LINE",
"543 77 LINE",
"543 -2 OFFCURVE",
"580 -17 OFFCURVE",
"625 -17 CURVE SMOOTH",
"732 -17 OFFCURVE",
"832 66 OFFCURVE",
"832 244 CURVE SMOOTH",
"832 470 OFFCURVE",
"680 582 OFFCURVE",
"461 582 CURVE SMOOTH",
"213 582 OFFCURVE",
"60 407 OFFCURVE",
"60 169 CURVE SMOOTH",
"60 -84 OFFCURVE",
"243 -197 OFFCURVE",
"432 -197 CURVE SMOOTH",
"533 -197 OFFCURVE",
"620 -162 OFFCURVE",
"686 -96 CURVE",
"647 -46 LINE",
"589 -94 OFFCURVE",
"523 -112 OFFCURVE",
"430 -112 CURVE SMOOTH",
"315 -112 OFFCURVE",
"164 -46 OFFCURVE",
"164 185 CURVE SMOOTH",
"164 391 OFFCURVE",
"293 511 OFFCURVE",
"461 511 CURVE SMOOTH",
"647 511 OFFCURVE",
"734 404 OFFCURVE",
"734 240 CURVE SMOOTH",
"734 123 OFFCURVE",
"701 46 OFFCURVE",
"654 46 CURVE SMOOTH",
"638 46 OFFCURVE",
"627 55 OFFCURVE",
"628 89 CURVE SMOOTH",
"638 391 LINE",
"605 408 LINE",
"552 382 LINE",
"521 400 OFFCURVE",
"484 407 OFFCURVE",
"446 407 CURVE SMOOTH"
);
},
{
closed = 1;
nodes = (
"501 201 LINE SMOOTH",
"470 94 OFFCURVE",
"436 55 OFFCURVE",
"401 55 CURVE SMOOTH",
"360 55 OFFCURVE",
"347 93 OFFCURVE",
"347 150 CURVE SMOOTH",
"347 246 OFFCURVE",
"379 348 OFFCURVE",
"458 348 CURVE SMOOTH",
"480 348 OFFCURVE",
"520 343 OFFCURVE",
"539 331 CURVE"
);
}
);
width = 867;
}
);
unicode = 0040;
},
{
glyphname = A;
lastChange = "2016-06-16 17:42:16 +0000";
layers = (
{
anchors = (
{
name = bottom;
position = "{331, -30}";
},
{
name = top;
position = "{375, 730}";
}
);
background = {
paths = (
{
closed = 1;
nodes = (
"322 695 LINE",
"93 58 LINE",
"14 46 LINE",
"8 0 LINE",
"242 0 LINE",
"248 46 LINE",
"157 58 LINE",
"217 231 LINE",
"457 231 LINE",
"503 58 LINE",
"422 46 LINE",
"416 0 LINE",
"682 0 LINE",
"688 46 LINE",
"603 57 LINE",
"421 706 LINE"
);
},
{
closed = 1;
nodes = (
"352 619 LINE",
"355 619 LINE",
"442 288 LINE",
"237 288 LINE"
);
}
);
};
hints = (
{
horizontal = 1;
place = "{231, 57}";
},
{
horizontal = 1;
place = "{0, 21}";
target = up;
type = BottomGhost;
},
{
horizontal = 1;
place = "{706, -20}";
target = down;
type = TopGhost;
}
);
layerId = UUID0;
paths = (
{
closed = 1;
nodes = (
"322 695 LINE",
"93 58 LINE",
"14 46 LINE",
"8 0 LINE",
"242 0 LINE",
"248 46 LINE",
"157 58 LINE",
"217 231 LINE",
"457 231 LINE",
"503 58 LINE",
"422 46 LINE",
"416 0 LINE",
"682 0 LINE",
"688 46 LINE",
"603 57 LINE",
"421 706 LINE"
);
},
{
closed = 1;
nodes = (
"352 619 LINE",
"355 619 LINE",
"442 288 LINE",
"237 288 LINE"
);
}
);
width = 691;
},
{
anchors = (
{
name = bottom;
position = "{317, -30}";
},
{
name = top;
position = "{378, 730}";
}
);
background = {
paths = (
{
closed = 1;
nodes = (
"307 695 LINE",
"76 66 LINE",
"10 55 LINE",
"4 0 LINE",
"246 0 LINE",
"252 54 LINE",
"164 66 LINE",
"219 223 LINE",
"441 223 LINE",
"482 66 LINE",
"404 54 LINE",
"398 0 LINE",
"692 0 LINE",
"698 55 LINE",
"626 65 LINE",
"447 710 LINE"
);
},
{
closed = 1;
nodes = (
"349 605 LINE",
"352 605 LINE",
"424 293 LINE",
"241 293 LINE"
);
}
);
};
hints = (
{
horizontal = 1;
place = "{223, 70}";
},
{
horizontal = 1;
place = "{0, 21}";
target = up;
type = BottomGhost;
},
{
horizontal = 1;
place = "{710, -20}";
target = down;
type = TopGhost;
}
);
layerId = "D537FF15-C70F-4B12-AACC-84E5BB5FCF97";
paths = (
{
closed = 1;
nodes = (
"307 695 LINE",
"76 66 LINE",
"10 55 LINE",
"4 0 LINE",
"246 0 LINE",
"252 54 LINE",
"164 66 LINE",
"219 223 LINE",
"441 223 LINE",
"482 66 LINE",
"404 54 LINE",
"398 0 LINE",
"692 0 LINE",
"698 55 LINE",
"626 65 LINE",
"447 710 LINE"
);
},
{
closed = 1;
nodes = (
"349 605 LINE",
"352 605 LINE",
"424 293 LINE",
"241 293 LINE"
);
}
);
width = 694;
}
);
leftKerningGroup = A;
rightKerningGroup = A;
unicode = 0041;
},
{
glyphname = B;
lastChange = "2016-06-16 17:42:16 +0000";
layers = (
{
background = {
paths = (
{
closed = 1;
nodes = (
"562 661 OFFCURVE",
"465 700 OFFCURVE",
"315 700 CURVE SMOOTH",
"88 700 LINE",
"82 654 LINE",
"169 637 LINE",
"144 60 LINE",
"55 44 LINE",
"50 0 LINE",
"284 0 LINE SMOOTH",
"488 0 OFFCURVE",
"590 84 OFFCURVE",
"590 205 CURVE SMOOTH",
"590 294 OFFCURVE",
"532 353 OFFCURVE",
"413 369 CURVE",
"413 374 LINE",
"481 399 OFFCURVE",
"562 456 OFFCURVE",
"562 549 CURVE SMOOTH"
);
},
{
closed = 1;
nodes = (
"288 328 LINE",
"310 332 OFFCURVE",
"323 334 OFFCURVE",
"348 334 CURVE SMOOTH",
"443 334 OFFCURVE",
"493 291 OFFCURVE",
"493 208 CURVE SMOOTH",
"493 115 OFFCURVE",
"438 55 OFFCURVE",
"296 54 CURVE SMOOTH",
"232 54 LINE",
"255 646 LINE",
"306 646 LINE SMOOTH",
"405 646 OFFCURVE",
"465 622 OFFCURVE",
"465 537 CURVE SMOOTH",
"465 439 OFFCURVE",
"392 394 OFFCURVE",
"290 378 CURVE"
);
}
);
};
hints = (
{
place = "{156, 87}";
},
{
place = "{465, 97}";
},
{
place = "{493, 69}";
},
{
place = "{493, 97}";
},
{
horizontal = 1;
place = "{0, 54}";
},
{
horizontal = 1;
place = "{646, 54}";
}
);
layerId = UUID0;
paths = (
{
closed = 1;
nodes = (
"562 661 OFFCURVE",
"465 700 OFFCURVE",
"315 700 CURVE SMOOTH",
"88 700 LINE",
"82 654 LINE",
"169 637 LINE",
"144 60 LINE",
"55 44 LINE",
"50 0 LINE",
"284 0 LINE SMOOTH",
"488 0 OFFCURVE",
"590 84 OFFCURVE",
"590 205 CURVE SMOOTH",
"590 294 OFFCURVE",
"532 353 OFFCURVE",
"413 369 CURVE",
"413 374 LINE",
"481 399 OFFCURVE",
"562 456 OFFCURVE",
"562 549 CURVE SMOOTH"
);
},
{
closed = 1;
nodes = (
"288 328 LINE",
"310 332 OFFCURVE",
"323 334 OFFCURVE",
"348 334 CURVE SMOOTH",
"443 334 OFFCURVE",
"493 291 OFFCURVE",
"493 208 CURVE SMOOTH",
"493 115 OFFCURVE",
"438 55 OFFCURVE",
"296 54 CURVE SMOOTH",
"232 54 LINE",
"255 646 LINE",
"306 646 LINE SMOOTH",
"405 646 OFFCURVE",
"465 622 OFFCURVE",
"465 537 CURVE SMOOTH",
"465 439 OFFCURVE",
"392 394 OFFCURVE",
"290 378 CURVE"
);
}
);
width = 615;
},
{
background = {
paths = (
{
closed = 1;
nodes = (
"574 661 OFFCURVE",
"476 700 OFFCURVE",
"324 700 CURVE SMOOTH",
"67 700 LINE",
"61 644 LINE",
"145 627 LINE",
"120 69 LINE",
"34 54 LINE",
"29 0 LINE",
"283 0 LINE SMOOTH",
"498 0 OFFCURVE",
"602 84 OFFCURVE",
"602 205 CURVE SMOOTH",
"602 294 OFFCURVE",
"545 353 OFFCURVE",
"422 369 CURVE",
"422 374 LINE",
"490 399 OFFCURVE",
"574 456 OFFCURVE",
"574 549 CURVE SMOOTH"
);
},
{
closed = 1;
nodes = (
"301 321 LINE",
"317 323 OFFCURVE",
"332 325 OFFCURVE",
"347 325 CURVE SMOOTH",
"418 325 OFFCURVE",
"468 296 OFFCURVE",
"468 208 CURVE SMOOTH",
"468 115 OFFCURVE",
"403 67 OFFCURVE",
"275 67 CURVE SMOOTH",
"254 67 LINE",
"277 633 LINE",
"299 633 LINE SMOOTH",
"373 633 OFFCURVE",
"441 617 OFFCURVE",
"441 527 CURVE SMOOTH",
"441 442 OFFCURVE",
"388 399 OFFCURVE",
"303 385 CURVE"
);
}
);
};
hints = (
{
place = "{132, 133}";
},
{
place = "{441, 133}";
},
{
place = "{468, 106}";
},
{
place = "{468, 134}";
},
{
horizontal = 1;
place = "{0, 67}";
},
{
horizontal = 1;
place = "{633, 67}";
}
);
layerId = "D537FF15-C70F-4B12-AACC-84E5BB5FCF97";
paths = (
{
closed = 1;
nodes = (
"574 661 OFFCURVE",
"476 700 OFFCURVE",
"324 700 CURVE SMOOTH",
"67 700 LINE",
"61 644 LINE",
"145 627 LINE",
"120 69 LINE",
"34 54 LINE",
"29 0 LINE",
"283 0 LINE SMOOTH",
"498 0 OFFCURVE",
"602 84 OFFCURVE",
"602 205 CURVE SMOOTH",
"602 294 OFFCURVE",
"545 353 OFFCURVE",
"422 369 CURVE",
"422 374 LINE",
"490 399 OFFCURVE",
"574 456 OFFCURVE",
"574 549 CURVE SMOOTH"
);
},
{
closed = 1;
nodes = (
"301 321 LINE",
"317 323 OFFCURVE",
"332 325 OFFCURVE",
"347 325 CURVE SMOOTH",
"418 325 OFFCURVE",
"468 296 OFFCURVE",
"468 208 CURVE SMOOTH",
"468 115 OFFCURVE",
"403 67 OFFCURVE",
"275 67 CURVE SMOOTH",
"254 67 LINE",
"277 633 LINE",
"299 633 LINE SMOOTH",
"373 633 OFFCURVE",
"441 617 OFFCURVE",
"441 527 CURVE SMOOTH",
"441 442 OFFCURVE",
"388 399 OFFCURVE",
"303 385 CURVE"
);
}
);
width = 620;
}
);
leftKerningGroup = H;
unicode = 0042;
},
{
glyphname = C;
lastChange = "2016-06-16 17:42:16 +0000";
layers = (
{
anchors = (
{
name = bottom;
position = "{349, -30}";
},
{
name = top;
position = "{376, 730}";
}
);
background = {
paths = (
{
closed = 1;
nodes = (
"477 537 LINE",
"493 521 OFFCURVE",
"518 507 OFFCURVE",
"549 507 CURVE SMOOTH",
"578 507 OFFCURVE",
"604 528 OFFCURVE",
"604 566 CURVE SMOOTH",
"604 662 OFFCURVE",
"487 715 OFFCURVE",
"384 715 CURVE SMOOTH",
"210 715 OFFCURVE",
"66 585 OFFCURVE",
"66 325 CURVE SMOOTH",
"66 174 OFFCURVE",
"131 -14 OFFCURVE",
"349 -14 CURVE SMOOTH",
"472 -14 OFFCURVE",
"546 61 OFFCURVE",
"594 128 CURVE",
"555 168 LINE",
"502 105 OFFCURVE",
"443 55 OFFCURVE",
"359 55 CURVE SMOOTH",
"219 55 OFFCURVE",
"160 192 OFFCURVE",
"160 334 CURVE SMOOTH",
"160 542 OFFCURVE",
"242 652 OFFCURVE",
"380 652 CURVE SMOOTH",
"447 652 OFFCURVE",
"521 626 OFFCURVE",
"494 571 CURVE SMOOTH"
);
}
);
};
hints = (
{
place = "{66, 94}";
},
{
horizontal = 1;
place = "{-14, 69}";
},
{
horizontal = 1;
place = "{507, 208}";
},
{
horizontal = 1;
place = "{652, 63}";
}
);
layerId = UUID0;
paths = (
{
closed = 1;
nodes = (
"477 537 LINE",
"493 521 OFFCURVE",
"518 507 OFFCURVE",
"549 507 CURVE SMOOTH",
"578 507 OFFCURVE",
"604 528 OFFCURVE",
"604 566 CURVE SMOOTH",
"604 662 OFFCURVE",
"487 715 OFFCURVE",
"384 715 CURVE SMOOTH",
"210 715 OFFCURVE",
"66 585 OFFCURVE",
"66 325 CURVE SMOOTH",
"66 174 OFFCURVE",
"131 -14 OFFCURVE",
"349 -14 CURVE SMOOTH",
"472 -14 OFFCURVE",
"546 61 OFFCURVE",
"594 128 CURVE",
"555 168 LINE",
"502 105 OFFCURVE",
"443 55 OFFCURVE",
"359 55 CURVE SMOOTH",
"219 55 OFFCURVE",
"160 192 OFFCURVE",
"160 334 CURVE SMOOTH",
"160 542 OFFCURVE",
"242 652 OFFCURVE",
"380 652 CURVE SMOOTH",
"447 652 OFFCURVE",
"521 626 OFFCURVE",
"494 571 CURVE SMOOTH"
);
}
);
width = 629;
},
{
anchors = (
{
name = bottom;
position = "{349, -30}";
},
{
name = top;
position = "{384, 730}";
}
);
background = {
paths = (
{
closed = 1;
nodes = (
"460 515 LINE",
"478 496 OFFCURVE",
"510 479 OFFCURVE",
"545 479 CURVE SMOOTH",
"578 479 OFFCURVE",
"614 503 OFFCURVE",
"614 547 CURVE SMOOTH",
"614 665 OFFCURVE",
"496 715 OFFCURVE",
"388 715 CURVE SMOOTH",
"211 715 OFFCURVE",
"52 603 OFFCURVE",
"52 320 CURVE SMOOTH",
"52 149 OFFCURVE",
"126 -14 OFFCURVE",
"353 -14 CURVE SMOOTH",
"478 -14 OFFCURVE",
"556 60 OFFCURVE",
"604 127 CURVE",
"552 178 LINE",
"499 117 OFFCURVE",
"446 76 OFFCURVE",
"365 76 CURVE SMOOTH",
"225 76 OFFCURVE",
"193 210 OFFCURVE",
"193 331 CURVE SMOOTH",
"193 518 OFFCURVE",
"255 641 OFFCURVE",
"389 641 CURVE SMOOTH",
"456 641 OFFCURVE",
"508 614 OFFCURVE",
"477 550 CURVE SMOOTH"
);
}
);
};
hints = (
{
place = "{52, 141}";
},
{
horizontal = 1;
place = "{-14, 90}";
},
{
horizontal = 1;
place = "{641, 74}";
}
);
layerId = "D537FF15-C70F-4B12-AACC-84E5BB5FCF97";
paths = (
{
closed = 1;
nodes = (
"460 515 LINE",
"478 496 OFFCURVE",
"510 479 OFFCURVE",
"545 479 CURVE SMOOTH",
"578 479 OFFCURVE",
"614 503 OFFCURVE",
"614 547 CURVE SMOOTH",
"614 665 OFFCURVE",
"496 715 OFFCURVE",
"388 715 CURVE SMOOTH",
"211 715 OFFCURVE",
"52 603 OFFCURVE",
"52 320 CURVE SMOOTH",
"52 149 OFFCURVE",
"126 -14 OFFCURVE",
"353 -14 CURVE SMOOTH",
"478 -14 OFFCURVE",
"556 60 OFFCURVE",
"604 127 CURVE",
"552 178 LINE",
"499 117 OFFCURVE",
"446 76 OFFCURVE",
"365 76 CURVE SMOOTH",
"225 76 OFFCURVE",
"193 210 OFFCURVE",
"193 331 CURVE SMOOTH",
"193 518 OFFCURVE",
"255 641 OFFCURVE",
"389 641 CURVE SMOOTH",
"456 641 OFFCURVE",
"508 614 OFFCURVE",
"477 550 CURVE SMOOTH"
);
}
);
width = 633;
}
);
leftKerningGroup = O;
rightKerningGroup = C;
unicode = 0043;
},
{
glyphname = D;
lastChange = "2016-06-16 17:42:16 +0000";
layers = (
{
anchors = (
{
name = bottom;
position = "{343, -30}";
},
{
name = top;
position = "{363, 730}";
}
);
background = {
paths = (
{
closed = 1;
nodes = (
"268 0 LINE SMOOTH",
"446 0 OFFCURVE",
"693 60 OFFCURVE",
"693 392 CURVE SMOOTH",
"693 616 OFFCURVE",
"540 700 OFFCURVE",
"355 700 CURVE SMOOTH",
"88 700 LINE",
"82 654 LINE",
"169 637 LINE",
"144 60 LINE",
"55 45 LINE",
"50 0 LINE"
);
},
{
closed = 1;
nodes = (
"255 646 LINE",
"344 646 LINE SMOOTH",
"468 646 OFFCURVE",
"596 588 OFFCURVE",
"596 383 CURVE SMOOTH",
"596 101 OFFCURVE",
"406 55 OFFCURVE",
"260 55 CURVE SMOOTH",
"232 55 LINE"
);
}
);
};
hints = (
{
place = "{156, 87}";
},
{
place = "{596, 97}";
},
{
horizontal = 1;
place = "{0, 55}";
},
{
horizontal = 1;
place = "{646, 54}";
}
);
layerId = UUID0;
paths = (
{
closed = 1;
nodes = (
"268 0 LINE SMOOTH",
"446 0 OFFCURVE",
"693 60 OFFCURVE",
"693 392 CURVE SMOOTH",
"693 616 OFFCURVE",
"540 700 OFFCURVE",
"355 700 CURVE SMOOTH",
"88 700 LINE",
"82 654 LINE",
"169 637 LINE",
"144 60 LINE",
"55 45 LINE",
"50 0 LINE"
);
},
{
closed = 1;
nodes = (
"255 646 LINE",
"344 646 LINE SMOOTH",
"468 646 OFFCURVE",
"596 588 OFFCURVE",
"596 383 CURVE SMOOTH",
"596 101 OFFCURVE",
"406 55 OFFCURVE",
"260 55 CURVE SMOOTH",
"232 55 LINE"
);
}
);
width = 730;
},
{
anchors = (
{
name = bottom;
position = "{335, -30}";
},
{
name = top;
position = "{372, 730}";
}
);
background = {
paths = (
{
closed = 1;
nodes = (
"272 0 LINE SMOOTH",
"453 0 OFFCURVE",
"710 60 OFFCURVE",
"710 392 CURVE SMOOTH",
"710 616 OFFCURVE",
"546 700 OFFCURVE",
"359 700 CURVE SMOOTH",
"67 700 LINE",
"61 644 LINE",
"145 627 LINE",
"120 69 LINE",
"34 55 LINE",
"29 0 LINE"
);
},
{
closed = 1;
nodes = (
"278 633 LINE",
"318 633 LINE SMOOTH",
"437 633 OFFCURVE",
"567 588 OFFCURVE",
"567 383 CURVE SMOOTH",
"567 110 OFFCURVE",
"389 70 OFFCURVE",
"269 70 CURVE SMOOTH",
"255 70 LINE"
);
}
);
};
hints = (
{
place = "{132, 134}";
},
{
place = "{567, 143}";
},
{
horizontal = 1;
place = "{0, 70}";
},
{
horizontal = 1;
place = "{633, 67}";
}
);
layerId = "D537FF15-C70F-4B12-AACC-84E5BB5FCF97";
paths = (
{
closed = 1;
nodes = (
"272 0 LINE SMOOTH",
"453 0 OFFCURVE",
"710 60 OFFCURVE",
"710 392 CURVE SMOOTH",
"710 616 OFFCURVE",
"546 700 OFFCURVE",
"359 700 CURVE SMOOTH",
"67 700 LINE",
"61 644 LINE",
"145 627 LINE",
"120 69 LINE",
"34 55 LINE",
"29 0 LINE"
);
},
{
closed = 1;
nodes = (
"278 633 LINE",
"318 633 LINE SMOOTH",
"437 633 OFFCURVE",
"567 588 OFFCURVE",
"567 383 CURVE SMOOTH",
"567 110 OFFCURVE",
"389 70 OFFCURVE",
"269 70 CURVE SMOOTH",
"255 70 LINE"
);
}
);
width = 738;
}
);
leftKerningGroup = H;
rightKerningGroup = D;
unicode = 0044;
},
{
glyphname = E;
lastChange = "2016-06-16 17:42:16 +0000";
layers = (
{
anchors = (
{
name = bottom;
position = "{330, -30}";
},
{
name = top;
position = "{341, 730}";
}
);
background = {
paths = (
{
closed = 1;
nodes = (
"57 0 LINE",
"536 0 LINE",
"560 184 LINE",
"505 184 LINE",
"491 143 LINE SMOOTH",
"469 78 OFFCURVE",
"449 58 OFFCURVE",
"388 58 CURVE SMOOTH",
"231 58 LINE",
"242 328 LINE",
"489 328 LINE",
"494 391 LINE",
"245 391 LINE",
"255 643 LINE",
"394 643 LINE SMOOTH",
"457 643 OFFCURVE",
"471 622 OFFCURVE",
"490 559 CURVE SMOOTH",
"501 523 LINE",
"556 532 LINE",
"542 700 LINE",
"88 700 LINE",
"82 654 LINE",
"168 637 LINE",
"145 59 LINE",
"63 46 LINE"
);
}
);
};
hints = (
{
place = "{156, 80}";
},
{
place = "{156, 94}";
},
{
horizontal = 1;
place = "{0, 58}";
},
{
horizontal = 1;
place = "{328, 63}";
},
{
horizontal = 1;
place = "{643, 57}";
}
);
layerId = UUID0;
paths = (
{
closed = 1;
nodes = (
"145 59 LINE",
"63 46 LINE",
"57 0 LINE",
"536 0 LINE",
"560 184 LINE",
"505 184 LINE",
"491 143 LINE SMOOTH",
"469 78 OFFCURVE",
"449 58 OFFCURVE",
"388 58 CURVE SMOOTH",
"231 58 LINE",
"242 328 LINE",
"489 328 LINE",
"494 391 LINE",
"245 391 LINE",
"255 643 LINE",
"394 643 LINE SMOOTH",
"457 643 OFFCURVE",
"471 622 OFFCURVE",
"490 559 CURVE SMOOTH",
"501 523 LINE",
"556 532 LINE",
"542 700 LINE",
"88 700 LINE",
"82 654 LINE",
"168 637 LINE"
);
}
);
width = 600;
},
{
anchors = (
{
name = bottom;
position = "{320, -30}";
},
{
name = top;
position = "{337, 730}";
}
);
background = {
paths = (
{
closed = 1;
nodes = (
"120 70 LINE",
"41 57 LINE",
"35 0 LINE",
"542 0 LINE",
"566 192 LINE",
"498 192 LINE",
"484 151 LINE SMOOTH",
"463 89 OFFCURVE",
"442 71 OFFCURVE",
"381 71 CURVE SMOOTH",
"256 71 LINE",
"267 321 LINE",
"485 321 LINE",
"490 398 LINE",
"270 398 LINE",
"280 630 LINE",
"389 630 LINE SMOOTH",
"452 630 OFFCURVE",
"467 609 OFFCURVE",
"485 551 CURVE SMOOTH",
"496 515 LINE",
"562 524 LINE",
"548 700 LINE",
"67 700 LINE",
"61 644 LINE",
"144 627 LINE"
);
}
);
};
hints = (
{
place = "{132, 129}";
},
{
place = "{132, 143}";
},
{
horizontal = 1;
place = "{0, 71}";
},
{
horizontal = 1;
place = "{321, 77}";
},
{
horizontal = 1;
place = "{630, 70}";
}
);
layerId = "D537FF15-C70F-4B12-AACC-84E5BB5FCF97";
paths = (
{
closed = 1;
nodes = (
"120 70 LINE",
"41 57 LINE",
"35 0 LINE",
"542 0 LINE",
"566 192 LINE",
"498 192 LINE",
"484 151 LINE SMOOTH",
"463 89 OFFCURVE",
"442 71 OFFCURVE",
"381 71 CURVE SMOOTH",
"256 71 LINE",
"267 321 LINE",
"485 321 LINE",
"490 398 LINE",
"270 398 LINE",
"280 630 LINE",
"389 630 LINE SMOOTH",
"452 630 OFFCURVE",
"467 609 OFFCURVE",
"485 551 CURVE SMOOTH",
"496 515 LINE",
"562 524 LINE",
"548 700 LINE",
"67 700 LINE",
"61 644 LINE",
"144 627 LINE"
);
}
);
width = 596;
}
);
leftKerningGroup = H;
rightKerningGroup = E;
unicode = 0045;
},
{
glyphname = F;
lastChange = "2016-06-16 17:42:16 +0000";
layers = (
{
background = {
paths = (
{
closed = 1;
nodes = (
"57 0 LINE",
"352 0 LINE",
"358 46 LINE",
"229 58 LINE",
"241 320 LINE",
"478 320 LINE",
"483 383 LINE",
"244 383 LINE",
"255 643 LINE",
"394 643 LINE SMOOTH",
"462 643 OFFCURVE",
"472 613 OFFCURVE",
"489 562 CURVE SMOOTH",
"502 523 LINE",
"556 533 LINE",
"542 700 LINE",
"88 700 LINE",
"82 654 LINE",
"168 637 LINE",
"145 59 LINE",
"63 46 LINE"
);
}
);
};
hints = (
{
place = "{156, 79}";
},
{
place = "{156, 93}";
},
{
horizontal = 1;
place = "{320, 63}";
},
{
horizontal = 1;
place = "{643, 57}";
},
{
horizontal = 1;
place = "{0, 21}";
target = up;
type = BottomGhost;
}
);
layerId = UUID0;
paths = (
{
closed = 1;
nodes = (
"57 0 LINE",
"352 0 LINE",
"358 46 LINE",
"229 58 LINE",
"241 320 LINE",
"478 320 LINE",
"483 383 LINE",
"244 383 LINE",
"255 643 LINE",
"394 643 LINE SMOOTH",
"462 643 OFFCURVE",
"472 613 OFFCURVE",
"489 562 CURVE SMOOTH",
"502 523 LINE",
"556 533 LINE",
"542 700 LINE",
"88 700 LINE",
"82 654 LINE",
"168 637 LINE",
"145 59 LINE",
"63 46 LINE"
);
}
);
width = 561;
},
{
background = {
paths = (
{
closed = 1;
nodes = (
"32 0 LINE",
"370 0 LINE",
"376 59 LINE",
"249 73 LINE",
"259 318 LINE",
"470 318 LINE",
"475 394 LINE",
"262 394 LINE",
"273 630 LINE",
"386 630 LINE SMOOTH",
"454 630 OFFCURVE",
"465 601 OFFCURVE",
"481 554 CURVE SMOOTH",
"494 515 LINE",
"558 525 LINE",
"544 700 LINE",
"63 700 LINE",
"57 644 LINE",
"143 627 LINE",
"120 69 LINE",
"38 56 LINE"
);
}
);
};
hints = (
{
place = "{131, 123}";
},
{
place = "{131, 136}";
},
{
horizontal = 1;
place = "{318, 76}";
},
{
horizontal = 1;
place = "{630, 70}";
},
{
horizontal = 1;
place = "{0, 21}";
target = up;
type = BottomGhost;
}
);
layerId = "D537FF15-C70F-4B12-AACC-84E5BB5FCF97";
paths = (
{
closed = 1;
nodes = (
"32 0 LINE",
"370 0 LINE",
"376 59 LINE",
"249 73 LINE",
"259 318 LINE",
"470 318 LINE",
"475 394 LINE",
"262 394 LINE",
"273 630 LINE",
"386 630 LINE SMOOTH",
"454 630 OFFCURVE",
"465 601 OFFCURVE",
"481 554 CURVE SMOOTH",
"494 515 LINE",
"558 525 LINE",
"544 700 LINE",
"63 700 LINE",
"57 644 LINE",
"143 627 LINE",
"120 69 LINE",
"38 56 LINE"
);
}
);
width = 561;
}
);
leftKerningGroup = H;
unicode = 0046;
},
{
glyphname = G;
lastChange = "2016-06-16 17:42:16 +0000";
layers = (
{
anchors = (
{
name = bottom;
position = "{349, -30}";
},
{
name = top;
position = "{374, 730}";
}
);
background = {
paths = (
{
closed = 1;
nodes = (
"423 332 LINE",
"417 286 LINE",
"502 266 LINE",
"495 88 LINE",
"466 69 OFFCURVE",
"417 51 OFFCURVE",
"355 51 CURVE SMOOTH",
"216 51 OFFCURVE",
"145 176 OFFCURVE",
"145 333 CURVE SMOOTH",
"145 541 OFFCURVE",
"237 652 OFFCURVE",
"383 652 CURVE SMOOTH",
"455 652 OFFCURVE",
"527 626 OFFCURVE",
"500 571 CURVE SMOOTH",
"483 537 LINE",
"499 521 OFFCURVE",
"524 507 OFFCURVE",
"555 507 CURVE SMOOTH",
"584 507 OFFCURVE",
"610 528 OFFCURVE",
"610 566 CURVE SMOOTH",
"610 662 OFFCURVE",
"494 715 OFFCURVE",
"384 715 CURVE SMOOTH",
"203 715 OFFCURVE",
"51 588 OFFCURVE",
"51 325 CURVE SMOOTH",
"51 158 OFFCURVE",
"132 -14 OFFCURVE",
"351 -14 CURVE SMOOTH",
"437 -14 OFFCURVE",
"528 20 OFFCURVE",
"580 59 CURVE",
"592 332 LINE"
);
}
);
};
hints = (
{
place = "{51, 94}";
},
{
place = "{498, 88}";
},
{
horizontal = 1;
place = "{-14, 65}";
},
{
horizontal = 1;
place = "{507, 208}";
},
{
horizontal = 1;
place = "{652, 63}";
}
);
layerId = UUID0;
paths = (
{
closed = 1;
nodes = (
"423 332 LINE",
"417 286 LINE",
"502 266 LINE",
"495 88 LINE",
"466 69 OFFCURVE",
"417 51 OFFCURVE",
"355 51 CURVE SMOOTH",
"216 51 OFFCURVE",
"145 176 OFFCURVE",
"145 333 CURVE SMOOTH",
"145 541 OFFCURVE",
"237 652 OFFCURVE",
"383 652 CURVE SMOOTH",
"455 652 OFFCURVE",
"527 626 OFFCURVE",
"500 571 CURVE SMOOTH",
"483 537 LINE",
"499 521 OFFCURVE",
"524 507 OFFCURVE",
"555 507 CURVE SMOOTH",
"584 507 OFFCURVE",
"610 528 OFFCURVE",
"610 566 CURVE SMOOTH",
"610 662 OFFCURVE",
"494 715 OFFCURVE",
"384 715 CURVE SMOOTH",
"203 715 OFFCURVE",
"51 588 OFFCURVE",
"51 325 CURVE SMOOTH",
"51 158 OFFCURVE",
"132 -14 OFFCURVE",
"351 -14 CURVE SMOOTH",
"437 -14 OFFCURVE",
"528 20 OFFCURVE",
"580 59 CURVE",
"592 332 LINE"
);
}
);
width = 629;
},
{
anchors = (
{
name = bottom;
position = "{368, -30}";
},
{
name = top;
position = "{399, 730}";
}
);
background = {
paths = (
{
closed = 1;
nodes = (
"417 335 LINE",
"410 274 LINE",
"497 258 LINE",
"490 104 LINE",
"461 85 OFFCURVE",
"431 71 OFFCURVE",
"373 71 CURVE SMOOTH",
"239 71 OFFCURVE",
"193 192 OFFCURVE",
"193 333 CURVE SMOOTH",
"193 541 OFFCURVE",
"267 642 OFFCURVE",
"405 642 CURVE SMOOTH",
"469 642 OFFCURVE",
"539 625 OFFCURVE",
"509 561 CURVE SMOOTH",
"489 518 LINE",
"507 498 OFFCURVE",
"539 481 OFFCURVE",
"573 481 CURVE SMOOTH",
"605 481 OFFCURVE",
"642 507 OFFCURVE",
"642 555 CURVE SMOOTH",
"642 675 OFFCURVE",
"508 715 OFFCURVE",
"398 715 CURVE SMOOTH",
"196 715 OFFCURVE",
"52 588 OFFCURVE",
"52 325 CURVE SMOOTH",
"52 158 OFFCURVE",
"123 -14 OFFCURVE",
"368 -14 CURVE SMOOTH",
"466 -14 OFFCURVE",
"572 23 OFFCURVE",
"621 60 CURVE",
"633 335 LINE"
);
}
);
};
hints = (
{
place = "{52, 141}";
},
{
place = "{493, 134}";
},
{
horizontal = 1;
place = "{-14, 85}";
},
{
horizontal = 1;
place = "{642, 73}";
}
);
layerId = "D537FF15-C70F-4B12-AACC-84E5BB5FCF97";
paths = (
{
closed = 1;
nodes = (
"417 335 LINE",
"410 274 LINE",
"497 258 LINE",
"490 104 LINE",
"461 85 OFFCURVE",
"431 71 OFFCURVE",
"373 71 CURVE SMOOTH",
"239 71 OFFCURVE",
"193 192 OFFCURVE",
"193 333 CURVE SMOOTH",
"193 541 OFFCURVE",
"267 642 OFFCURVE",
"405 642 CURVE SMOOTH",
"469 642 OFFCURVE",
"539 625 OFFCURVE",
"509 561 CURVE SMOOTH",
"489 518 LINE",
"507 498 OFFCURVE",
"539 481 OFFCURVE",
"573 481 CURVE SMOOTH",
"605 481 OFFCURVE",
"642 507 OFFCURVE",
"642 555 CURVE SMOOTH",
"642 675 OFFCURVE",
"508 715 OFFCURVE",
"398 715 CURVE SMOOTH",
"196 715 OFFCURVE",
"52 588 OFFCURVE",
"52 325 CURVE SMOOTH",
"52 158 OFFCURVE",
"123 -14 OFFCURVE",
"368 -14 CURVE SMOOTH",
"466 -14 OFFCURVE",
"572 23 OFFCURVE",
"621 60 CURVE",
"633 335 LINE"
);
}
);
width = 674;
}
);
leftKerningGroup = O;
rightKerningGroup = G;
unicode = 0047;
},
{
glyphname = H;
lastChange = "2016-06-16 17:42:16 +0000";
layers = (
{
anchors = (
{
name = bottom;
position = "{385, -30}";
},
{
name = top;
position = "{415, 730}";
}
);
background = {
paths = (
{
closed = 1;
nodes = (
"546 59 LINE",
"464 46 LINE",
"458 0 LINE",
"723 0 LINE",
"729 46 LINE",
"634 59 LINE",
"656 637 LINE",
"741 654 LINE",
"747 700 LINE",
"490 700 LINE",
"484 654 LINE",
"570 637 LINE",
"559 391 LINE",
"245 391 LINE",
"255 637 LINE",
"340 654 LINE",
"346 700 LINE",
"88 700 LINE",
"82 654 LINE",
"168 637 LINE",
"145 59 LINE",
"63 46 LINE",
"57 0 LINE",
"322 0 LINE",
"328 46 LINE",
"233 59 LINE",
"243 328 LINE",
"557 328 LINE"
);
}
);
};
hints = (
{
place = "{156, 88}";
},
{
place = "{216, 28}";
},
{
place = "{558, 55}";
},
{
place = "{558, 87}";
},
{
horizontal = 1;
place = "{328, 63}";
},
{
horizontal = 1;
place = "{0, 21}";
target = up;
type = BottomGhost;
},
{
horizontal = 1;
place = "{700, -20}";
target = down;
type = TopGhost;
}
);
layerId = UUID0;
paths = (
{
closed = 1;
nodes = (
"546 59 LINE",
"464 46 LINE",
"458 0 LINE",
"723 0 LINE",
"729 46 LINE",
"634 59 LINE",
"656 637 LINE",
"741 654 LINE",
"747 700 LINE",
"490 700 LINE",
"484 654 LINE",
"570 637 LINE",
"559 391 LINE",
"245 391 LINE",
"255 637 LINE",
"340 654 LINE",
"346 700 LINE",
"88 700 LINE",
"82 654 LINE",
"168 637 LINE",
"145 59 LINE",
"63 46 LINE",
"57 0 LINE",
"322 0 LINE",
"328 46 LINE",
"233 59 LINE",
"243 328 LINE",
"557 328 LINE"
);
}
);
width = 769;
},
{
anchors = (
{
name = bottom;
position = "{386, -30}";
},
{
name = top;
position = "{416, 730}";
}
);
background = {
paths = (
{
closed = 1;
nodes = (
"517 69 LINE",
"438 56 LINE",
"432 0 LINE",
"740 0 LINE",
"746 57 LINE",
"654 70 LINE",
"676 628 LINE",
"758 644 LINE",
"764 700 LINE",
"464 700 LINE",
"458 645 LINE",
"541 628 LINE",
"531 396 LINE",
"270 396 LINE",
"279 628 LINE",
"361 644 LINE",
"367 700 LINE",
"66 700 LINE",
"60 646 LINE",
"143 629 LINE",
"120 68 LINE",
"41 56 LINE",
"35 0 LINE",
"343 0 LINE",
"349 57 LINE",
"257 70 LINE",
"267 321 LINE",
"528 321 LINE"
);
}
);
};
hints = (
{
place = "{131, 137}";
},
{
place = "{216, 52}";
},
{
place = "{529, 84}";
},
{
place = "{529, 136}";
},
{
horizontal = 1;
place = "{321, 75}";
},
{
horizontal = 1;
place = "{0, 21}";
target = up;
type = BottomGhost;
},
{
horizontal = 1;
place = "{700, -20}";
target = down;
type = TopGhost;
}
);
layerId = "D537FF15-C70F-4B12-AACC-84E5BB5FCF97";
paths = (
{
closed = 1;
nodes = (
"517 69 LINE",
"438 56 LINE",
"432 0 LINE",
"740 0 LINE",
"746 57 LINE",
"654 70 LINE",
"676 628 LINE",
"758 644 LINE",
"764 700 LINE",
"464 700 LINE",
"458 645 LINE",
"541 628 LINE",
"531 396 LINE",
"270 396 LINE",
"279 628 LINE",
"361 644 LINE",
"367 700 LINE",
"66 700 LINE",
"60 646 LINE",
"143 629 LINE",
"120 68 LINE",
"41 56 LINE",
"35 0 LINE",
"343 0 LINE",
"349 57 LINE",
"257 70 LINE",
"267 321 LINE",
"528 321 LINE"
);
}
);
width = 769;
}
);
leftKerningGroup = H;
rightKerningGroup = H;
unicode = 0048;
},
{
glyphname = I;
lastChange = "2016-06-16 17:42:16 +0000";
layers = (
{
anchors = (
{
name = bottom;
position = "{187, -30}";
},
{
name = top;
position = "{216, 730}";
}
);
background = {
paths = (
{
closed = 1;
nodes = (
"144 59 LINE",
"62 46 LINE",
"56 0 LINE",
"321 0 LINE",
"327 46 LINE",
"232 59 LINE",
"254 637 LINE",
"339 654 LINE",
"345 700 LINE",
"89 700 LINE",
"83 654 LINE",
"169 637 LINE"
);
}
);
};
hints = (
{
place = "{156, 87}";
},
{
horizontal = 1;
place = "{0, 21}";
target = up;
type = BottomGhost;
},
{
horizontal = 1;
place = "{700, -20}";
target = down;
type = TopGhost;
}
);
layerId = UUID0;
paths = (
{
closed = 1;
nodes = (
"144 59 LINE",
"62 46 LINE",
"56 0 LINE",
"321 0 LINE",
"327 46 LINE",
"232 59 LINE",
"254 637 LINE",
"339 654 LINE",
"345 700 LINE",
"89 700 LINE",
"83 654 LINE",
"169 637 LINE"
);
}
);
width = 367;
},
{
anchors = (
{
name = bottom;
position = "{188, -30}";
},
{
name = top;
position = "{222, 730}";
}
);
background = {
paths = (
{
closed = 1;
nodes = (
"123 69 LINE",
"44 57 LINE",
"38 0 LINE",
"346 0 LINE",
"352 57 LINE",
"260 70 LINE",
"282 628 LINE",
"364 644 LINE",
"370 700 LINE",
"70 700 LINE",
"64 644 LINE",
"147 627 LINE"
);
}
);
};
hints = (
{
place = "{135, 136}";
},
{
horizontal = 1;
place = "{0, 21}";
target = up;
type = BottomGhost;
},
{
horizontal = 1;
place = "{700, -20}";
target = down;
type = TopGhost;
}
);
layerId = "D537FF15-C70F-4B12-AACC-84E5BB5FCF97";
paths = (
{
closed = 1;
nodes = (
"123 69 LINE",
"44 57 LINE",
"38 0 LINE",
"346 0 LINE",
"352 57 LINE",
"260 70 LINE",
"282 628 LINE",
"364 644 LINE",
"370 700 LINE",
"70 700 LINE",
"64 644 LINE",
"147 627 LINE"
);
}
);
width = 376;
}
);
leftKerningGroup = H;
rightKerningGroup = H;
unicode = 0049;
},
{
glyphname = J;
lastChange = "2016-06-16 17:42:16 +0000";
layers = (
{
anchors = (
{
name = top;
position = "{216, 730}";
}
);
background = {
paths = (
{
closed = 1;
nodes = (
"144 59 LINE SMOOTH",
"140 -32 OFFCURVE",
"127 -90 OFFCURVE",
"38 -190 CURVE",
"65 -229 LINE",
"187 -132 OFFCURVE",
"227 -65 OFFCURVE",
"232 59 CURVE SMOOTH",
"254 637 LINE",
"339 654 LINE",
"345 700 LINE",
"73 700 LINE",
"67 654 LINE",
"169 637 LINE"
);
}
);
};
hints = (
{
place = "{144, 99}";
},
{
place = "{156, 87}";
},
{
horizontal = 1;
place = "{-229, 21}";
target = up;
type = BottomGhost;
},
{
horizontal = 1;
place = "{700, -20}";
target = down;
type = TopGhost;
}
);
layerId = UUID0;
paths = (
{
closed = 1;
nodes = (
"144 59 LINE SMOOTH",
"140 -32 OFFCURVE",
"127 -90 OFFCURVE",
"38 -190 CURVE",
"65 -229 LINE",
"187 -132 OFFCURVE",
"227 -65 OFFCURVE",
"232 59 CURVE SMOOTH",
"254 637 LINE",
"339 654 LINE",
"345 700 LINE",
"73 700 LINE",
"67 654 LINE",
"169 637 LINE"
);
}
);
width = 367;
},
{
anchors = (
{
name = top;
position = "{219, 730}";
}
);
background = {
paths = (
{
closed = 1;
nodes = (
"123 81 LINE SMOOTH",
"118 -20 OFFCURVE",
"105 -87 OFFCURVE",
"21 -185 CURVE",
"65 -235 LINE",
"187 -138 OFFCURVE",
"251 -65 OFFCURVE",
"256 75 CURVE SMOOTH",
"278 626 LINE",
"360 643 LINE",
"366 700 LINE",
"51 700 LINE",
"45 643 LINE",
"144 625 LINE"
);
}
);
};
hints = (
{
place = "{133, 134}";
},
{
horizontal = 1;
place = "{-235, 21}";
target = up;
type = BottomGhost;
},
{
horizontal = 1;
place = "{700, -20}";
target = down;
type = TopGhost;
}
);
layerId = "D537FF15-C70F-4B12-AACC-84E5BB5FCF97";
paths = (
{
closed = 1;
nodes = (
"123 81 LINE SMOOTH",
"118 -20 OFFCURVE",
"105 -87 OFFCURVE",
"21 -185 CURVE",
"65 -235 LINE",
"187 -138 OFFCURVE",
"251 -65 OFFCURVE",
"256 75 CURVE SMOOTH",
"278 626 LINE",
"360 643 LINE",
"366 700 LINE",
"51 700 LINE",
"45 643 LINE",
"144 625 LINE"
);
}
);
width = 367;
}
);
leftKerningGroup = J;
rightKerningGroup = J;
unicode = 004A;
},
{
glyphname = K;
lastChange = "2016-06-16 17:42:16 +0000";
layers = (
{
anchors = (
{
name = bottom;
position = "{353, -30}";
},
{
name = top;
position = "{394, 730}";
}
);
background = {
paths = (
{
closed = 1;
nodes = (
"272 373 LINE",
"526 639 LINE",
"444 652 LINE",
"453 700 LINE",
"691 700 LINE",
"684 653 LINE",
"606 638 LINE",
"357 388 LINE",
"357 382 LINE",
"446 345 OFFCURVE",
"471 300 OFFCURVE",
"502 208 CURVE SMOOTH",
"539 97 OFFCURVE",
"552 45 OFFCURVE",
"608 45 CURVE SMOOTH",
"629 45 OFFCURVE",
"649 54 OFFCURVE",
"667 63 CURVE",
"687 28 LINE",
"660 2 OFFCURVE",
"619 -14 OFFCURVE",
"581 -14 CURVE SMOOTH",
"477 -14 OFFCURVE",
"454 53 OFFCURVE",
"412 191 CURVE SMOOTH",
"386 276 OFFCURVE",
"356 332 OFFCURVE",
"270 342 CURVE"
);
},
{
closed = 1;
nodes = (
"144 59 LINE",
"62 46 LINE",
"56 0 LINE",
"321 0 LINE",
"327 46 LINE",
"232 59 LINE",
"254 637 LINE",
"339 654 LINE",
"345 700 LINE",
"89 700 LINE",
"83 654 LINE",
"169 637 LINE"
);
}
);
};
hints = (
{
place = "{156, 87}";
},
{
horizontal = 1;
place = "{-14, 59}";
},
{
horizontal = 1;
place = "{700, -20}";
target = down;
type = TopGhost;
},
{
horizontal = 1;
place = "{0, 21}";
target = up;
type = BottomGhost;
}
);
layerId = UUID0;
paths = (
{
closed = 1;
nodes = (
"272 373 LINE",
"526 639 LINE",
"444 652 LINE",
"453 700 LINE",
"691 700 LINE",
"684 653 LINE",
"606 638 LINE",
"357 388 LINE",
"357 382 LINE",
"446 345 OFFCURVE",
"471 300 OFFCURVE",
"502 208 CURVE SMOOTH",
"539 97 OFFCURVE",
"552 45 OFFCURVE",
"608 45 CURVE SMOOTH",
"629 45 OFFCURVE",
"649 54 OFFCURVE",
"667 63 CURVE",
"687 28 LINE",
"660 2 OFFCURVE",
"619 -14 OFFCURVE",
"581 -14 CURVE SMOOTH",
"477 -14 OFFCURVE",
"454 53 OFFCURVE",
"412 191 CURVE SMOOTH",
"386 276 OFFCURVE",
"356 332 OFFCURVE",
"270 342 CURVE"
);
},
{
closed = 1;
nodes = (
"144 59 LINE",
"62 46 LINE",
"56 0 LINE",
"321 0 LINE",
"327 46 LINE",
"232 59 LINE",
"254 637 LINE",
"339 654 LINE",
"345 700 LINE",
"89 700 LINE",
"83 654 LINE",
"169 637 LINE"
);
}
);
width = 696;
},
{
anchors = (
{
name = bottom;
position = "{362, -30}";
},
{
name = top;
position = "{396, 730}";
}
);
background = {
paths = (
{
closed = 1;
nodes = (
"294 387 LINE",
"536 632 LINE",
"466 642 LINE",
"475 700 LINE",
"713 700 LINE",
"706 643 LINE",
"632 628 LINE",
"386 386 LINE",
"386 380 LINE",
"482 351 OFFCURVE",
"515 312 OFFCURVE",
"546 220 CURVE SMOOTH",
"583 109 OFFCURVE",
"598 64 OFFCURVE",
"634 64 CURVE SMOOTH",
"654 64 OFFCURVE",
"673 72 OFFCURVE",
"691 82 CURVE",
"712 28 LINE",
"685 2 OFFCURVE",
"630 -14 OFFCURVE",
"593 -14 CURVE SMOOTH",
"482 -14 OFFCURVE",
"453 46 OFFCURVE",
"411 191 CURVE SMOOTH",
"386 276 OFFCURVE",
"369 328 OFFCURVE",
"292 339 CURVE"
);
},
{
closed = 1;
nodes = (
"119 70 LINE",
"40 57 LINE",
"34 0 LINE",
"341 0 LINE",
"347 57 LINE",
"256 70 LINE",
"278 627 LINE",
"359 644 LINE",
"365 700 LINE",
"66 700 LINE",
"60 644 LINE",
"143 627 LINE"
);
}
);
};
hints = (
{
place = "{131, 136}";
},
{
horizontal = 1;
place = "{-14, 78}";
},
{
horizontal = 1;
place = "{700, -20}";
target = down;
type = TopGhost;
},
{
horizontal = 1;
place = "{0, 21}";
target = up;
type = BottomGhost;
}
);
layerId = "D537FF15-C70F-4B12-AACC-84E5BB5FCF97";
paths = (
{
closed = 1;
nodes = (
"294 387 LINE",
"536 632 LINE",
"466 642 LINE",
"475 700 LINE",
"713 700 LINE",
"706 643 LINE",
"632 628 LINE",
"386 386 LINE",
"386 380 LINE",
"482 351 OFFCURVE",
"515 312 OFFCURVE",
"546 220 CURVE SMOOTH",
"583 109 OFFCURVE",
"598 64 OFFCURVE",
"634 64 CURVE SMOOTH",
"654 64 OFFCURVE",
"673 72 OFFCURVE",
"691 82 CURVE",
"712 28 LINE",
"685 2 OFFCURVE",
"630 -14 OFFCURVE",
"593 -14 CURVE SMOOTH",
"482 -14 OFFCURVE",
"453 46 OFFCURVE",
"411 191 CURVE SMOOTH",
"386 276 OFFCURVE",
"369 328 OFFCURVE",
"292 339 CURVE"
);
},
{
closed = 1;
nodes = (
"119 70 LINE",
"40 57 LINE",
"34 0 LINE",
"341 0 LINE",
"347 57 LINE",
"256 70 LINE",
"278 627 LINE",
"359 644 LINE",
"365 700 LINE",
"66 700 LINE",
"60 644 LINE",
"143 627 LINE"
);
}
);
width = 709;
}
);
leftKerningGroup = H;
rightKerningGroup = K;
unicode = 004B;
},
{
glyphname = L;
lastChange = "2016-06-16 17:42:16 +0000";
layers = (
{
anchors = (
{
name = bottom;
position = "{317, -30}";
},
{
name = top;
position = "{222, 730}";
}
);
background = {
paths = (
{
closed = 1;
nodes = (
"57 0 LINE",
"529 0 LINE",
"555 194 LINE",
"500 194 LINE",
"484 143 LINE SMOOTH",
"463 78 OFFCURVE",
"442 58 OFFCURVE",
"381 58 CURVE SMOOTH",
"231 58 LINE",
"255 637 LINE",
"360 654 LINE",
"366 700 LINE",
"89 700 LINE",
"83 654 LINE",
"169 637 LINE",
"145 59 LINE",
"63 46 LINE"
);
}
);
};
hints = (
{
place = "{157, 86}";
},
{
horizontal = 1;
place = "{0, 58}";
},
{
horizontal = 1;
place = "{700, -20}";
target = down;
type = TopGhost;
}
);
layerId = UUID0;
paths = (
{
closed = 1;
nodes = (
"57 0 LINE",
"529 0 LINE",
"555 194 LINE",
"500 194 LINE",
"484 143 LINE SMOOTH",
"463 78 OFFCURVE",
"442 58 OFFCURVE",
"381 58 CURVE SMOOTH",
"231 58 LINE",
"255 637 LINE",
"360 654 LINE",
"366 700 LINE",
"89 700 LINE",
"83 654 LINE",
"169 637 LINE",
"145 59 LINE",
"63 46 LINE"
);
}
);
width = 590;
},
{
anchors = (
{
name = bottom;
position = "{308, -30}";
},
{
name = top;
position = "{223, 730}";
}
);
background = {
paths = (
{
closed = 1;
nodes = (
"35 0 LINE",
"547 0 LINE",
"573 202 LINE",
"505 202 LINE",
"489 151 LINE SMOOTH",
"470 90 OFFCURVE",
"445 71 OFFCURVE",
"384 71 CURVE SMOOTH",
"256 71 LINE",
"280 628 LINE",
"382 646 LINE",
"388 700 LINE",
"67 700 LINE",
"61 646 LINE",
"144 629 LINE",
"120 66 LINE",
"41 54 LINE"
);
}
);
};
hints = (
{
place = "{132, 136}";
},
{
horizontal = 1;
place = "{0, 71}";
},
{
horizontal = 1;
place = "{700, -20}";
target = down;
type = TopGhost;
}
);
layerId = "D537FF15-C70F-4B12-AACC-84E5BB5FCF97";
paths = (
{
closed = 1;
nodes = (
"35 0 LINE",
"547 0 LINE",
"573 202 LINE",
"505 202 LINE",
"489 151 LINE SMOOTH",
"470 90 OFFCURVE",
"445 71 OFFCURVE",
"384 71 CURVE SMOOTH",
"256 71 LINE",
"280 628 LINE",
"382 646 LINE",
"388 700 LINE",
"67 700 LINE",
"61 646 LINE",
"144 629 LINE",
"120 66 LINE",
"41 54 LINE"
);
}
);
width = 594;
}
);
leftKerningGroup = H;
rightKerningGroup = L;
unicode = 004C;
},
{
glyphname = M;
lastChange = "2016-06-16 17:42:16 +0000";
layers = (
{
anchors = (
{
name = bottom;
position = "{464, -30}";
}
);
background = {
paths = (
{
closed = 1;
nodes = (
"734 59 LINE",
"652 46 LINE",
"646 0 LINE",
"911 0 LINE",
"917 46 LINE",
"822 59 LINE",
"802 637 LINE",
"881 652 LINE",
"887 700 LINE",
"680 700 LINE",
"479 86 LINE",
"303 700 LINE",
"92 700 LINE",
"86 654 LINE",
"171 637 LINE",
"131 60 LINE",
"48 46 LINE",
"42 0 LINE",
"280 0 LINE",
"286 46 LINE",
"197 60 LINE",
"235 612 LINE",
"419 -11 LINE",
"516 6 LINE",
"717 622 LINE"
);
}
);
};
hints = (
{
place = "{151, 65}";
},
{
place = "{725, 87}";
},
{
horizontal = 1;
place = "{0, 21}";
target = up;
type = BottomGhost;
},
{
horizontal = 1;
place = "{700, -20}";
target = down;
type = TopGhost;
},
{
horizontal = 1;
place = "{-11, 21}";
target = up;
type = BottomGhost;
}
);
layerId = UUID0;
paths = (
{
closed = 1;
nodes = (
"734 59 LINE",
"652 46 LINE",
"646 0 LINE",
"911 0 LINE",
"917 46 LINE",
"822 59 LINE",
"802 637 LINE",
"881 652 LINE",
"887 700 LINE",
"680 700 LINE",
"479 86 LINE",
"303 700 LINE",
"92 700 LINE",
"86 654 LINE",
"171 637 LINE",
"131 60 LINE",
"48 46 LINE",
"42 0 LINE",
"280 0 LINE",
"286 46 LINE",
"197 60 LINE",
"235 612 LINE",
"419 -11 LINE",
"516 6 LINE",
"717 622 LINE"
);
}
);
width = 932;
},
{
anchors = (
{
name = bottom;
position = "{462, -30}";
}
);
background = {
paths = (
{
closed = 1;
nodes = (
"732 69 LINE",
"650 56 LINE",
"644 0 LINE",
"939 0 LINE",
"945 56 LINE",
"857 69 LINE",
"837 630 LINE",
"909 644 LINE",
"915 700 LINE",
"658 700 LINE",
"486 140 LINE",
"331 700 LINE",
"72 700 LINE",
"66 646 LINE",
"150 629 LINE",
"110 70 LINE",
"28 56 LINE",
"22 0 LINE",
"273 0 LINE",
"279 56 LINE",
"190 70 LINE",
"228 602 LINE",
"402 -11 LINE",
"528 6 LINE",
"715 614 LINE"
);
}
);
};
hints = (
{
place = "{130, 79}";
},
{
place = "{723, 124}";
},
{
horizontal = 1;
place = "{0, 21}";
target = up;
type = BottomGhost;
},
{
horizontal = 1;
place = "{700, -20}";
target = down;
type = TopGhost;
},
{
horizontal = 1;
place = "{-11, 21}";
target = up;
type = BottomGhost;
}
);
layerId = "D537FF15-C70F-4B12-AACC-84E5BB5FCF97";
paths = (
{
closed = 1;
nodes = (
"732 69 LINE",
"650 56 LINE",
"644 0 LINE",
"939 0 LINE",
"945 56 LINE",
"857 69 LINE",
"837 630 LINE",
"909 644 LINE",
"915 700 LINE",
"658 700 LINE",
"486 140 LINE",
"331 700 LINE",
"72 700 LINE",
"66 646 LINE",
"150 629 LINE",
"110 70 LINE",
"28 56 LINE",
"22 0 LINE",
"273 0 LINE",
"279 56 LINE",
"190 70 LINE",
"228 602 LINE",
"402 -11 LINE",
"528 6 LINE",
"715 614 LINE"
);
}
);
width = 947;
}
);
unicode = 004D;
},
{
glyphname = N;
lastChange = "2016-06-16 17:42:16 +0000";
layers = (
{
anchors = (
{
name = bottom;
position = "{367, -30}";
},
{
name = top;
position = "{410, 730}";
}
);
background = {
paths = (
{
closed = 1;
nodes = (
"292 700 LINE",
"95 700 LINE",
"89 652 LINE",
"168 641 LINE",
"144 59 LINE",
"63 46 LINE",
"57 0 LINE",
"300 0 LINE",
"306 46 LINE",
"212 59 LINE",
"232 619 LINE",
"536 -11 LINE",
"628 0 LINE",
"653 637 LINE",
"738 654 LINE",
"744 700 LINE",
"507 700 LINE",
"501 654 LINE",
"586 637 LINE",
"568 119 LINE"
);
}
);
};
hints = (
{
place = "{156, 66}";
},
{
place = "{577, 64}";
},
{
horizontal = 1;
place = "{0, 59}";
},
{
horizontal = 1;
place = "{637, 63}";
},
{
horizontal = 1;
place = "{-11, 21}";
target = up;
type = BottomGhost;
}
);
layerId = UUID0;
paths = (
{
closed = 1;
nodes = (
"292 700 LINE",
"95 700 LINE",
"89 652 LINE",
"168 641 LINE",
"144 59 LINE",
"63 46 LINE",
"57 0 LINE",
"300 0 LINE",
"306 46 LINE",
"212 59 LINE",
"232 619 LINE",
"536 -11 LINE",
"628 0 LINE",
"653 637 LINE",
"738 654 LINE",
"744 700 LINE",
"507 700 LINE",
"501 654 LINE",
"586 637 LINE",
"568 119 LINE"
);
}
);
width = 756;
},
{
anchors = (
{
name = bottom;
position = "{362, -30}";
},
{
name = top;
position = "{416, 730}";
}
);
background = {
paths = (
{
closed = 1;
nodes = (
"318 700 LINE",
"74 700 LINE",
"68 642 LINE",
"147 631 LINE",
"119 69 LINE",
"42 56 LINE",
"36 0 LINE",
"287 0 LINE",
"293 56 LINE",
"204 69 LINE",
"224 601 LINE",
"511 -14 LINE",
"646 0 LINE",
"671 627 LINE",
"751 644 LINE",
"757 700 LINE",
"510 700 LINE",
"504 644 LINE",
"589 627 LINE",
"571 151 LINE"
);
}
);
};
hints = (
{
place = "{133, 81}";
},
{
place = "{580, 78}";
},
{
horizontal = 1;
place = "{700, -20}";
target = down;
type = TopGhost;
},
{
horizontal = 1;
place = "{0, 21}";
target = up;
type = BottomGhost;
},
{
horizontal = 1;
place = "{-14, 21}";
target = up;
type = BottomGhost;
}
);
layerId = "D537FF15-C70F-4B12-AACC-84E5BB5FCF97";
paths = (
{
closed = 1;
nodes = (
"318 700 LINE",
"74 700 LINE",
"68 642 LINE",
"147 631 LINE",
"119 69 LINE",
"42 56 LINE",
"36 0 LINE",
"287 0 LINE",
"293 56 LINE",
"204 69 LINE",
"224 601 LINE",
"511 -14 LINE",
"646 0 LINE",
"671 627 LINE",
"751 644 LINE",
"757 700 LINE",
"510 700 LINE",
"504 644 LINE",
"589 627 LINE",
"571 151 LINE"
);
}
);
width = 759;
}
);
leftKerningGroup = H;
rightKerningGroup = N;
unicode = 004E;
},
{
glyphname = O;
lastChange = "2016-06-16 17:42:16 +0000";
layers = (
{
anchors = (
{
name = bottom;
position = "{352, -30}";
},
{
name = top;
position = "{389, 730}";
}
);
background = {
paths = (
{
closed = 1;
nodes = (
"61 138 OFFCURVE",
"160 -14 OFFCURVE",
"355 -14 CURVE SMOOTH",
"532 -14 OFFCURVE",
"676 125 OFFCURVE",
"676 382 CURVE SMOOTH",
"676 600 OFFCURVE",
"552 715 OFFCURVE",
"387 715 CURVE SMOOTH",
"225 715 OFFCURVE",
"61 610 OFFCURVE",
"61 328 CURVE SMOOTH"
);
},
{
closed = 1;
nodes = (
"156 568 OFFCURVE",
"255 653 OFFCURVE",
"373 653 CURVE SMOOTH",
"502 653 OFFCURVE",
"578 549 OFFCURVE",
"578 364 CURVE SMOOTH",
"578 149 OFFCURVE",
"491 51 OFFCURVE",
"368 51 CURVE SMOOTH",
"231 51 OFFCURVE",
"156 173 OFFCURVE",
"156 349 CURVE SMOOTH"
);
}
);
};
hints = (
{
place = "{61, 95}";
},
{
place = "{578, 98}";
},
{
horizontal = 1;
place = "{-14, 65}";
},
{
horizontal = 1;
place = "{653, 62}";
}
);
layerId = UUID0;
paths = (
{
closed = 1;
nodes = (
"61 138 OFFCURVE",
"160 -14 OFFCURVE",
"355 -14 CURVE SMOOTH",
"532 -14 OFFCURVE",
"676 125 OFFCURVE",
"676 382 CURVE SMOOTH",
"676 600 OFFCURVE",
"552 715 OFFCURVE",
"387 715 CURVE SMOOTH",
"225 715 OFFCURVE",
"61 610 OFFCURVE",
"61 328 CURVE SMOOTH"
);
},
{
closed = 1;
nodes = (
"156 568 OFFCURVE",
"255 653 OFFCURVE",
"373 653 CURVE SMOOTH",
"502 653 OFFCURVE",
"578 549 OFFCURVE",
"578 364 CURVE SMOOTH",
"578 149 OFFCURVE",
"491 51 OFFCURVE",
"368 51 CURVE SMOOTH",
"231 51 OFFCURVE",
"156 173 OFFCURVE",
"156 349 CURVE SMOOTH"
);
}
);
width = 715;
},
{
anchors = (
{
name = bottom;
position = "{358, -30}";
},
{
name = top;
position = "{393, 730}";
}
);
background = {
paths = (
{
closed = 1;
nodes = (
"52 138 OFFCURVE",
"151 -14 OFFCURVE",
"359 -14 CURVE SMOOTH",
"549 -14 OFFCURVE",
"693 125 OFFCURVE",
"693 382 CURVE SMOOTH",
"693 600 OFFCURVE",
"569 715 OFFCURVE",
"391 715 CURVE SMOOTH",
"216 715 OFFCURVE",
"52 610 OFFCURVE",
"52 328 CURVE SMOOTH"
);
},
{
closed = 1;
nodes = (
"193 563 OFFCURVE",
"279 641 OFFCURVE",
"377 641 CURVE SMOOTH",
"486 641 OFFCURVE",
"549 549 OFFCURVE",
"549 364 CURVE SMOOTH",
"549 140 OFFCURVE",
"475 62 OFFCURVE",
"372 62 CURVE SMOOTH",
"255 62 OFFCURVE",
"193 164 OFFCURVE",
"193 349 CURVE SMOOTH"
);
}
);
};
hints = (
{
place = "{52, 141}";
},
{
place = "{549, 144}";
},
{
horizontal = 1;
place = "{-14, 76}";
},
{
horizontal = 1;
place = "{641, 74}";
}
);
layerId = "D537FF15-C70F-4B12-AACC-84E5BB5FCF97";
paths = (
{
closed = 1;
nodes = (
"52 138 OFFCURVE",
"151 -14 OFFCURVE",
"359 -14 CURVE SMOOTH",
"549 -14 OFFCURVE",
"693 125 OFFCURVE",
"693 382 CURVE SMOOTH",
"693 600 OFFCURVE",
"569 715 OFFCURVE",
"391 715 CURVE SMOOTH",
"216 715 OFFCURVE",
"52 610 OFFCURVE",
"52 328 CURVE SMOOTH"
);
},
{
closed = 1;
nodes = (
"193 563 OFFCURVE",
"279 641 OFFCURVE",
"377 641 CURVE SMOOTH",
"486 641 OFFCURVE",
"549 549 OFFCURVE",
"549 364 CURVE SMOOTH",
"549 140 OFFCURVE",
"475 62 OFFCURVE",
"372 62 CURVE SMOOTH",
"255 62 OFFCURVE",
"193 164 OFFCURVE",
"193 349 CURVE SMOOTH"
);
}
);
width = 721;
}
);
leftKerningGroup = O;
rightKerningGroup = O;
unicode = 004F;
},
{
glyphname = P;
lastChange = "2016-06-16 17:42:16 +0000";
layers = (
{
background = {
paths = (
{
closed = 1;
nodes = (
"284 287 LINE",
"297 285 OFFCURVE",
"310 284 OFFCURVE",
"322 284 CURVE SMOOTH",
"474 284 OFFCURVE",
"569 375 OFFCURVE",
"569 502 CURVE SMOOTH",
"569 645 OFFCURVE",
"465 700 OFFCURVE",
"315 700 CURVE SMOOTH",
"88 700 LINE",
"82 654 LINE",
"169 637 LINE",
"144 60 LINE",
"55 44 LINE",
"50 0 LINE",
"356 0 LINE",
"360 45 LINE",
"232 59 LINE",
"255 646 LINE",
"306 646 LINE SMOOTH",
"405 646 OFFCURVE",
"472 608 OFFCURVE",
"472 503 CURVE SMOOTH",
"472 397 OFFCURVE",
"422 338 OFFCURVE",
"318 338 CURVE SMOOTH",
"307 338 OFFCURVE",
"300 338 OFFCURVE",
"287 339 CURVE"
);
}
);
};
hints = (
{
place = "{156, 87}";
},
{
place = "{472, 97}";
},
{
horizontal = 1;
place = "{284, 54}";
},
{
horizontal = 1;
place = "{646, 54}";
},
{
horizontal = 1;
place = "{0, 21}";
target = up;
type = BottomGhost;
}
);
layerId = UUID0;
paths = (
{
closed = 1;
nodes = (
"284 287 LINE",
"297 285 OFFCURVE",
"310 284 OFFCURVE",
"322 284 CURVE SMOOTH",
"474 284 OFFCURVE",
"569 375 OFFCURVE",
"569 502 CURVE SMOOTH",
"569 645 OFFCURVE",
"465 700 OFFCURVE",
"315 700 CURVE SMOOTH",
"88 700 LINE",
"82 654 LINE",
"169 637 LINE",
"144 60 LINE",
"55 44 LINE",
"50 0 LINE",
"356 0 LINE",
"360 45 LINE",
"232 59 LINE",
"255 646 LINE",
"306 646 LINE SMOOTH",
"405 646 OFFCURVE",
"472 608 OFFCURVE",
"472 503 CURVE SMOOTH",
"472 397 OFFCURVE",
"422 338 OFFCURVE",
"318 338 CURVE SMOOTH",
"307 338 OFFCURVE",
"300 338 OFFCURVE",
"287 339 CURVE"
);
}
);
width = 584;
},
{
background = {
paths = (
{
closed = 1;
nodes = (
"296 280 LINE",
"309 278 OFFCURVE",
"322 277 OFFCURVE",
"343 277 CURVE SMOOTH",
"501 277 OFFCURVE",
"604 375 OFFCURVE",
"604 502 CURVE SMOOTH",
"604 645 OFFCURVE",
"493 700 OFFCURVE",
"343 700 CURVE SMOOTH",
"67 700 LINE",
"61 644 LINE",
"145 627 LINE",
"120 70 LINE",
"34 54 LINE",
"29 0 LINE",
"365 0 LINE",
"369 55 LINE",
"251 69 LINE",
"276 633 LINE",
"298 633 LINE SMOOTH",
"386 633 OFFCURVE",
"461 603 OFFCURVE",
"461 500 CURVE SMOOTH",
"461 397 OFFCURVE",
"419 344 OFFCURVE",
"330 344 CURVE SMOOTH",
"319 344 OFFCURVE",
"312 344 OFFCURVE",
"299 345 CURVE"
);
}
);
};
hints = (
{
place = "{132, 131}";
},
{
place = "{461, 143}";
},
{
horizontal = 1;
place = "{277, 67}";
},
{
horizontal = 1;
place = "{633, 67}";
},
{
horizontal = 1;
place = "{0, 21}";
target = up;
type = BottomGhost;
}
);
layerId = "D537FF15-C70F-4B12-AACC-84E5BB5FCF97";
paths = (
{
closed = 1;
nodes = (
"296 280 LINE",
"309 278 OFFCURVE",
"322 277 OFFCURVE",
"343 277 CURVE SMOOTH",
"501 277 OFFCURVE",
"604 375 OFFCURVE",
"604 502 CURVE SMOOTH",
"604 645 OFFCURVE",
"493 700 OFFCURVE",
"343 700 CURVE SMOOTH",
"67 700 LINE",
"61 644 LINE",
"145 627 LINE",
"120 70 LINE",
"34 54 LINE",
"29 0 LINE",
"365 0 LINE",
"369 55 LINE",
"251 69 LINE",
"276 633 LINE",
"298 633 LINE SMOOTH",
"386 633 OFFCURVE",
"461 603 OFFCURVE",
"461 500 CURVE SMOOTH",
"461 397 OFFCURVE",
"419 344 OFFCURVE",
"330 344 CURVE SMOOTH",
"319 344 OFFCURVE",
"312 344 OFFCURVE",
"299 345 CURVE"
);
}
);
width = 609;
}
);
leftKerningGroup = H;
rightKerningGroup = P;
unicode = 0050;
},
{
glyphname = Q;
lastChange = "2016-06-16 17:42:16 +0000";
layers = (
{
background = {
paths = (
{
closed = 1;
nodes = (
"52 201 OFFCURVE",
"120 75 OFFCURVE",
"267 37 CURVE",
"267 32 LINE",
"233 25 OFFCURVE",
"201 12 OFFCURVE",
"177 0 CURVE",
"201 -54 LINE",
"255 -30 OFFCURVE",
"283 -18 OFFCURVE",
"325 -18 CURVE SMOOTH",
"385 -18 OFFCURVE",
"412 -41 OFFCURVE",
"486 -100 CURVE SMOOTH",
"544 -146 OFFCURVE",
"591 -174 OFFCURVE",
"641 -174 CURVE SMOOTH",
"683 -174 OFFCURVE",
"723 -149 OFFCURVE",
"723 -100 CURVE SMOOTH",
"723 -61 OFFCURVE",
"694 -33 OFFCURVE",
"636 -33 CURVE",
"628 -63 LINE SMOOTH",
"618 -100 OFFCURVE",
"591 -94 OFFCURVE",
"522 -43 CURVE SMOOTH",
"483 -14 OFFCURVE",
"442 12 OFFCURVE",
"375 24 CURVE",
"375 32 LINE",
"550 54 OFFCURVE",
"667 159 OFFCURVE",
"667 390 CURVE SMOOTH",
"667 598 OFFCURVE",
"543 715 OFFCURVE",
"378 715 CURVE SMOOTH",
"216 715 OFFCURVE",
"52 616 OFFCURVE",
"52 346 CURVE SMOOTH"
);
},
{
closed = 1;
nodes = (
"147 574 OFFCURVE",
"246 653 OFFCURVE",
"364 653 CURVE SMOOTH",
"493 653 OFFCURVE",
"569 547 OFFCURVE",
"569 376 CURVE SMOOTH",
"569 183 OFFCURVE",
"476 75 OFFCURVE",
"353 75 CURVE SMOOTH",
"216 75 OFFCURVE",
"147 179 OFFCURVE",
"147 355 CURVE SMOOTH"
);
}
);
};
hints = (
{
place = "{52, 95}";
},
{
place = "{569, 98}";
},
{
place = "{569, 154}";
},
{
horizontal = 1;
place = "{-174, 141}";
},
{
horizontal = 1;
place = "{-18, 93}";
},
{
horizontal = 1;
place = "{653, 62}";
}
);
layerId = UUID0;
paths = (
{
closed = 1;
nodes = (
"52 201 OFFCURVE",
"120 75 OFFCURVE",
"267 37 CURVE",
"267 32 LINE",
"233 25 OFFCURVE",
"201 12 OFFCURVE",
"177 0 CURVE",
"201 -54 LINE",
"255 -30 OFFCURVE",
"283 -18 OFFCURVE",
"325 -18 CURVE SMOOTH",
"385 -18 OFFCURVE",
"412 -41 OFFCURVE",
"486 -100 CURVE SMOOTH",
"544 -146 OFFCURVE",
"591 -174 OFFCURVE",
"641 -174 CURVE SMOOTH",
"683 -174 OFFCURVE",
"723 -149 OFFCURVE",
"723 -100 CURVE SMOOTH",
"723 -61 OFFCURVE",
"694 -33 OFFCURVE",
"636 -33 CURVE",
"628 -63 LINE SMOOTH",
"618 -100 OFFCURVE",
"591 -94 OFFCURVE",
"522 -43 CURVE SMOOTH",
"483 -14 OFFCURVE",
"442 12 OFFCURVE",
"375 24 CURVE",
"375 32 LINE",
"550 54 OFFCURVE",
"667 159 OFFCURVE",
"667 390 CURVE SMOOTH",
"667 598 OFFCURVE",
"543 715 OFFCURVE",
"378 715 CURVE SMOOTH",
"216 715 OFFCURVE",
"52 616 OFFCURVE",
"52 346 CURVE SMOOTH"
);
},
{
closed = 1;
nodes = (
"147 574 OFFCURVE",
"246 653 OFFCURVE",
"364 653 CURVE SMOOTH",
"493 653 OFFCURVE",
"569 547 OFFCURVE",
"569 376 CURVE SMOOTH",
"569 183 OFFCURVE",
"476 75 OFFCURVE",
"353 75 CURVE SMOOTH",
"216 75 OFFCURVE",
"147 179 OFFCURVE",
"147 355 CURVE SMOOTH"
);
}
);
width = 702;
},
{
background = {
paths = (
{
closed = 1;
nodes = (
"53 202 OFFCURVE",
"126 76 OFFCURVE",
"272 39 CURVE",
"272 32 LINE",
"238 25 OFFCURVE",
"200 9 OFFCURVE",
"176 -3 CURVE",
"207 -61 LINE",
"253 -40 OFFCURVE",
"285 -26 OFFCURVE",
"327 -26 CURVE SMOOTH",
"381 -26 OFFCURVE",
"407 -50 OFFCURVE",
"484 -114 CURVE SMOOTH",
"537 -158 OFFCURVE",
"592 -185 OFFCURVE",
"642 -185 CURVE SMOOTH",
"699 -185 OFFCURVE",
"739 -148 OFFCURVE",
"739 -99 CURVE SMOOTH",
"739 -60 OFFCURVE",
"711 -27 OFFCURVE",
"643 -27 CURVE",
"630 -68 LINE SMOOTH",
"621 -95 OFFCURVE",
"590 -80 OFFCURVE",
"525 -30 CURVE SMOOTH",
"487 -1 OFFCURVE",
"445 15 OFFCURVE",
"380 20 CURVE",
"380 28 LINE",
"557 38 OFFCURVE",
"694 168 OFFCURVE",
"694 392 CURVE SMOOTH",
"694 610 OFFCURVE",
"570 715 OFFCURVE",
"392 715 CURVE SMOOTH",
"217 715 OFFCURVE",
"53 620 OFFCURVE",
"53 338 CURVE SMOOTH"
);
},
{
closed = 1;
nodes = (
"194 573 OFFCURVE",
"280 641 OFFCURVE",
"378 641 CURVE SMOOTH",
"487 641 OFFCURVE",
"550 559 OFFCURVE",
"550 374 CURVE SMOOTH",
"550 180 OFFCURVE",
"476 99 OFFCURVE",
"373 99 CURVE SMOOTH",
"256 99 OFFCURVE",
"194 189 OFFCURVE",
"194 359 CURVE SMOOTH"
);
}
);
};
hints = (
{
place = "{53, 141}";
},
{
place = "{550, 144}";
},
{
place = "{550, 189}";
},
{
horizontal = 1;
place = "{-185, 158}";
},
{
horizontal = 1;
place = "{-26, 46}";
},
{
horizontal = 1;
place = "{28, 71}";
},
{
horizontal = 1;
place = "{641, 74}";
}
);
layerId = "D537FF15-C70F-4B12-AACC-84E5BB5FCF97";
paths = (
{
closed = 1;
nodes = (
"53 202 OFFCURVE",
"126 76 OFFCURVE",
"272 39 CURVE",
"272 32 LINE",
"238 25 OFFCURVE",
"200 9 OFFCURVE",
"176 -3 CURVE",
"207 -61 LINE",
"253 -40 OFFCURVE",
"285 -26 OFFCURVE",
"327 -26 CURVE SMOOTH",
"381 -26 OFFCURVE",
"407 -50 OFFCURVE",
"484 -114 CURVE SMOOTH",
"537 -158 OFFCURVE",
"592 -185 OFFCURVE",
"642 -185 CURVE SMOOTH",
"699 -185 OFFCURVE",
"739 -148 OFFCURVE",
"739 -99 CURVE SMOOTH",
"739 -60 OFFCURVE",
"711 -27 OFFCURVE",
"643 -27 CURVE",
"630 -68 LINE SMOOTH",
"621 -95 OFFCURVE",
"590 -80 OFFCURVE",
"525 -30 CURVE SMOOTH",
"487 -1 OFFCURVE",
"445 15 OFFCURVE",
"380 20 CURVE",
"380 28 LINE",
"557 38 OFFCURVE",
"694 168 OFFCURVE",
"694 392 CURVE SMOOTH",
"694 610 OFFCURVE",
"570 715 OFFCURVE",
"392 715 CURVE SMOOTH",
"217 715 OFFCURVE",
"53 620 OFFCURVE",
"53 338 CURVE SMOOTH"
);
},
{
closed = 1;
nodes = (
"194 573 OFFCURVE",
"280 641 OFFCURVE",
"378 641 CURVE SMOOTH",
"487 641 OFFCURVE",
"550 559 OFFCURVE",
"550 374 CURVE SMOOTH",
"550 180 OFFCURVE",
"476 99 OFFCURVE",
"373 99 CURVE SMOOTH",
"256 99 OFFCURVE",
"194 189 OFFCURVE",
"194 359 CURVE SMOOTH"
);
}
);
width = 722;
}
);
leftKerningGroup = O;
rightKerningGroup = O;
unicode = 0051;
},
{
glyphname = R;
lastChange = "2016-06-16 17:42:16 +0000";
layers = (
{
anchors = (
{
name = bottom;
position = "{343, -30}";
},
{
name = top;
position = "{324, 730}";
}
);
background = {
paths = (
{
closed = 1;
nodes = (
"286 321 LINE",
"319 301 OFFCURVE",
"339 278 OFFCURVE",
"373 197 CURVE SMOOTH",
"415 98 LINE SMOOTH",
"455 18 OFFCURVE",
"494 -14 OFFCURVE",
"570 -14 CURVE SMOOTH",
"608 -14 OFFCURVE",
"649 2 OFFCURVE",
"676 28 CURVE",
"656 63 LINE",
"638 54 OFFCURVE",
"618 45 OFFCURVE",
"597 45 CURVE SMOOTH",
"555 45 OFFCURVE",
"535 66 OFFCURVE",
"507 123 CURVE SMOOTH",
"449 243 LINE SMOOTH",
"426 291 OFFCURVE",
"403 318 OFFCURVE",
"355 338 CURVE",
"355 341 LINE",
"442 351 OFFCURVE",
"562 408 OFFCURVE",
"562 532 CURVE SMOOTH",
"562 661 OFFCURVE",
"465 700 OFFCURVE",
"315 700 CURVE SMOOTH",
"88 700 LINE",
"82 654 LINE",
"169 637 LINE",
"144 60 LINE",
"55 44 LINE",
"50 0 LINE",
"336 0 LINE",
"341 44 LINE",
"233 58 LINE",
"255 646 LINE",
"306 646 LINE SMOOTH",
"405 646 OFFCURVE",
"465 622 OFFCURVE",
"465 523 CURVE SMOOTH",
"465 434 OFFCURVE",
"401 373 OFFCURVE",
"290 370 CURVE"
);
}
);
};
hints = (
{
place = "{156, 88}";
},
{
place = "{465, 97}";
},
{
horizontal = 1;
place = "{-14, 59}";
},
{
horizontal = 1;
place = "{646, 54}";
},
{
horizontal = 1;
place = "{0, 21}";
target = up;
type = BottomGhost;
}
);
layerId = UUID0;
paths = (
{
closed = 1;
nodes = (
"286 321 LINE",
"319 301 OFFCURVE",
"339 278 OFFCURVE",
"373 197 CURVE SMOOTH",
"415 98 LINE SMOOTH",
"455 18 OFFCURVE",
"494 -14 OFFCURVE",
"570 -14 CURVE SMOOTH",
"608 -14 OFFCURVE",
"649 2 OFFCURVE",
"676 28 CURVE",
"656 63 LINE",
"638 54 OFFCURVE",
"618 45 OFFCURVE",
"597 45 CURVE SMOOTH",
"555 45 OFFCURVE",
"535 66 OFFCURVE",
"507 123 CURVE SMOOTH",
"449 243 LINE SMOOTH",
"426 291 OFFCURVE",
"403 318 OFFCURVE",
"355 338 CURVE",
"355 341 LINE",
"442 351 OFFCURVE",
"562 408 OFFCURVE",
"562 532 CURVE SMOOTH",
"562 661 OFFCURVE",
"465 700 OFFCURVE",
"315 700 CURVE SMOOTH",
"88 700 LINE",
"82 654 LINE",
"169 637 LINE",
"144 60 LINE",
"55 44 LINE",
"50 0 LINE",
"336 0 LINE",
"341 44 LINE",
"233 58 LINE",
"255 646 LINE",
"306 646 LINE SMOOTH",
"405 646 OFFCURVE",
"465 622 OFFCURVE",
"465 523 CURVE SMOOTH",
"465 434 OFFCURVE",
"401 373 OFFCURVE",
"290 370 CURVE"
);
}
);
width = 681;
},
{
anchors = (
{
name = bottom;
position = "{351, -30}";
},
{
name = top;
position = "{344, 730}";
}
);
background = {
paths = (
{
closed = 1;
nodes = (
"294 321 LINE",
"330 305 OFFCURVE",
"348 276 OFFCURVE",
"381 197 CURVE SMOOTH",
"420 102 LINE SMOOTH",
"454 19 OFFCURVE",
"493 -14 OFFCURVE",
"577 -14 CURVE SMOOTH",
"626 -14 OFFCURVE",
"669 5 OFFCURVE",
"696 31 CURVE",
"673 82 LINE",
"655 71 OFFCURVE",
"640 65 OFFCURVE",
"619 65 CURVE SMOOTH",
"584 65 OFFCURVE",
"571 90 OFFCURVE",
"551 131 CURVE SMOOTH",
"496 245 LINE SMOOTH",
"473 294 OFFCURVE",
"437 322 OFFCURVE",
"383 338 CURVE",
"383 341 LINE",
"473 350 OFFCURVE",
"596 406 OFFCURVE",
"596 530 CURVE SMOOTH",
"596 659 OFFCURVE",
"492 700 OFFCURVE",
"342 700 CURVE SMOOTH",
"66 700 LINE",
"60 645 LINE",
"144 628 LINE",
"119 70 LINE",
"33 54 LINE",
"28 0 LINE",
"344 0 LINE",
"349 54 LINE",
"253 68 LINE",
"274 633 LINE",
"295 633 LINE SMOOTH",
"368 633 OFFCURVE",
"455 617 OFFCURVE",
"455 523 CURVE SMOOTH",
"455 434 OFFCURVE",
"397 381 OFFCURVE",
"299 374 CURVE"
);
}
);
};
hints = (
{
place = "{131, 132}";
},
{
place = "{455, 141}";
},
{
horizontal = 1;
place = "{-14, 79}";
},
{
horizontal = 1;
place = "{633, 67}";
},
{
horizontal = 1;
place = "{0, 21}";
target = up;
type = BottomGhost;
}
);
layerId = "D537FF15-C70F-4B12-AACC-84E5BB5FCF97";
paths = (
{
closed = 1;
nodes = (
"294 321 LINE",
"330 305 OFFCURVE",
"348 276 OFFCURVE",
"381 197 CURVE SMOOTH",
"420 102 LINE SMOOTH",
"454 19 OFFCURVE",
"493 -14 OFFCURVE",
"577 -14 CURVE SMOOTH",
"626 -14 OFFCURVE",
"669 5 OFFCURVE",
"696 31 CURVE",
"673 82 LINE",
"655 71 OFFCURVE",
"640 65 OFFCURVE",
"619 65 CURVE SMOOTH",
"584 65 OFFCURVE",
"571 90 OFFCURVE",
"551 131 CURVE SMOOTH",
"496 245 LINE SMOOTH",
"473 294 OFFCURVE",
"437 322 OFFCURVE",
"383 338 CURVE",
"383 341 LINE",
"473 350 OFFCURVE",
"596 406 OFFCURVE",
"596 530 CURVE SMOOTH",
"596 659 OFFCURVE",
"492 700 OFFCURVE",
"342 700 CURVE SMOOTH",
"66 700 LINE",
"60 645 LINE",
"144 628 LINE",
"119 70 LINE",
"33 54 LINE",
"28 0 LINE",
"344 0 LINE",
"349 54 LINE",
"253 68 LINE",
"274 633 LINE",
"295 633 LINE SMOOTH",
"368 633 OFFCURVE",
"455 617 OFFCURVE",
"455 523 CURVE SMOOTH",
"455 434 OFFCURVE",
"397 381 OFFCURVE",
"299 374 CURVE"
);
}
);
width = 697;
}
);
leftKerningGroup = H;
rightKerningGroup = R;
unicode = 0052;
},
{
glyphname = S;
lastChange = "2016-06-16 17:42:16 +0000";
layers = (
{
anchors = (
{
name = bottom;
position = "{233, -30}";
},
{
name = top;
position = "{289, 730}";
}
);
background = {
paths = (
{
closed = 1;
nodes = (
"472 408 OFFCURVE",
"152 382 OFFCURVE",
"152 545 CURVE SMOOTH",
"152 610 OFFCURVE",
"195 653 OFFCURVE",
"291 653 CURVE SMOOTH",
"365 653 OFFCURVE",
"390 616 OFFCURVE",
"371 579 CURVE SMOOTH",
"352 542 LINE",
"363 531 OFFCURVE",
"388 518 OFFCURVE",
"417 518 CURVE SMOOTH",
"452 518 OFFCURVE",
"477 543 OFFCURVE",
"477 582 CURVE SMOOTH",
"477 659 OFFCURVE",
"396 715 OFFCURVE",
"296 715 CURVE SMOOTH",
"124 715 OFFCURVE",
"70 598 OFFCURVE",
"70 519 CURVE SMOOTH",
"70 310 OFFCURVE",
"391 331 OFFCURVE",
"391 179 CURVE SMOOTH",
"391 88 OFFCURVE",
"316 49 OFFCURVE",
"239 49 CURVE SMOOTH",
"152 49 OFFCURVE",
"135 91 OFFCURVE",
"154 128 CURVE SMOOTH",
"170 161 LINE",
"159 172 OFFCURVE",
"136 187 OFFCURVE",
"103 187 CURVE SMOOTH",
"68 187 OFFCURVE",
"40 159 OFFCURVE",
"40 115 CURVE SMOOTH",
"40 43 OFFCURVE",
"117 -14 OFFCURVE",
"232 -14 CURVE SMOOTH",
"377 -14 OFFCURVE",
"472 77 OFFCURVE",
"472 197 CURVE SMOOTH"
);
}
);
};
hints = (
{
place = "{40, 112}";
},
{
place = "{70, 82}";
},
{
place = "{391, 81}";
},
{
horizontal = 1;
place = "{-14, 63}";
},
{
horizontal = 1;
place = "{518, 197}";
},
{
horizontal = 1;
place = "{653, 62}";
},
{
horizontal = 1;
place = "{-14, 201}";
}
);
layerId = UUID0;
paths = (
{
closed = 1;
nodes = (
"472 408 OFFCURVE",
"152 382 OFFCURVE",
"152 545 CURVE SMOOTH",
"152 610 OFFCURVE",
"195 653 OFFCURVE",
"291 653 CURVE SMOOTH",
"365 653 OFFCURVE",
"390 616 OFFCURVE",
"371 579 CURVE SMOOTH",
"352 542 LINE",
"363 531 OFFCURVE",
"388 518 OFFCURVE",
"417 518 CURVE SMOOTH",
"452 518 OFFCURVE",
"477 543 OFFCURVE",
"477 582 CURVE SMOOTH",
"477 659 OFFCURVE",
"396 715 OFFCURVE",
"296 715 CURVE SMOOTH",
"124 715 OFFCURVE",
"70 598 OFFCURVE",
"70 519 CURVE SMOOTH",
"70 310 OFFCURVE",
"391 331 OFFCURVE",
"391 179 CURVE SMOOTH",
"391 88 OFFCURVE",
"316 49 OFFCURVE",
"239 49 CURVE SMOOTH",
"152 49 OFFCURVE",
"135 91 OFFCURVE",
"154 128 CURVE SMOOTH",
"170 161 LINE",
"159 172 OFFCURVE",
"136 187 OFFCURVE",
"103 187 CURVE SMOOTH",
"68 187 OFFCURVE",
"40 159 OFFCURVE",
"40 115 CURVE SMOOTH",
"40 43 OFFCURVE",
"117 -14 OFFCURVE",
"232 -14 CURVE SMOOTH",
"377 -14 OFFCURVE",
"472 77 OFFCURVE",
"472 197 CURVE SMOOTH"
);
}
);
width = 496;
},
{
anchors = (
{
name = bottom;
position = "{242, -30}";
},
{
name = top;
position = "{304, 730}";
}
);
background = {
paths = (
{
closed = 1;
nodes = (
"501 434 OFFCURVE",
"181 406 OFFCURVE",
"181 548 CURVE SMOOTH",
"181 605 OFFCURVE",
"221 644 OFFCURVE",
"300 644 CURVE SMOOTH",
"374 644 OFFCURVE",
"395 617 OFFCURVE",
"375 575 CURVE SMOOTH",
"354 532 LINE",
"366 519 OFFCURVE",
"394 504 OFFCURVE",
"425 504 CURVE SMOOTH",
"463 504 OFFCURVE",
"500 531 OFFCURVE",
"500 576 CURVE SMOOTH",
"500 665 OFFCURVE",
"414 715 OFFCURVE",
"305 715 CURVE SMOOTH",
"132 715 OFFCURVE",
"69 607 OFFCURVE",
"69 513 CURVE SMOOTH",
"69 286 OFFCURVE",
"380 325 OFFCURVE",
"380 179 CURVE SMOOTH",
"380 98 OFFCURVE",
"325 61 OFFCURVE",
"248 61 CURVE SMOOTH",
"161 61 OFFCURVE",
"155 95 OFFCURVE",
"174 132 CURVE SMOOTH",
"189 162 LINE",
"177 179 OFFCURVE",
"144 199 OFFCURVE",
"111 199 CURVE SMOOTH",
"62 199 OFFCURVE",
"31 165 OFFCURVE",
"31 115 CURVE SMOOTH",
"31 47 OFFCURVE",
"101 -14 OFFCURVE",
"236 -14 CURVE SMOOTH",
"386 -14 OFFCURVE",
"501 77 OFFCURVE",
"501 207 CURVE SMOOTH"
);
}
);
};
hints = (
{
place = "{31, 150}";
},
{
place = "{69, 112}";
},
{
place = "{380, 121}";
},
{
horizontal = 1;
place = "{-14, 75}";
},
{
horizontal = 1;
place = "{644, 71}";
}
);
layerId = "D537FF15-C70F-4B12-AACC-84E5BB5FCF97";
paths = (
{
closed = 1;
nodes = (
"501 434 OFFCURVE",
"181 406 OFFCURVE",
"181 548 CURVE SMOOTH",
"181 605 OFFCURVE",
"221 644 OFFCURVE",
"300 644 CURVE SMOOTH",
"374 644 OFFCURVE",
"395 617 OFFCURVE",
"375 575 CURVE SMOOTH",
"354 532 LINE",
"366 519 OFFCURVE",
"394 504 OFFCURVE",
"425 504 CURVE SMOOTH",
"463 504 OFFCURVE",
"500 531 OFFCURVE",
"500 576 CURVE SMOOTH",
"500 665 OFFCURVE",
"414 715 OFFCURVE",
"305 715 CURVE SMOOTH",
"132 715 OFFCURVE",
"69 607 OFFCURVE",
"69 513 CURVE SMOOTH",
"69 286 OFFCURVE",
"380 325 OFFCURVE",
"380 179 CURVE SMOOTH",
"380 98 OFFCURVE",
"325 61 OFFCURVE",
"248 61 CURVE SMOOTH",
"161 61 OFFCURVE",
"155 95 OFFCURVE",
"174 132 CURVE SMOOTH",
"189 162 LINE",
"177 179 OFFCURVE",
"144 199 OFFCURVE",
"111 199 CURVE SMOOTH",
"62 199 OFFCURVE",
"31 165 OFFCURVE",
"31 115 CURVE SMOOTH",
"31 47 OFFCURVE",
"101 -14 OFFCURVE",
"236 -14 CURVE SMOOTH",
"386 -14 OFFCURVE",
"501 77 OFFCURVE",
"501 207 CURVE SMOOTH"
);
}
);
width = 521;
}
);
leftKerningGroup = S;
rightKerningGroup = S;
unicode = 0053;
},
{
glyphname = T;
lastChange = "2016-06-16 17:42:16 +0000";
layers = (
{
anchors = (
{
name = bottom;
position = "{307, -30}";
},
{
name = top;
position = "{345, 730}";
}
);
background = {
paths = (
{
closed = 1;
nodes = (
"159 0 LINE",
"457 0 LINE",
"463 46 LINE",
"354 58 LINE",
"380 643 LINE",
"469 643 LINE SMOOTH",
"537 643 OFFCURVE",
"547 613 OFFCURVE",
"564 562 CURVE SMOOTH",
"577 523 LINE",
"631 533 LINE",
"617 700 LINE",
"64 700 LINE",
"40 534 LINE",
"96 523 LINE",
"109 562 LINE SMOOTH",
"128 620 OFFCURVE",
"139 643 OFFCURVE",
"207 643 CURVE SMOOTH",
"295 643 LINE",
"270 59 LINE",
"165 46 LINE"
);
}
);
};
hints = (
{
place = "{282, 85}";
},
{
horizontal = 1;
place = "{643, 57}";
},
{
horizontal = 1;
place = "{0, 21}";
target = up;
type = BottomGhost;
}
);
layerId = UUID0;
paths = (
{
closed = 1;
nodes = (
"159 0 LINE",
"457 0 LINE",
"463 46 LINE",
"354 58 LINE",
"380 643 LINE",
"469 643 LINE SMOOTH",
"537 643 OFFCURVE",
"547 613 OFFCURVE",
"564 562 CURVE SMOOTH",
"577 523 LINE",
"631 533 LINE",
"617 700 LINE",
"64 700 LINE",
"40 534 LINE",
"96 523 LINE",
"109 562 LINE SMOOTH",
"128 620 OFFCURVE",
"139 643 OFFCURVE",
"207 643 CURVE SMOOTH",
"295 643 LINE",
"270 59 LINE",
"165 46 LINE"
);
}
);
width = 621;
},
{
anchors = (
{
name = bottom;
position = "{319, -30}";
},
{
name = top;
position = "{352, 730}";
}
);
background = {
paths = (
{
closed = 1;
nodes = (
"145 0 LINE",
"488 0 LINE",
"494 56 LINE",
"388 68 LINE",
"414 630 LINE",
"478 630 LINE SMOOTH",
"545 630 OFFCURVE",
"556 607 OFFCURVE",
"571 554 CURVE SMOOTH",
"587 499 LINE",
"651 509 LINE",
"634 700 LINE",
"59 700 LINE",
"33 510 LINE",
"99 499 LINE",
"114 554 LINE SMOOTH",
"130 612 OFFCURVE",
"144 630 OFFCURVE",
"212 630 CURVE SMOOTH",
"278 630 LINE",
"253 69 LINE",
"151 56 LINE"
);
}
);
};
hints = (
{
place = "{265, 136}";
},
{
horizontal = 1;
place = "{630, 70}";
},
{
horizontal = 1;
place = "{0, 21}";
target = up;
type = BottomGhost;
}
);
layerId = "D537FF15-C70F-4B12-AACC-84E5BB5FCF97";
paths = (
{
closed = 1;
nodes = (
"145 0 LINE",
"488 0 LINE",
"494 56 LINE",
"388 68 LINE",
"414 630 LINE",
"478 630 LINE SMOOTH",
"545 630 OFFCURVE",
"556 607 OFFCURVE",
"571 554 CURVE SMOOTH",
"587 499 LINE",
"651 509 LINE",
"634 700 LINE",
"59 700 LINE",
"33 510 LINE",
"99 499 LINE",
"114 554 LINE SMOOTH",
"130 612 OFFCURVE",
"144 630 OFFCURVE",
"212 630 CURVE SMOOTH",
"278 630 LINE",
"253 69 LINE",
"151 56 LINE"
);
}
);
width = 635;
}
);
leftKerningGroup = T;
rightKerningGroup = T;
unicode = 0054;
},
{
glyphname = U;
lastChange = "2016-06-16 17:42:16 +0000";
layers = (
{
anchors = (
{
name = bottom;
position = "{368, -30}";
},
{
name = top;
position = "{404, 730}";
}
);
background = {
paths = (
{
closed = 1;
nodes = (
"648 637 LINE",
"721 654 LINE",
"727 700 LINE",
"495 700 LINE",
"489 654 LINE",
"572 637 LINE",
"563 570 LINE SMOOTH",
"546 444 OFFCURVE",
"504 267 OFFCURVE",
"452 162 CURVE SMOOTH",
"415 88 OFFCURVE",
"369 58 OFFCURVE",
"313 58 CURVE SMOOTH",
"240 58 OFFCURVE",
"208 102 OFFCURVE",
"214 230 CURVE SMOOTH",
"235 637 LINE",
"320 654 LINE",
"326 700 LINE",
"78 700 LINE",
"72 654 LINE",
"148 639 LINE",
"126 222 LINE SMOOTH",
"119 92 OFFCURVE",
"157 -14 OFFCURVE",
"300 -14 CURVE SMOOTH",
"452 -14 OFFCURVE",
"515 134 OFFCURVE",
"568 365 CURVE",
"572 365 LINE",
"537 12 LINE",
"544 0 LINE",
"696 0 LINE",
"703 47 LINE",
"617 60 LINE"
);
}
);
};
hints = (
{
place = "{137, 87}";
},
{
horizontal = 1;
place = "{-14, 72}";
},
{
horizontal = 1;
place = "{700, -20}";
target = down;
type = TopGhost;
},
{
horizontal = 1;
place = "{0, 21}";
target = up;
type = BottomGhost;
}
);
layerId = UUID0;
paths = (
{
closed = 1;
nodes = (
"648 637 LINE",
"721 654 LINE",
"727 700 LINE",
"495 700 LINE",
"489 654 LINE",
"572 637 LINE",
"563 570 LINE SMOOTH",
"546 444 OFFCURVE",
"504 267 OFFCURVE",
"452 162 CURVE SMOOTH",
"415 88 OFFCURVE",
"369 58 OFFCURVE",
"313 58 CURVE SMOOTH",
"240 58 OFFCURVE",
"208 102 OFFCURVE",
"214 230 CURVE SMOOTH",
"235 637 LINE",
"320 654 LINE",
"326 700 LINE",
"78 700 LINE",
"72 654 LINE",
"148 639 LINE",
"126 222 LINE SMOOTH",
"119 92 OFFCURVE",
"157 -14 OFFCURVE",
"300 -14 CURVE SMOOTH",
"452 -14 OFFCURVE",
"515 134 OFFCURVE",
"568 365 CURVE",
"572 365 LINE",
"537 12 LINE",
"544 0 LINE",
"696 0 LINE",
"703 47 LINE",
"617 60 LINE"
);
}
);
width = 758;
},
{
anchors = (
{
name = bottom;
position = "{370, -30}";
},
{
name = top;
position = "{418, 730}";
}
);
background = {
paths = (
{
closed = 1;
nodes = (
"680 627 LINE",
"750 644 LINE",
"756 700 LINE",
"484 700 LINE",
"478 644 LINE",
"556 627 LINE",
"547 570 LINE SMOOTH",
"530 463 OFFCURVE",
"486 277 OFFCURVE",
"432 173 CURVE SMOOTH",
"410 131 OFFCURVE",
"372 87 OFFCURVE",
"322 87 CURVE SMOOTH",
"254 87 OFFCURVE",
"241 138 OFFCURVE",
"246 230 CURVE SMOOTH",
"267 627 LINE",
"349 644 LINE",
"355 700 LINE",
"67 700 LINE",
"61 644 LINE",
"134 629 LINE",
"111 231 LINE SMOOTH",
"102 83 OFFCURVE",
"142 -14 OFFCURVE",
"295 -14 CURVE SMOOTH",
"461 -14 OFFCURVE",
"513 146 OFFCURVE",
"565 365 CURVE",
"569 365 LINE",
"531 12 LINE",
"538 0 LINE",
"725 0 LINE",
"732 56 LINE",
"649 69 LINE"
);
}
);
};
hints = (
{
place = "{122, 134}";
},
{
horizontal = 1;
place = "{-14, 101}";
},
{
horizontal = 1;
place = "{700, -20}";
target = down;
type = TopGhost;
},
{
horizontal = 1;
place = "{0, 21}";
target = up;
type = BottomGhost;
}
);
layerId = "D537FF15-C70F-4B12-AACC-84E5BB5FCF97";
paths = (
{
closed = 1;
nodes = (
"680 627 LINE",
"750 644 LINE",
"756 700 LINE",
"484 700 LINE",
"478 644 LINE",
"556 627 LINE",
"547 570 LINE SMOOTH",
"530 463 OFFCURVE",
"486 277 OFFCURVE",
"432 173 CURVE SMOOTH",
"410 131 OFFCURVE",
"372 87 OFFCURVE",
"322 87 CURVE SMOOTH",
"254 87 OFFCURVE",
"241 138 OFFCURVE",
"246 230 CURVE SMOOTH",
"267 627 LINE",
"349 644 LINE",
"355 700 LINE",
"67 700 LINE",
"61 644 LINE",
"134 629 LINE",
"111 231 LINE SMOOTH",
"102 83 OFFCURVE",
"142 -14 OFFCURVE",
"295 -14 CURVE SMOOTH",
"461 -14 OFFCURVE",
"513 146 OFFCURVE",
"565 365 CURVE",
"569 365 LINE",
"531 12 LINE",
"538 0 LINE",
"725 0 LINE",
"732 56 LINE",
"649 69 LINE"
);
}
);
width = 769;
}
);
leftKerningGroup = U;
rightKerningGroup = H;
unicode = 0055;
},
{
glyphname = V;
lastChange = "2016-06-16 17:42:16 +0000";
layers = (
{
anchors = (
{
name = top;
position = "{388, 730}";
}
);
background = {
paths = (
{
closed = 1;
nodes = (
"204 640 LINE",
"292 653 LINE",
"298 700 LINE",
"35 700 LINE",
"28 653 LINE",
"105 638 LINE",
"295 -11 LINE",
"398 2 LINE",
"632 635 LINE",
"712 652 LINE",
"719 700 LINE",
"482 700 LINE",
"476 656 LINE",
"563 638 LINE",
"363 86 LINE",
"359 86 LINE"
);
}
);
};
hints = (
{
horizontal = 1;
place = "{700, -20}";
target = down;
type = TopGhost;
},
{
horizontal = 1;
place = "{-11, 21}";
target = up;
type = BottomGhost;
}
);
layerId = UUID0;
paths = (
{
closed = 1;
nodes = (
"204 640 LINE",
"292 653 LINE",
"298 700 LINE",
"35 700 LINE",
"28 653 LINE",
"105 638 LINE",
"295 -11 LINE",
"398 2 LINE",
"632 635 LINE",
"712 652 LINE",
"719 700 LINE",
"482 700 LINE",
"476 656 LINE",
"563 638 LINE",
"363 86 LINE",
"359 86 LINE"
);
}
);
width = 690;
},
{
anchors = (
{
name = top;
position = "{403, 730}";
}
);
background = {
paths = (
{
closed = 1;
nodes = (
"233 630 LINE",
"321 643 LINE",
"327 700 LINE",
"30 700 LINE",
"23 643 LINE",
"96 628 LINE",
"286 -14 LINE",
"419 -1 LINE",
"649 625 LINE",
"727 642 LINE",
"734 700 LINE",
"487 700 LINE",
"481 646 LINE",
"565 628 LINE",
"381 112 LINE",
"377 112 LINE"
);
}
);
};
hints = (
{
horizontal = 1;
place = "{700, -20}";
target = down;
type = TopGhost;
},
{
horizontal = 1;
place = "{-14, 21}";
target = up;
type = BottomGhost;
}
);
layerId = "D537FF15-C70F-4B12-AACC-84E5BB5FCF97";
paths = (
{
closed = 1;
nodes = (
"233 630 LINE",
"321 643 LINE",
"327 700 LINE",
"30 700 LINE",
"23 643 LINE",
"96 628 LINE",
"286 -14 LINE",
"419 -1 LINE",
"649 625 LINE",
"727 642 LINE",
"734 700 LINE",
"487 700 LINE",
"481 646 LINE",
"565 628 LINE",
"381 112 LINE",
"377 112 LINE"
);
}
);
width = 705;
}
);
leftKerningGroup = V;
rightKerningGroup = V;
unicode = 0056;
},
{
glyphname = W;
lastChange = "2016-06-16 17:42:16 +0000";
layers = (
{
anchors = (
{
name = top;
position = "{520, 730}";
}
);
background = {
paths = (
{
closed = 1;
nodes = (
"543 701 LINE",
"447 685 LINE",
"495 512 LINE",
"330 86 LINE",
"326 86 LINE",
"201 640 LINE",
"289 653 LINE",
"295 700 LINE",
"32 700 LINE",
"25 653 LINE",
"102 638 LINE",
"260 -10 LINE",
"365 0 LINE",
"524 408 LINE",
"641 -10 LINE",
"746 0 LINE",
"940 635 LINE",
"1020 652 LINE",
"1027 700 LINE",
"790 700 LINE",
"784 656 LINE",
"871 638 LINE",
"711 86 LINE",
"707 86 LINE"
);
}
);
};
hints = (
{
horizontal = 1;
place = "{701, -20}";
target = down;
type = TopGhost;
},
{
horizontal = 1;
place = "{700, -20}";
target = down;
type = TopGhost;
},
{
horizontal = 1;
place = "{-10, 21}";
target = up;
type = BottomGhost;
}
);
layerId = UUID0;
paths = (
{
closed = 1;
nodes = (
"543 701 LINE",
"447 685 LINE",
"495 512 LINE",
"330 86 LINE",
"326 86 LINE",
"201 640 LINE",
"289 653 LINE",
"295 700 LINE",
"32 700 LINE",
"25 653 LINE",
"102 638 LINE",
"260 -10 LINE",
"365 0 LINE",
"524 408 LINE",
"641 -10 LINE",
"746 0 LINE",
"940 635 LINE",
"1020 652 LINE",
"1027 700 LINE",
"790 700 LINE",
"784 656 LINE",
"871 638 LINE",
"711 86 LINE",
"707 86 LINE"
);
}
);
width = 993;
},
{
anchors = (
{
name = top;
position = "{522, 730}";
}
);
background = {
paths = (
{
closed = 1;
nodes = (
"568 701 LINE",
"432 685 LINE",
"482 480 LINE",
"348 114 LINE",
"344 114 LINE",
"224 630 LINE",
"315 643 LINE",
"321 700 LINE",
"21 700 LINE",
"14 643 LINE",
"87 628 LINE",
"248 -10 LINE",
"388 -2 LINE",
"517 367 LINE",
"621 -10 LINE",
"769 0 LINE",
"953 625 LINE",
"1030 642 LINE",
"1037 700 LINE",
"790 700 LINE",
"784 646 LINE",
"868 628 LINE",
"723 122 LINE",
"719 122 LINE"
);
}
);
};
hints = (
{
horizontal = 1;
place = "{701, -20}";
target = down;
type = TopGhost;
},
{
horizontal = 1;
place = "{700, -20}";
target = down;
type = TopGhost;
},
{
horizontal = 1;
place = "{-10, 21}";
target = up;
type = BottomGhost;
}
);
layerId = "D537FF15-C70F-4B12-AACC-84E5BB5FCF97";
paths = (
{
closed = 1;
nodes = (
"568 701 LINE",
"432 685 LINE",
"482 480 LINE",
"348 114 LINE",
"344 114 LINE",
"224 630 LINE",
"315 643 LINE",
"321 700 LINE",
"21 700 LINE",
"14 643 LINE",
"87 628 LINE",
"248 -10 LINE",
"388 -2 LINE",
"517 367 LINE",
"621 -10 LINE",
"769 0 LINE",
"953 625 LINE",
"1030 642 LINE",
"1037 700 LINE",
"790 700 LINE",
"784 646 LINE",
"868 628 LINE",
"723 122 LINE",
"719 122 LINE"
);
}
);
width = 1003;
}
);
leftKerningGroup = W;
rightKerningGroup = W;
unicode = 0057;
},
{
glyphname = X;
lastChange = "2016-06-16 17:42:16 +0000";
layers = (
{
background = {
paths = (
{
closed = 1;
nodes = (
"337 297 LINE",
"486 59 LINE",
"412 47 LINE",
"406 0 LINE",
"670 0 LINE",
"677 47 LINE",
"591 62 LINE",
"395 367 LINE",
"588 635 LINE",
"666 652 LINE",
"673 700 LINE",
"441 700 LINE",
"435 656 LINE",
"517 638 LINE",
"361 413 LINE",
"224 641 LINE",
"300 653 LINE",
"306 700 LINE",
"50 700 LINE",
"43 653 LINE",
"113 639 LINE",
"302 344 LINE",
"99 64 LINE",
"22 48 LINE",
"15 0 LINE",
"247 0 LINE",
"253 44 LINE",
"172 61 LINE"
);
}
);
};
hints = (
{
horizontal = 1;
place = "{0, 21}";
target = up;
type = BottomGhost;
},
{
horizontal = 1;
place = "{700, -20}";
target = down;
type = TopGhost;
}
);
layerId = UUID0;
paths = (
{
closed = 1;
nodes = (
"337 297 LINE",
"486 59 LINE",
"412 47 LINE",
"406 0 LINE",
"670 0 LINE",
"677 47 LINE",
"591 62 LINE",
"395 367 LINE",
"588 635 LINE",
"666 652 LINE",
"673 700 LINE",
"441 700 LINE",
"435 656 LINE",
"517 638 LINE",
"361 413 LINE",
"224 641 LINE",
"300 653 LINE",
"306 700 LINE",
"50 700 LINE",
"43 653 LINE",
"113 639 LINE",
"302 344 LINE",
"99 64 LINE",
"22 48 LINE",
"15 0 LINE",
"247 0 LINE",
"253 44 LINE",
"172 61 LINE"
);
}
);
width = 693;
},
{
background = {
paths = (
{
closed = 1;
nodes = (
"343 287 LINE",
"483 69 LINE",
"410 57 LINE",
"404 0 LINE",
"708 0 LINE",
"715 57 LINE",
"632 72 LINE",
"438 359 LINE",
"626 625 LINE",
"704 642 LINE",
"711 700 LINE",
"463 700 LINE",
"457 646 LINE",
"536 628 LINE",
"394 424 LINE",
"262 631 LINE",
"338 643 LINE",
"344 700 LINE",
"50 700 LINE",
"43 643 LINE",
"113 629 LINE",
"296 353 LINE",
"96 74 LINE",
"19 58 LINE",
"12 0 LINE",
"260 0 LINE",
"266 54 LINE",
"188 71 LINE"
);
}
);
};
hints = (
{
horizontal = 1;
place = "{0, 21}";
target = up;
type = BottomGhost;
},
{
horizontal = 1;
place = "{700, -20}";
target = down;
type = TopGhost;
}
);
layerId = "D537FF15-C70F-4B12-AACC-84E5BB5FCF97";
paths = (
{
closed = 1;
nodes = (
"343 287 LINE",
"483 69 LINE",
"410 57 LINE",
"404 0 LINE",
"708 0 LINE",
"715 57 LINE",
"632 72 LINE",
"438 359 LINE",
"626 625 LINE",
"704 642 LINE",
"711 700 LINE",
"463 700 LINE",
"457 646 LINE",
"536 628 LINE",
"394 424 LINE",
"262 631 LINE",
"338 643 LINE",
"344 700 LINE",
"50 700 LINE",
"43 643 LINE",
"113 629 LINE",
"296 353 LINE",
"96 74 LINE",
"19 58 LINE",
"12 0 LINE",
"260 0 LINE",
"266 54 LINE",
"188 71 LINE"
);
}
);
width = 702;
}
);
unicode = 0058;
},
{
glyphname = Y;
lastChange = "2016-06-16 17:42:16 +0000";
layers = (
{
anchors = (
{
name = top;
position = "{371, 730}";
}
);
background = {
paths = (
{
closed = 1;
nodes = (
"200 640 LINE",
"283 653 LINE",
"289 700 LINE",
"31 700 LINE",
"24 653 LINE",
"101 638 LINE",
"305 259 LINE",
"294 59 LINE",
"212 46 LINE",
"206 0 LINE",
"471 0 LINE",
"477 46 LINE",
"382 59 LINE",
"390 261 LINE",
"608 635 LINE",
"688 652 LINE",
"695 700 LINE",
"458 700 LINE",
"452 656 LINE",
"539 638 LINE",
"366 327 LINE",
"362 327 LINE"
);
}
);
};
hints = (
{
place = "{299, 87}";
},
{
horizontal = 1;
place = "{700, -20}";
target = down;
type = TopGhost;
},
{
horizontal = 1;
place = "{0, 21}";
target = up;
type = BottomGhost;
}
);
layerId = UUID0;
paths = (
{
closed = 1;
nodes = (
"200 640 LINE",
"283 653 LINE",
"289 700 LINE",
"31 700 LINE",
"24 653 LINE",
"101 638 LINE",
"305 259 LINE",
"294 59 LINE",
"212 46 LINE",
"206 0 LINE",
"471 0 LINE",
"477 46 LINE",
"382 59 LINE",
"390 261 LINE",
"608 635 LINE",
"688 652 LINE",
"695 700 LINE",
"458 700 LINE",
"452 656 LINE",
"539 638 LINE",
"366 327 LINE",
"362 327 LINE"
);
}
);
width = 661;
},
{
anchors = (
{
name = top;
position = "{387, 730}";
}
);
background = {
paths = (
{
closed = 1;
nodes = (
"222 630 LINE",
"307 643 LINE",
"313 700 LINE",
"24 700 LINE",
"17 643 LINE",
"85 628 LINE",
"276 262 LINE",
"265 69 LINE",
"183 56 LINE",
"177 0 LINE",
"485 0 LINE",
"491 56 LINE",
"399 69 LINE",
"407 260 LINE",
"624 625 LINE",
"702 642 LINE",
"709 700 LINE",
"459 700 LINE",
"453 646 LINE",
"536 628 LINE",
"372 344 LINE",
"368 344 LINE"
);
}
);
};
hints = (
{
place = "{270, 133}";
},
{
horizontal = 1;
place = "{700, -20}";
target = down;
type = TopGhost;
},
{
horizontal = 1;
place = "{0, 21}";
target = up;
type = BottomGhost;
}
);
layerId = "D537FF15-C70F-4B12-AACC-84E5BB5FCF97";
paths = (
{
closed = 1;
nodes = (
"222 630 LINE",
"307 643 LINE",
"313 700 LINE",
"24 700 LINE",
"17 643 LINE",
"85 628 LINE",
"276 262 LINE",
"265 69 LINE",
"183 56 LINE",
"177 0 LINE",
"485 0 LINE",
"491 56 LINE",
"399 69 LINE",
"407 260 LINE",
"624 625 LINE",
"702 642 LINE",
"709 700 LINE",
"459 700 LINE",
"453 646 LINE",
"536 628 LINE",
"372 344 LINE",
"368 344 LINE"
);
}
);
width = 675;
}
);
leftKerningGroup = Y;
rightKerningGroup = Y;
unicode = 0059;
},
{
glyphname = Z;
lastChange = "2016-06-16 17:42:16 +0000";
layers = (
{
anchors = (
{
name = bottom;
position = "{302, -30}";
},
{
name = top;
position = "{335, 730}";
}
);
background = {
paths = (
{
closed = 1;
nodes = (
"573 700 LINE",
"109 700 LINE",
"84 524 LINE",
"141 514 LINE",
"155 560 LINE SMOOTH",
"177 633 OFFCURVE",
"194 647 OFFCURVE",
"266 647 CURVE SMOOTH",
"472 647 LINE",
"57 48 LINE",
"55 0 LINE",
"546 0 LINE",
"572 199 LINE",
"517 199 LINE",
"504 154 LINE SMOOTH",
"480 70 OFFCURVE",
"450 55 OFFCURVE",
"376 55 CURVE SMOOTH",
"166 55 LINE",
"579 650 LINE"
);
}
);
};
hints = (
{
horizontal = 1;
place = "{0, 55}";
},
{
horizontal = 1;
place = "{647, 53}";
}
);
layerId = UUID0;
paths = (
{
closed = 1;
nodes = (
"573 700 LINE",
"109 700 LINE",
"84 524 LINE",
"141 514 LINE",
"155 560 LINE SMOOTH",
"177 633 OFFCURVE",
"194 647 OFFCURVE",
"266 647 CURVE SMOOTH",
"472 647 LINE",
"57 48 LINE",
"55 0 LINE",
"546 0 LINE",
"572 199 LINE",
"517 199 LINE",
"504 154 LINE SMOOTH",
"480 70 OFFCURVE",
"450 55 OFFCURVE",
"376 55 CURVE SMOOTH",
"166 55 LINE",
"579 650 LINE"
);
}
);
width = 611;
},
{
anchors = (
{
name = bottom;
position = "{319, -30}";
},
{
name = top;
position = "{341, 730}";
}
);
background = {
paths = (
{
closed = 1;
nodes = (
"593 700 LINE",
"95 700 LINE",
"69 505 LINE",
"138 495 LINE",
"153 547 LINE SMOOTH",
"174 618 OFFCURVE",
"190 628 OFFCURVE",
"262 628 CURVE SMOOTH",
"436 628 LINE",
"50 52 LINE",
"49 0 LINE",
"576 0 LINE",
"602 212 LINE",
"535 212 LINE",
"522 167 LINE SMOOTH",
"498 83 OFFCURVE",
"466 72 OFFCURVE",
"392 72 CURVE SMOOTH",
"217 72 LINE",
"599 642 LINE"
);
}
);
};
hints = (
{
horizontal = 1;
place = "{0, 72}";
},
{
horizontal = 1;
place = "{628, 72}";
}
);
layerId = "D537FF15-C70F-4B12-AACC-84E5BB5FCF97";
paths = (
{
closed = 1;
nodes = (
"593 700 LINE",
"95 700 LINE",
"69 505 LINE",
"138 495 LINE",
"153 547 LINE SMOOTH",
"174 618 OFFCURVE",
"190 628 OFFCURVE",
"262 628 CURVE SMOOTH",
"436 628 LINE",
"50 52 LINE",
"49 0 LINE",
"576 0 LINE",
"602 212 LINE",
"535 212 LINE",
"522 167 LINE SMOOTH",
"498 83 OFFCURVE",
"466 72 OFFCURVE",
"392 72 CURVE SMOOTH",
"217 72 LINE",
"599 642 LINE"
);
}
);
width = 623;
}
);
leftKerningGroup = Z;
rightKerningGroup = Z;
unicode = 005A;
},
{
glyphname = a;
lastChange = "2016-06-05 15:24:03 +0000";
layers = (
{
anchors = (
{
name = bottom;
position = "{273, -30}";
},
{
name = top;
position = "{301, 550}";
}
);
background = {
paths = (
{
closed = 1;
nodes = (
"479 511 LINE",
"462 519 LINE",
"392 496 LINE",
"368 508 OFFCURVE",
"325 521 OFFCURVE",
"278 521 CURVE SMOOTH",
"145 521 OFFCURVE",
"48 390 OFFCURVE",
"48 201 CURVE SMOOTH",
"48 77 OFFCURVE",
"96 -14 OFFCURVE",
"203 -14 CURVE SMOOTH",
"299 -14 OFFCURVE",
"340 59 OFFCURVE",
"376 193 CURVE SMOOTH",
"398 275 LINE",
"405 274 LINE",
"388 86 LINE SMOOTH",
"385 29 OFFCURVE",
"397 -14 OFFCURVE",
"456 -14 CURVE SMOOTH",
"497 -14 OFFCURVE",
"543 13 OFFCURVE",
"565 34 CURVE",
"540 72 LINE",
"521 56 OFFCURVE",
"504 47 OFFCURVE",
"491 47 CURVE SMOOTH",
"469 47 OFFCURVE",
"466 60 OFFCURVE",
"466 90 CURVE SMOOTH"
);
},
{
closed = 1;
nodes = (
"138 54 OFFCURVE",
"139 159 OFFCURVE",
"139 205 CURVE SMOOTH",
"139 355 OFFCURVE",
"199 460 OFFCURVE",
"287 460 CURVE SMOOTH",
"323 460 OFFCURVE",
"370 449 OFFCURVE",
"395 436 CURVE",
"362 317 LINE SMOOTH",
"315 149 OFFCURVE",
"293 54 OFFCURVE",
"216 54 CURVE SMOOTH"
);
}
);
};
hints = (
{
place = "{48, 91}";
},
{
place = "{388, 84}";
},
{
horizontal = 1;
place = "{-14, 68}";
},
{
horizontal = 1;
place = "{460, 61}";
}
);
layerId = UUID0;
paths = (
{
closed = 1;
nodes = (
"479 511 LINE",
"462 519 LINE",
"392 496 LINE",
"368 508 OFFCURVE",
"325 521 OFFCURVE",
"278 521 CURVE SMOOTH",
"145 521 OFFCURVE",
"48 390 OFFCURVE",
"48 201 CURVE SMOOTH",
"48 77 OFFCURVE",
"96 -14 OFFCURVE",
"203 -14 CURVE SMOOTH",
"299 -14 OFFCURVE",
"340 59 OFFCURVE",
"376 193 CURVE SMOOTH",
"398 275 LINE",
"405 274 LINE",
"388 86 LINE SMOOTH",
"385 29 OFFCURVE",
"397 -14 OFFCURVE",
"456 -14 CURVE SMOOTH",
"497 -14 OFFCURVE",
"543 13 OFFCURVE",
"565 34 CURVE",
"540 72 LINE",
"521 56 OFFCURVE",
"504 47 OFFCURVE",
"491 47 CURVE SMOOTH",
"469 47 OFFCURVE",
"466 60 OFFCURVE",
"466 90 CURVE SMOOTH"
);
},
{
closed = 1;
nodes = (
"138 54 OFFCURVE",
"139 159 OFFCURVE",
"139 205 CURVE SMOOTH",
"139 355 OFFCURVE",
"199 460 OFFCURVE",
"287 460 CURVE SMOOTH",
"323 460 OFFCURVE",
"370 449 OFFCURVE",
"395 436 CURVE",
"362 317 LINE SMOOTH",
"315 149 OFFCURVE",
"293 54 OFFCURVE",
"216 54 CURVE SMOOTH"
);
}
);
width = 575;
},
{
anchors = (
{
name = bottom;
position = "{273, -30}";
},
{
name = top;
position = "{302, 550}";
}
);
background = {
paths = (
{
closed = 1;
nodes = (
"503 512 LINE",
"466 525 LINE",
"394 502 LINE",
"370 514 OFFCURVE",
"327 527 OFFCURVE",
"280 527 CURVE SMOOTH",
"121 527 OFFCURVE",
"32 390 OFFCURVE",
"32 201 CURVE SMOOTH",
"32 73 OFFCURVE",
"88 -14 OFFCURVE",
"191 -14 CURVE SMOOTH",
"301 -14 OFFCURVE",
"326 61 OFFCURVE",
"361 185 CURVE SMOOTH",
"383 263 LINE",
"390 262 LINE",
"374 89 LINE SMOOTH",
"369 29 OFFCURVE",
"391 -14 OFFCURVE",
"464 -14 CURVE SMOOTH",
"509 -14 OFFCURVE",
"560 13 OFFCURVE",
"582 34 CURVE",
"558 82 LINE",
"544 72 OFFCURVE",
"528 65 OFFCURVE",
"515 65 CURVE SMOOTH",
"493 65 OFFCURVE",
"489 78 OFFCURVE",
"490 108 CURVE SMOOTH"
);
},
{
closed = 1;
nodes = (
"173 68 OFFCURVE",
"166 107 OFFCURVE",
"166 187 CURVE SMOOTH",
"166 340 OFFCURVE",
"203 456 OFFCURVE",
"294 456 CURVE SMOOTH",
"323 456 OFFCURVE",
"345 451 OFFCURVE",
"370 438 CURVE",
"336 314 LINE SMOOTH",
"288 141 OFFCURVE",
"267 68 OFFCURVE",
"217 68 CURVE SMOOTH"
);
}
);
};
hints = (
{
place = "{32, 134}";
},
{
horizontal = 1;
place = "{456, 71}";
},
{
horizontal = 1;
origin = "{1, 0}";
target = "{0, 11}";
}
);
layerId = "D537FF15-C70F-4B12-AACC-84E5BB5FCF97";
paths = (
{
closed = 1;
nodes = (
"503 512 LINE",
"466 525 LINE",
"394 502 LINE",
"370 514 OFFCURVE",
"327 527 OFFCURVE",
"280 527 CURVE SMOOTH",
"121 527 OFFCURVE",
"32 390 OFFCURVE",
"32 201 CURVE SMOOTH",
"32 73 OFFCURVE",
"88 -14 OFFCURVE",
"191 -14 CURVE SMOOTH",
"301 -14 OFFCURVE",
"326 61 OFFCURVE",
"361 185 CURVE SMOOTH",
"383 263 LINE",
"390 262 LINE",
"374 89 LINE SMOOTH",
"369 29 OFFCURVE",
"391 -14 OFFCURVE",
"464 -14 CURVE SMOOTH",
"509 -14 OFFCURVE",
"560 13 OFFCURVE",
"582 34 CURVE",
"558 82 LINE",
"544 72 OFFCURVE",
"528 65 OFFCURVE",
"515 65 CURVE SMOOTH",
"493 65 OFFCURVE",
"489 78 OFFCURVE",
"490 108 CURVE SMOOTH"
);
},
{
closed = 1;
nodes = (
"173 68 OFFCURVE",
"166 107 OFFCURVE",
"166 187 CURVE SMOOTH",
"166 340 OFFCURVE",
"203 456 OFFCURVE",
"294 456 CURVE SMOOTH",
"323 456 OFFCURVE",
"345 451 OFFCURVE",
"370 438 CURVE",
"336 314 LINE SMOOTH",
"288 141 OFFCURVE",
"267 68 OFFCURVE",
"217 68 CURVE SMOOTH"
);
}
);
width = 579;
}
);
leftKerningGroup = o;
rightKerningGroup = a;
unicode = 0061;
},
{
glyphname = b;
lastChange = "2016-06-05 15:24:03 +0000";
layers = (
{
background = {
paths = (
{
closed = 1;
nodes = (
"423 -14 OFFCURVE",
"524 100 OFFCURVE",
"524 308 CURVE SMOOTH",
"524 440 OFFCURVE",
"479 521 OFFCURVE",
"376 521 CURVE SMOOTH",
"286 521 OFFCURVE",
"240 462 OFFCURVE",
"204 326 CURVE SMOOTH",
"167 188 LINE",
"159 190 LINE",
"186 425 LINE",
"198 756 LINE",
"182 767 LINE",
"26 767 LINE",
"20 719 LINE",
"113 698 LINE",
"90 32 LINE",
"133 7 OFFCURVE",
"218 -14 OFFCURVE",
"282 -14 CURVE SMOOTH"
);
},
{
closed = 1;
nodes = (
"433 451 OFFCURVE",
"434 357 OFFCURVE",
"434 301 CURVE SMOOTH",
"434 153 OFFCURVE",
"374 48 OFFCURVE",
"281 48 CURVE SMOOTH",
"237 48 OFFCURVE",
"205 60 OFFCURVE",
"181 71 CURVE",
"214 186 LINE SMOOTH",
"264 357 OFFCURVE",
"284 451 OFFCURVE",
"363 451 CURVE SMOOTH"
);
}
);
};
hints = (
{
place = "{101, 91}";
},
{
place = "{434, 90}";
},
{
horizontal = 1;
place = "{-14, 62}";
},
{
horizontal = 1;
place = "{451, 70}";
},
{
horizontal = 1;
place = "{767, -20}";
target = down;
type = TopGhost;
}
);
layerId = UUID0;
paths = (
{
closed = 1;
nodes = (
"423 -14 OFFCURVE",
"524 100 OFFCURVE",
"524 308 CURVE SMOOTH",
"524 440 OFFCURVE",
"479 521 OFFCURVE",
"376 521 CURVE SMOOTH",
"286 521 OFFCURVE",
"240 462 OFFCURVE",
"204 326 CURVE SMOOTH",
"167 188 LINE",
"159 190 LINE",
"186 425 LINE",
"198 756 LINE",
"182 767 LINE",
"26 767 LINE",
"20 719 LINE",
"113 698 LINE",
"90 32 LINE",
"133 7 OFFCURVE",
"218 -14 OFFCURVE",
"282 -14 CURVE SMOOTH"
);
},
{
closed = 1;
nodes = (
"433 451 OFFCURVE",
"434 357 OFFCURVE",
"434 301 CURVE SMOOTH",
"434 153 OFFCURVE",
"374 48 OFFCURVE",
"281 48 CURVE SMOOTH",
"237 48 OFFCURVE",
"205 60 OFFCURVE",
"181 71 CURVE",
"214 186 LINE SMOOTH",
"264 357 OFFCURVE",
"284 451 OFFCURVE",
"363 451 CURVE SMOOTH"
);
}
);
width = 574;
},
{
background = {
paths = (
{
closed = 1;
nodes = (
"436 -14 OFFCURVE",
"542 100 OFFCURVE",
"542 308 CURVE SMOOTH",
"542 440 OFFCURVE",
"494 527 OFFCURVE",
"386 527 CURVE SMOOTH",
"290 527 OFFCURVE",
"248 467 OFFCURVE",
"210 326 CURVE SMOOTH",
"173 188 LINE",
"165 190 LINE",
"195 425 LINE",
"207 756 LINE",
"191 767 LINE",
"15 767 LINE",
"9 713 LINE",
"89 692 LINE",
"64 33 LINE",
"107 8 OFFCURVE",
"213 -14 OFFCURVE",
"280 -14 CURVE SMOOTH"
);
},
{
closed = 1;
nodes = (
"408 438 OFFCURVE",
"408 362 OFFCURVE",
"408 301 CURVE SMOOTH",
"408 180 OFFCURVE",
"372 56 OFFCURVE",
"279 56 CURVE SMOOTH",
"239 56 OFFCURVE",
"218 67 OFFCURVE",
"204 75 CURVE",
"242 203 LINE SMOOTH",
"292 374 OFFCURVE",
"308 438 OFFCURVE",
"362 438 CURVE SMOOTH"
);
}
);
};
hints = (
{
place = "{76, 125}";
},
{
place = "{408, 134}";
},
{
horizontal = 1;
place = "{-14, 70}";
},
{
horizontal = 1;
place = "{438, 89}";
},
{
horizontal = 1;
place = "{767, -20}";
target = down;
type = TopGhost;
}
);
layerId = "D537FF15-C70F-4B12-AACC-84E5BB5FCF97";
paths = (
{
closed = 1;
nodes = (
"436 -14 OFFCURVE",
"542 100 OFFCURVE",
"542 308 CURVE SMOOTH",
"542 440 OFFCURVE",
"494 527 OFFCURVE",
"386 527 CURVE SMOOTH",
"290 527 OFFCURVE",
"248 467 OFFCURVE",
"210 326 CURVE SMOOTH",
"173 188 LINE",
"165 190 LINE",
"195 425 LINE",
"207 756 LINE",
"191 767 LINE",
"15 767 LINE",
"9 713 LINE",
"89 692 LINE",
"64 33 LINE",
"107 8 OFFCURVE",
"213 -14 OFFCURVE",
"280 -14 CURVE SMOOTH"
);
},
{
closed = 1;
nodes = (
"408 438 OFFCURVE",
"408 362 OFFCURVE",
"408 301 CURVE SMOOTH",
"408 180 OFFCURVE",
"372 56 OFFCURVE",
"279 56 CURVE SMOOTH",
"239 56 OFFCURVE",
"218 67 OFFCURVE",
"204 75 CURVE",
"242 203 LINE SMOOTH",
"292 374 OFFCURVE",
"308 438 OFFCURVE",
"362 438 CURVE SMOOTH"
);
}
);
width = 577;
}
);
rightKerningGroup = o;
unicode = 0062;
},
{
glyphname = c;
lastChange = "2016-06-05 15:24:03 +0000";
layers = (
{
anchors = (
{
name = bottom;
position = "{243, -30}";
},
{
name = top;
position = "{284, 550}";
}
);
background = {
paths = (
{
closed = 1;
nodes = (
"144 521 OFFCURVE",
"48 397 OFFCURVE",
"48 225 CURVE SMOOTH",
"48 88 OFFCURVE",
"117 -14 OFFCURVE",
"244 -14 CURVE SMOOTH",
"345 -14 OFFCURVE",
"411 61 OFFCURVE",
"435 93 CURVE",
"400 129 LINE",
"368 97 OFFCURVE",
"326 52 OFFCURVE",
"262 52 CURVE SMOOTH",
"179 52 OFFCURVE",
"139 132 OFFCURVE",
"139 228 CURVE SMOOTH",
"139 387 OFFCURVE",
"198 465 OFFCURVE",
"290 465 CURVE SMOOTH",
"341 465 OFFCURVE",
"381 440 OFFCURVE",
"342 396 CURVE SMOOTH",
"321 372 LINE",
"331 348 OFFCURVE",
"355 330 OFFCURVE",
"383 330 CURVE SMOOTH",
"421 330 OFFCURVE",
"444 356 OFFCURVE",
"444 394 CURVE SMOOTH",
"444 473 OFFCURVE",
"379 521 OFFCURVE",
"292 521 CURVE SMOOTH"
);
}
);
};
hints = (
{
place = "{48, 91}";
},
{
horizontal = 1;
place = "{-14, 66}";
},
{
horizontal = 1;
place = "{465, 56}";
}
);
layerId = UUID0;
paths = (
{
closed = 1;
nodes = (
"144 521 OFFCURVE",
"48 397 OFFCURVE",
"48 225 CURVE SMOOTH",
"48 88 OFFCURVE",
"117 -14 OFFCURVE",
"244 -14 CURVE SMOOTH",
"345 -14 OFFCURVE",
"411 61 OFFCURVE",
"435 93 CURVE",
"400 129 LINE",
"368 97 OFFCURVE",
"326 52 OFFCURVE",
"262 52 CURVE SMOOTH",
"179 52 OFFCURVE",
"139 132 OFFCURVE",
"139 228 CURVE SMOOTH",
"139 387 OFFCURVE",
"198 465 OFFCURVE",
"290 465 CURVE SMOOTH",
"341 465 OFFCURVE",
"381 440 OFFCURVE",
"342 396 CURVE SMOOTH",
"321 372 LINE",
"331 348 OFFCURVE",
"355 330 OFFCURVE",
"383 330 CURVE SMOOTH",
"421 330 OFFCURVE",
"444 356 OFFCURVE",
"444 394 CURVE SMOOTH",
"444 473 OFFCURVE",
"379 521 OFFCURVE",
"292 521 CURVE SMOOTH"
);
}
);
width = 489;
},
{
anchors = (
{
name = bottom;
position = "{246, -30}";
},
{
name = top;
position = "{293, 550}";
}
);
background = {
paths = (
{
closed = 1;
nodes = (
"125 527 OFFCURVE",
"35 397 OFFCURVE",
"35 226 CURVE SMOOTH",
"35 78 OFFCURVE",
"110 -14 OFFCURVE",
"247 -14 CURVE SMOOTH",
"352 -14 OFFCURVE",
"419 67 OFFCURVE",
"443 99 CURVE",
"401 143 LINE",
"369 111 OFFCURVE",
"328 72 OFFCURVE",
"269 72 CURVE SMOOTH",
"194 72 OFFCURVE",
"169 137 OFFCURVE",
"169 228 CURVE SMOOTH",
"169 362 OFFCURVE",
"205 460 OFFCURVE",
"298 460 CURVE SMOOTH",
"340 460 OFFCURVE",
"374 438 OFFCURVE",
"335 391 CURVE SMOOTH",
"312 363 LINE",
"323 335 OFFCURVE",
"355 316 OFFCURVE",
"386 316 CURVE SMOOTH",
"430 316 OFFCURVE",
"459 347 OFFCURVE",
"459 391 CURVE SMOOTH",
"459 482 OFFCURVE",
"386 527 OFFCURVE",
"295 527 CURVE SMOOTH"
);
}
);
};
hints = (
{
place = "{35, 134}";
},
{
horizontal = 1;
place = "{-14, 86}";
},
{
horizontal = 1;
place = "{460, 67}";
}
);
layerId = "D537FF15-C70F-4B12-AACC-84E5BB5FCF97";
paths = (
{
closed = 1;
nodes = (
"125 527 OFFCURVE",
"35 397 OFFCURVE",
"35 226 CURVE SMOOTH",
"35 78 OFFCURVE",
"110 -14 OFFCURVE",
"247 -14 CURVE SMOOTH",
"352 -14 OFFCURVE",
"419 67 OFFCURVE",
"443 99 CURVE",
"401 143 LINE",
"369 111 OFFCURVE",
"328 72 OFFCURVE",
"269 72 CURVE SMOOTH",
"194 72 OFFCURVE",
"169 137 OFFCURVE",
"169 228 CURVE SMOOTH",
"169 362 OFFCURVE",
"205 460 OFFCURVE",
"298 460 CURVE SMOOTH",
"340 460 OFFCURVE",
"374 438 OFFCURVE",
"335 391 CURVE SMOOTH",
"312 363 LINE",
"323 335 OFFCURVE",
"355 316 OFFCURVE",
"386 316 CURVE SMOOTH",
"430 316 OFFCURVE",
"459 347 OFFCURVE",
"459 391 CURVE SMOOTH",
"459 482 OFFCURVE",
"386 527 OFFCURVE",
"295 527 CURVE SMOOTH"
);
}
);
width = 494;
}
);
leftKerningGroup = o;
rightKerningGroup = c;
unicode = 0063;
},
{
glyphname = d;
lastChange = "2016-06-05 15:24:03 +0000";
layers = (
{
anchors = (
{
name = bottom;
position = "{272, -30}";
},
{
name = top;
position = "{284, 550}";
}
);
background = {
paths = (
{
closed = 1;
nodes = (
"486 756 LINE",
"470 767 LINE",
"314 767 LINE",
"308 719 LINE",
"401 698 LINE",
"393 496 LINE",
"369 508 OFFCURVE",
"321 521 OFFCURVE",
"281 521 CURVE SMOOTH",
"140 521 OFFCURVE",
"48 393 OFFCURVE",
"48 206 CURVE SMOOTH",
"48 87 OFFCURVE",
"92 -14 OFFCURVE",
"199 -14 CURVE SMOOTH",
"299 -14 OFFCURVE",
"339 55 OFFCURVE",
"375 189 CURVE SMOOTH",
"398 275 LINE",
"405 274 LINE",
"389 86 LINE SMOOTH",
"384 29 OFFCURVE",
"398 -14 OFFCURVE",
"457 -14 CURVE SMOOTH",
"498 -14 OFFCURVE",
"550 16 OFFCURVE",
"572 37 CURVE",
"549 71 LINE",
"529 58 OFFCURVE",
"510 46 OFFCURVE",
"492 46 CURVE SMOOTH",
"470 46 OFFCURVE",
"465 56 OFFCURVE",
"466 86 CURVE SMOOTH"
);
},
{
closed = 1;
nodes = (
"138 54 OFFCURVE",
"138 169 OFFCURVE",
"138 211 CURVE SMOOTH",
"138 354 OFFCURVE",
"195 460 OFFCURVE",
"289 460 CURVE SMOOTH",
"319 460 OFFCURVE",
"371 450 OFFCURVE",
"396 437 CURVE",
"363 316 LINE SMOOTH",
"318 152 OFFCURVE",
"294 54 OFFCURVE",
"215 54 CURVE SMOOTH"
);
}
);
};
hints = (
{
place = "{48, 90}";
},
{
place = "{397, 79}";
},
{
horizontal = 1;
place = "{-14, 68}";
},
{
horizontal = 1;
place = "{460, 61}";
},
{
horizontal = 1;
place = "{767, -20}";
target = down;
type = TopGhost;
}
);
layerId = UUID0;
paths = (
{
closed = 1;
nodes = (
"486 756 LINE",
"470 767 LINE",
"314 767 LINE",
"308 719 LINE",
"401 698 LINE",
"393 496 LINE",
"369 508 OFFCURVE",
"321 521 OFFCURVE",
"281 521 CURVE SMOOTH",
"140 521 OFFCURVE",
"48 393 OFFCURVE",
"48 206 CURVE SMOOTH",
"48 87 OFFCURVE",
"92 -14 OFFCURVE",
"199 -14 CURVE SMOOTH",
"299 -14 OFFCURVE",
"339 55 OFFCURVE",
"375 189 CURVE SMOOTH",
"398 275 LINE",
"405 274 LINE",
"389 86 LINE SMOOTH",
"384 29 OFFCURVE",
"398 -14 OFFCURVE",
"457 -14 CURVE SMOOTH",
"498 -14 OFFCURVE",
"550 16 OFFCURVE",
"572 37 CURVE",
"549 71 LINE",
"529 58 OFFCURVE",
"510 46 OFFCURVE",
"492 46 CURVE SMOOTH",
"470 46 OFFCURVE",
"465 56 OFFCURVE",
"466 86 CURVE SMOOTH"
);
},
{
closed = 1;
nodes = (
"138 54 OFFCURVE",
"138 169 OFFCURVE",
"138 211 CURVE SMOOTH",
"138 354 OFFCURVE",
"195 460 OFFCURVE",
"289 460 CURVE SMOOTH",
"319 460 OFFCURVE",
"371 450 OFFCURVE",
"396 437 CURVE",
"363 316 LINE SMOOTH",
"318 152 OFFCURVE",
"294 54 OFFCURVE",
"215 54 CURVE SMOOTH"
);
}
);
width = 575;
},
{
anchors = (
{
name = bottom;
position = "{275, -30}";
},
{
name = top;
position = "{286, 550}";
}
);
background = {
paths = (
{
closed = 1;
nodes = (
"510 749 LINE",
"487 767 LINE",
"314 767 LINE",
"306 711 LINE",
"402 690 LINE",
"394 502 LINE",
"370 514 OFFCURVE",
"327 527 OFFCURVE",
"280 527 CURVE SMOOTH",
"121 527 OFFCURVE",
"32 390 OFFCURVE",
"32 201 CURVE SMOOTH",
"32 73 OFFCURVE",
"88 -14 OFFCURVE",
"191 -14 CURVE SMOOTH",
"301 -14 OFFCURVE",
"326 61 OFFCURVE",
"361 185 CURVE SMOOTH",
"383 263 LINE",
"390 262 LINE",
"374 89 LINE SMOOTH",
"369 29 OFFCURVE",
"391 -14 OFFCURVE",
"464 -14 CURVE SMOOTH",
"509 -14 OFFCURVE",
"560 13 OFFCURVE",
"582 34 CURVE",
"558 82 LINE",
"544 72 OFFCURVE",
"528 65 OFFCURVE",
"515 65 CURVE SMOOTH",
"493 65 OFFCURVE",
"489 78 OFFCURVE",
"490 108 CURVE SMOOTH"
);
},
{
closed = 1;
nodes = (
"173 68 OFFCURVE",
"166 107 OFFCURVE",
"166 187 CURVE SMOOTH",
"166 340 OFFCURVE",
"203 456 OFFCURVE",
"294 456 CURVE SMOOTH",
"323 456 OFFCURVE",
"345 451 OFFCURVE",
"370 438 CURVE",
"336 314 LINE SMOOTH",
"288 141 OFFCURVE",
"267 68 OFFCURVE",
"217 68 CURVE SMOOTH"
);
}
);
};
hints = (
{
place = "{32, 134}";
},
{
place = "{398, 102}";
},
{
horizontal = 1;
place = "{456, 71}";
},
{
horizontal = 1;
place = "{767, -20}";
target = down;
type = TopGhost;
},
{
horizontal = 1;
origin = "{1, 0}";
target = "{0, 14}";
}
);
layerId = "D537FF15-C70F-4B12-AACC-84E5BB5FCF97";
paths = (
{
closed = 1;
nodes = (
"510 749 LINE",
"487 767 LINE",
"314 767 LINE",
"306 711 LINE",
"402 690 LINE",
"394 502 LINE",
"370 514 OFFCURVE",
"327 527 OFFCURVE",
"280 527 CURVE SMOOTH",
"121 527 OFFCURVE",
"32 390 OFFCURVE",
"32 201 CURVE SMOOTH",
"32 73 OFFCURVE",
"88 -14 OFFCURVE",
"191 -14 CURVE SMOOTH",
"301 -14 OFFCURVE",
"326 61 OFFCURVE",
"361 185 CURVE SMOOTH",
"383 263 LINE",
"390 262 LINE",
"374 89 LINE SMOOTH",
"369 29 OFFCURVE",
"391 -14 OFFCURVE",
"464 -14 CURVE SMOOTH",
"509 -14 OFFCURVE",
"560 13 OFFCURVE",
"582 34 CURVE",
"558 82 LINE",
"544 72 OFFCURVE",
"528 65 OFFCURVE",
"515 65 CURVE SMOOTH",
"493 65 OFFCURVE",
"489 78 OFFCURVE",
"490 108 CURVE SMOOTH"
);
},
{
closed = 1;
nodes = (
"173 68 OFFCURVE",
"166 107 OFFCURVE",
"166 187 CURVE SMOOTH",
"166 340 OFFCURVE",
"203 456 OFFCURVE",
"294 456 CURVE SMOOTH",
"323 456 OFFCURVE",
"345 451 OFFCURVE",
"370 438 CURVE",
"336 314 LINE SMOOTH",
"288 141 OFFCURVE",
"267 68 OFFCURVE",
"217 68 CURVE SMOOTH"
);
}
);
width = 579;
}
);
leftKerningGroup = o;
rightKerningGroup = l;
unicode = 0064;
},
{
glyphname = e;
lastChange = "2016-06-05 15:24:03 +0000";
layers = (
{
anchors = (
{
name = bottom;
position = "{240, -30}";
},
{
name = top;
position = "{275, 550}";
}
);
background = {
paths = (
{
closed = 1;
nodes = (
"144 521 OFFCURVE",
"48 397 OFFCURVE",
"48 225 CURVE SMOOTH",
"48 88 OFFCURVE",
"117 -14 OFFCURVE",
"246 -14 CURVE SMOOTH",
"345 -14 OFFCURVE",
"407 51 OFFCURVE",
"430 80 CURVE",
"396 117 LINE",
"368 91 OFFCURVE",
"326 52 OFFCURVE",
"266 52 CURVE SMOOTH",
"183 52 OFFCURVE",
"145 132 OFFCURVE",
"139 199 CURVE",
"250 226 LINE SMOOTH",
"335 247 OFFCURVE",
"433 284 OFFCURVE",
"433 394 CURVE SMOOTH",
"433 471 OFFCURVE",
"388 521 OFFCURVE",
"288 521 CURVE SMOOTH"
);
},
{
closed = 1;
nodes = (
"344 326 OFFCURVE",
"310 300 OFFCURVE",
"240 282 CURVE SMOOTH",
"139 256 LINE",
"146 387 OFFCURVE",
"198 465 OFFCURVE",
"281 465 CURVE SMOOTH",
"327 465 OFFCURVE",
"344 430 OFFCURVE",
"344 391 CURVE SMOOTH"
);
}
);
};
hints = (
{
place = "{48, 91}";
},
{
place = "{344, 89}";
},
{
horizontal = 1;
place = "{-14, 66}";
},
{
horizontal = 1;
place = "{465, 56}";
}
);
layerId = UUID0;
paths = (
{
closed = 1;
nodes = (
"144 521 OFFCURVE",
"48 397 OFFCURVE",
"48 225 CURVE SMOOTH",
"48 88 OFFCURVE",
"117 -14 OFFCURVE",
"246 -14 CURVE SMOOTH",
"345 -14 OFFCURVE",
"407 51 OFFCURVE",
"430 80 CURVE",
"396 117 LINE",
"368 91 OFFCURVE",
"326 52 OFFCURVE",
"266 52 CURVE SMOOTH",
"183 52 OFFCURVE",
"145 132 OFFCURVE",
"139 199 CURVE",
"250 226 LINE SMOOTH",
"335 247 OFFCURVE",
"433 284 OFFCURVE",
"433 394 CURVE SMOOTH",
"433 471 OFFCURVE",
"388 521 OFFCURVE",
"288 521 CURVE SMOOTH"
);
},
{
closed = 1;
nodes = (
"344 326 OFFCURVE",
"310 300 OFFCURVE",
"240 282 CURVE SMOOTH",
"139 256 LINE",
"146 387 OFFCURVE",
"198 465 OFFCURVE",
"281 465 CURVE SMOOTH",
"327 465 OFFCURVE",
"344 430 OFFCURVE",
"344 391 CURVE SMOOTH"
);
}
);
width = 481;
},
{
anchors = (
{
name = bottom;
position = "{243, -30}";
},
{
name = top;
position = "{283, 550}";
}
);
background = {
paths = (
{
closed = 1;
nodes = (
"127 527 OFFCURVE",
"35 400 OFFCURVE",
"35 225 CURVE SMOOTH",
"35 88 OFFCURVE",
"108 -14 OFFCURVE",
"244 -14 CURVE SMOOTH",
"350 -14 OFFCURVE",
"420 52 OFFCURVE",
"443 81 CURVE",
"404 132 LINE",
"376 106 OFFCURVE",
"333 71 OFFCURVE",
"279 71 CURVE SMOOTH",
"200 71 OFFCURVE",
"174 132 OFFCURVE",
"168 199 CURVE",
"252 221 LINE SMOOTH",
"348 245 OFFCURVE",
"447 284 OFFCURVE",
"447 394 CURVE SMOOTH",
"447 471 OFFCURVE",
"402 527 OFFCURVE",
"291 527 CURVE SMOOTH"
);
},
{
closed = 1;
nodes = (
"324 330 OFFCURVE",
"294 300 OFFCURVE",
"224 283 CURVE SMOOTH",
"170 269 LINE",
"178 390 OFFCURVE",
"222 460 OFFCURVE",
"277 460 CURVE SMOOTH",
"308 460 OFFCURVE",
"324 434 OFFCURVE",
"324 395 CURVE SMOOTH"
);
}
);
};
hints = (
{
place = "{35, 135}";
},
{
place = "{324, 123}";
},
{
horizontal = 1;
place = "{-14, 85}";
},
{
horizontal = 1;
place = "{460, 67}";
}
);
layerId = "D537FF15-C70F-4B12-AACC-84E5BB5FCF97";
paths = (
{
closed = 1;
nodes = (
"127 527 OFFCURVE",
"35 400 OFFCURVE",
"35 225 CURVE SMOOTH",
"35 88 OFFCURVE",
"108 -14 OFFCURVE",
"244 -14 CURVE SMOOTH",
"350 -14 OFFCURVE",
"420 52 OFFCURVE",
"443 81 CURVE",
"404 132 LINE",
"376 106 OFFCURVE",
"333 71 OFFCURVE",
"279 71 CURVE SMOOTH",
"200 71 OFFCURVE",
"174 132 OFFCURVE",
"168 199 CURVE",
"252 221 LINE SMOOTH",
"348 245 OFFCURVE",
"447 284 OFFCURVE",
"447 394 CURVE SMOOTH",
"447 471 OFFCURVE",
"402 527 OFFCURVE",
"291 527 CURVE SMOOTH"
);
},
{
closed = 1;
nodes = (
"324 330 OFFCURVE",
"294 300 OFFCURVE",
"224 283 CURVE SMOOTH",
"170 269 LINE",
"178 390 OFFCURVE",
"222 460 OFFCURVE",
"277 460 CURVE SMOOTH",
"308 460 OFFCURVE",
"324 434 OFFCURVE",
"324 395 CURVE SMOOTH"
);
}
);
width = 482;
}
);
leftKerningGroup = o;
rightKerningGroup = o;
unicode = 0065;
},
